<?xml version="1.0" encoding="UTF-8" standalone="no"?>
<!-- Created with Inkscape (http://www.inkscape.org/) -->

<svg
   width="130.68188mm"
   height="117.4292mm"
   viewBox="0 0 130.68188 117.4292"
   version="1.1"
   id="svg5"
   xml:space="preserve"
   inkscape:version="1.2 (dc2aedaf03, 2022-05-15)"
   sodipodi:docname="drawing.svg.2025_01_17_15_17_03.0.svg"
   xmlns:inkscape="http://www.inkscape.org/namespaces/inkscape"
   xmlns:sodipodi="http://sodipodi.sourceforge.net/DTD/sodipodi-0.dtd"
   xmlns="http://www.w3.org/2000/svg"
   xmlns:svg="http://www.w3.org/2000/svg"><sodipodi:namedview
     id="namedview7"
     pagecolor="#ffffff"
     bordercolor="#ffffff"
     borderopacity="1"
     inkscape:showpageshadow="0"
     inkscape:pageopacity="0"
     inkscape:pagecheckerboard="0"
     inkscape:deskcolor="#ffffff"
     inkscape:document-units="mm"
     showgrid="true"
     showborder="false"
     showguides="true"
     inkscape:zoom="0.1767767"
     inkscape:cx="-3753.3227"
     inkscape:cy="6491.2401"
     inkscape:window-width="1920"
     inkscape:window-height="1051"
     inkscape:window-x="-9"
     inkscape:window-y="-9"
     inkscape:window-maximized="1"
     inkscape:current-layer="layer1"><inkscape:grid
       type="xygrid"
       id="grid182"
       spacingx="2.6458333"
       spacingy="2.6458333"
       color="#89c7e5"
       opacity="0.16862745"
       empcolor="#89c7e5"
       empopacity="0.16862745"
       visible="true" /><sodipodi:guide
       position="2312.9492,583.33953"
       orientation="-1,0"
       id="guide292"
       inkscape:locked="false"
       inkscape:label=""
       inkscape:color="rgb(237,51,59)" /><sodipodi:guide
       position="2366.1526,769.26534"
       orientation="-1,0"
       id="guide352"
       inkscape:locked="false"
       inkscape:label=""
       inkscape:color="rgb(0,134,229)" /><sodipodi:guide
       position="2498.0253,772.42595"
       orientation="-1,0"
       id="guide354"
       inkscape:locked="false"
       inkscape:label=""
       inkscape:color="rgb(0,134,229)" /><sodipodi:guide
       position="2499.3978,710.51346"
       orientation="0,-1"
       id="guide360"
       inkscape:locked="false" /><sodipodi:guide
       position="2379.0951,837.51345"
       orientation="1,0"
       id="guide388"
       inkscape:locked="false" /><sodipodi:guide
       position="2428.3076,829.84053"
       orientation="0,-1"
       id="guide390"
       inkscape:locked="false" /><sodipodi:guide
       position="2484.9284,840.02699"
       orientation="1,0"
       id="guide392"
       inkscape:locked="false" /><sodipodi:guide
       position="2388.1589,723.07782"
       orientation="0,-1"
       id="guide394"
       inkscape:locked="false" /><sodipodi:guide
       position="2462.7034,842.80511"
       orientation="0,-1"
       id="guide5821"
       inkscape:locked="false" /></sodipodi:namedview><defs
     id="defs2" /><g
     inkscape:label="Layer 1"
     inkscape:groupmode="layer"
     id="layer1"
     transform="translate(2312.9493,-540.16759)"><rect
       style="fill:none;fill-opacity:1;stroke:#000000;stroke-width:2.53763;stroke-linecap:round;stroke-linejoin:round;stroke-dashoffset:6.23623;paint-order:fill markers stroke"
       id="rect68634"
       width="936.57953"
       height="788.17737"
       x="-2543.7515"
       y="241.88976" /><path
       id="path72652"
       style="color:#000000;fill:#1eb8b0;fill-opacity:1;stroke-linecap:round;stroke-linejoin:round;stroke-dashoffset:6.23623;paint-order:fill markers stroke"
       d="m -2301.4428,551.69129 c -15.3417,15.33035 -15.342,40.34382 0,55.6742 a 5.0004852,5.0004852 0 0 0 0.071,0.0713 c 0.2622,0.24804 0.5275,0.49384 0.7943,0.73668 0.1211,0.13939 0.1985,0.2561 0.3483,0.40595 l 46.5741,46.53902 c 0.018,0.018 0.038,0.035 0.056,0.053 0.084,0.082 0.1681,0.1635 0.2547,0.2416 1.5641,1.4359 3.5649,2.1545 5.5757,2.1833 0.062,10e-4 0.1235,0 0.1853,0 0.019,-2e-4 0.037,-5e-4 0.056,-7e-4 2.1476,-0.012 4.2911,-0.8086 5.909,-2.4253 l 0.056,-0.056 1.3059,-1.3052 45.2678,-45.23199 c 0.1531,-0.15293 0.2315,-0.27042 0.3537,-0.41213 0.2655,-0.24133 0.5303,-0.48379 0.7893,-0.73227 a 5.0004852,5.0004852 0 0 0 0.072,-0.0706 c 15.3419,-15.33057 15.3417,-40.34348 -4e-4,-55.67385 -7.5721,-7.57207 -17.9129,-11.65644 -28.6015,-11.45518 a 5.0004852,5.0004852 0 0 0 -0.039,-0.0252 l -4e-4,0.0238 c -0.2301,0.005 -0.4525,-0.0535 -0.6829,-0.045 -9.0765,0.33932 -17.7322,3.80504 -24.5193,9.76117 -7.5406,-6.61702 -17.362,-10.13004 -27.453,-9.75276 l 4e-4,3.7e-4 c -9.9283,0.37114 -19.3547,4.48068 -26.381,11.50157 z m 57.6741,8.41788 a 5.0004852,5.0004852 0 0 0 0.1448,-0.13087 5.0004852,5.0004852 0 0 0 0.5992,-0.54658 c 0.2059,-0.22953 0.4165,-0.45503 0.6296,-0.67784 5.2422,-5.23231 12.2652,-8.29348 19.6714,-8.57031 8.1744,-0.30563 16.0996,2.80337 21.8827,8.58197 11.5175,11.50334 11.5177,30.0004 0.012,41.51177 -0.2227,0.21284 -0.4479,0.4214 -0.6774,0.62702 a 5.0004852,5.0004852 0 0 0 -0.5489,0.60148 l -9.8258,9.81776 v -10e-4 l -0.878,0.87952 -22.6352,22.61695 c -1.5328,1.17649 -3.6432,1.05999 -5.0573,-0.35738 -1.5469,-1.54697 -1.5449,-3.93213 7e-4,-5.48036 l 23.0986,-23.13731 -3.535,-3.53495 -3.7034,3.7093 -0.013,-0.0128 -23.0966,23.13539 c -1.5456,1.54842 -3.9239,1.54762 -5.4691,-10e-4 -1.5469,-1.54695 -1.545,-3.93134 7e-4,-5.47964 l 23.0942,-23.13285 -3.535,-3.53495 -3.7053,3.71185 -0.021,-0.0216 -23.093,23.13172 c -1.5456,1.54842 -3.9239,1.5476 -5.469,-0.001 -1.547,-1.54697 -1.5454,-3.9317 3e-4,-5.48 l 3.4191,-3.42418 c 0.1003,-0.0919 0.2005,-0.18573 0.2975,-0.28289 l 25.0734,-25.11513 -3.536,-3.53605 -5.6868,5.69633 -0.01,-0.006 -19.5709,19.60372 c -1.545,1.36643 -3.7935,1.308 -5.2765,-0.17828 -1.547,-1.54698 -1.5453,-3.93178 4e-4,-5.48008 l 17.6386,-17.66853 c 0.075,-0.0705 0.1501,-0.14128 0.2232,-0.21447 l 14.4321,-14.46282 -3.536,-3.53605 -7.2241,7.24019 v -0.004 l -7.3684,7.38156 c -1.5456,1.3852 -3.8085,1.33189 -5.2984,-0.16075 -1.547,-1.54698 -1.5461,-3.93099 -7e-4,-5.47966 l 14.4216,-14.45228 -8e-4,-7.2e-4 4.2603,-4.25738 c -0.077,0.0738 -0.1373,0.12132 -0.1272,0.11333 z"
       inkscape:export-filename=".\bersama lebih mudah hijau.png"
       inkscape:export-xdpi="96"
       inkscape:export-ydpi="96" /></g></svg>
