<?xml version="1.0" encoding="UTF-8" standalone="no"?>
<!-- Created with Inkscape (http://www.inkscape.org/) -->

<svg
   width="131.63257mm"
   height="132.29633mm"
   viewBox="0 0 131.63257 132.29633"
   version="1.1"
   id="svg5"
   xml:space="preserve"
   inkscape:version="1.2 (dc2aedaf03, 2022-05-15)"
   sodipodi:docname="drawing.svg.2025_01_17_15_17_03.0.svg"
   xmlns:inkscape="http://www.inkscape.org/namespaces/inkscape"
   xmlns:sodipodi="http://sodipodi.sourceforge.net/DTD/sodipodi-0.dtd"
   xmlns="http://www.w3.org/2000/svg"
   xmlns:svg="http://www.w3.org/2000/svg"><sodipodi:namedview
     id="namedview7"
     pagecolor="#ffffff"
     bordercolor="#ffffff"
     borderopacity="1"
     inkscape:showpageshadow="0"
     inkscape:pageopacity="0"
     inkscape:pagecheckerboard="0"
     inkscape:deskcolor="#ffffff"
     inkscape:document-units="mm"
     showgrid="true"
     showborder="false"
     showguides="true"
     inkscape:zoom="0.1767767"
     inkscape:cx="-3753.3227"
     inkscape:cy="6491.2401"
     inkscape:window-width="1920"
     inkscape:window-height="1051"
     inkscape:window-x="-9"
     inkscape:window-y="-9"
     inkscape:window-maximized="1"
     inkscape:current-layer="layer1"><inkscape:grid
       type="xygrid"
       id="grid182"
       spacingx="2.6458333"
       spacingy="2.6458333"
       color="#89c7e5"
       opacity="0.16862745"
       empcolor="#89c7e5"
       empopacity="0.16862745"
       visible="true" /><sodipodi:guide
       position="2137.4305,891.14736"
       orientation="-1,0"
       id="guide292"
       inkscape:locked="false"
       inkscape:label=""
       inkscape:color="rgb(237,51,59)" /><sodipodi:guide
       position="2190.6339,1077.0732"
       orientation="-1,0"
       id="guide352"
       inkscape:locked="false"
       inkscape:label=""
       inkscape:color="rgb(0,134,229)" /><sodipodi:guide
       position="2322.5066,1080.2338"
       orientation="-1,0"
       id="guide354"
       inkscape:locked="false"
       inkscape:label=""
       inkscape:color="rgb(0,134,229)" /><sodipodi:guide
       position="2323.8791,1018.3213"
       orientation="0,-1"
       id="guide360"
       inkscape:locked="false" /><sodipodi:guide
       position="2203.5764,1145.3213"
       orientation="1,0"
       id="guide388"
       inkscape:locked="false" /><sodipodi:guide
       position="2252.7889,1137.6484"
       orientation="0,-1"
       id="guide390"
       inkscape:locked="false" /><sodipodi:guide
       position="2309.4097,1147.8348"
       orientation="1,0"
       id="guide392"
       inkscape:locked="false" /><sodipodi:guide
       position="2212.6402,1030.8857"
       orientation="0,-1"
       id="guide394"
       inkscape:locked="false" /><sodipodi:guide
       position="2287.1847,1150.6129"
       orientation="0,-1"
       id="guide5821"
       inkscape:locked="false" /></sodipodi:namedview><defs
     id="defs2" /><g
     inkscape:label="Layer 1"
     inkscape:groupmode="layer"
     id="layer1"
     transform="translate(2137.4305,-833.10825)"><g
       id="g4491"
       transform="translate(123.74177,-55.376029)"
       style="fill:#ffffff;fill-opacity:1"
       inkscape:export-filename=".\pantau donasi putih.png"
       inkscape:export-xdpi="96"
       inkscape:export-ydpi="96"><path
         id="path4483"
         style="color:#000000;fill:#ffffff;fill-opacity:1;stroke-linecap:square;stroke-dashoffset:6.23623;-inkscape-stroke:none;paint-order:fill markers stroke"
         d="m -2245.0588,888.48427 c -8.8398,0 -16.1133,7.27343 -16.1133,16.11323 v 100.012 c 0,8.8398 7.2735,16.1132 16.1133,16.1132 h 44.4495 c 8.8397,0 16.1132,-7.2734 16.1132,-16.1132 v -13.60591 a 30.446847,30.542691 82.224926 0 1 -9.9999,-2.65617 v 16.26208 c 0,3.4728 -2.6404,6.1133 -6.1133,6.1133 h -44.4495 c -3.4728,0 -6.1134,-2.6405 -6.1134,-6.1133 v -100.012 c 0,-3.47283 2.6406,-6.11331 6.1134,-6.11332 h 44.4495 c 3.4729,0 6.1133,2.64049 6.1133,6.11332 v 28.44942 a 30.446847,30.542691 82.224926 0 1 9.9999,-2.66753 V 904.5975 c 0,-8.8398 -7.2735,-16.11323 -16.1132,-16.11323 z" /><path
         id="path4485"
         style="fill:#ffffff;fill-opacity:1;stroke:none;stroke-width:11.0138;stroke-linecap:square;stroke-linejoin:miter;stroke-dasharray:none;stroke-dashoffset:6.23623;stroke-opacity:1;paint-order:fill markers stroke"
         d="m -2264.491,-664.39542 a 29.965651,30.363281 44.999999 0 1 -17.2079,-0.65567 l 3e-4,38.91301 c 0,4.76649 3.8372,8.60373 8.6037,8.60373 4.7665,0 8.6037,-3.83688 8.6037,-8.60337 z"
         transform="matrix(0.75837299,-0.65182084,0.66176071,0.74971512,0,0)" /><path
         style="color:#000000;fill:#ffffff;fill-opacity:1;stroke-width:0.999998;stroke-linecap:square;stroke-dashoffset:6.23623;-inkscape-stroke:none;paint-order:fill markers stroke"
         d="m -2205.3978,933.58031 c -14.9679,12.99906 -16.558,35.79845 -3.5248,50.7186 13.0332,14.92017 35.9009,16.47899 50.8689,3.47991 14.968,-12.99912 16.5567,-35.79725 3.5234,-50.71742 -13.0332,-14.92015 -35.8994,-16.48021 -50.8675,-3.48109 z m 7.2457,8.29467 c 10.4797,-9.10122 26.1937,-8.02379 35.3063,2.40814 9.1126,10.43194 8.0275,26.10128 -2.4523,35.20251 -10.4796,9.10116 -26.1964,8.02357 -35.309,-2.40837 -9.1126,-10.43193 -8.0247,-26.10112 2.455,-35.20228 z"
         id="path4487" /><path
         id="path4489"
         style="fill:#ffffff;fill-opacity:1;stroke:none;stroke-width:10;stroke-linecap:square;stroke-linejoin:miter;stroke-dasharray:none;stroke-dashoffset:6.23623;stroke-opacity:1;paint-order:fill markers stroke"
         d="m -2256.1718,991.91 v 23.8125 h 66.675 V 991.91 Z m 33.338,7.14375 a 4.7625003,4.7625003 0 0 1 4.7625,4.76245 4.7625003,4.7625003 0 0 1 -4.7625,4.7625 4.7625003,4.7625003 0 0 1 -4.7625,-4.7625 4.7625003,4.7625003 0 0 1 4.7625,-4.76245 z" /></g></g></svg>
