<?xml version="1.0" encoding="UTF-8" standalone="no"?>
<!-- Created with Inkscape (http://www.inkscape.org/) -->

<svg
   width="131.79907mm"
   height="131.95709mm"
   viewBox="0 0 131.79907 131.95709"
   version="1.1"
   id="svg5"
   xml:space="preserve"
   inkscape:version="1.2 (dc2aedaf03, 2022-05-15)"
   sodipodi:docname="drawing.svg.2025_01_17_15_17_03.0.svg"
   xmlns:inkscape="http://www.inkscape.org/namespaces/inkscape"
   xmlns:sodipodi="http://sodipodi.sourceforge.net/DTD/sodipodi-0.dtd"
   xmlns="http://www.w3.org/2000/svg"
   xmlns:svg="http://www.w3.org/2000/svg"><sodipodi:namedview
     id="namedview7"
     pagecolor="#ffffff"
     bordercolor="#ffffff"
     borderopacity="1"
     inkscape:showpageshadow="0"
     inkscape:pageopacity="0"
     inkscape:pagecheckerboard="0"
     inkscape:deskcolor="#ffffff"
     inkscape:document-units="mm"
     showgrid="true"
     showborder="false"
     showguides="true"
     inkscape:zoom="0.1767767"
     inkscape:cx="-3753.3227"
     inkscape:cy="6491.2401"
     inkscape:window-width="1920"
     inkscape:window-height="1051"
     inkscape:window-x="-9"
     inkscape:window-y="-9"
     inkscape:window-maximized="1"
     inkscape:current-layer="layer1"><inkscape:grid
       type="xygrid"
       id="grid182"
       spacingx="2.6458333"
       spacingy="2.6458333"
       color="#89c7e5"
       opacity="0.16862745"
       empcolor="#89c7e5"
       empopacity="0.16862745"
       visible="true" /><sodipodi:guide
       position="1978.1486,586.73723"
       orientation="-1,0"
       id="guide292"
       inkscape:locked="false"
       inkscape:label=""
       inkscape:color="rgb(237,51,59)" /><sodipodi:guide
       position="2031.3519,772.66304"
       orientation="-1,0"
       id="guide352"
       inkscape:locked="false"
       inkscape:label=""
       inkscape:color="rgb(0,134,229)" /><sodipodi:guide
       position="2163.2246,775.82365"
       orientation="-1,0"
       id="guide354"
       inkscape:locked="false"
       inkscape:label=""
       inkscape:color="rgb(0,134,229)" /><sodipodi:guide
       position="2164.5971,713.91116"
       orientation="0,-1"
       id="guide360"
       inkscape:locked="false" /><sodipodi:guide
       position="2044.2944,840.91115"
       orientation="1,0"
       id="guide388"
       inkscape:locked="false" /><sodipodi:guide
       position="2093.5069,833.23823"
       orientation="0,-1"
       id="guide390"
       inkscape:locked="false" /><sodipodi:guide
       position="2150.1277,843.42469"
       orientation="1,0"
       id="guide392"
       inkscape:locked="false" /><sodipodi:guide
       position="2053.3582,726.47552"
       orientation="0,-1"
       id="guide394"
       inkscape:locked="false" /><sodipodi:guide
       position="2127.9027,846.20281"
       orientation="0,-1"
       id="guide5821"
       inkscape:locked="false" /></sodipodi:namedview><defs
     id="defs2" /><g
     inkscape:label="Layer 1"
     inkscape:groupmode="layer"
     id="layer1"
     transform="translate(1978.1486,-529.0374)"><rect
       style="fill:none;fill-opacity:1;stroke:#000000;stroke-width:2.53763;stroke-linecap:round;stroke-linejoin:round;stroke-dashoffset:6.23623;paint-order:fill markers stroke"
       id="rect68634"
       width="936.57953"
       height="788.17737"
       x="-2543.7515"
       y="241.88976" /><g
       id="g72676"
       transform="translate(145.4376,-354.88436)"
       style="fill:#1eb8b0;fill-opacity:1"
       inkscape:export-filename=".\tepat dan cepat salur hijau.png"
       inkscape:export-xdpi="96"
       inkscape:export-ydpi="96"><path
         id="path72664"
         style="color:#000000;fill:#1eb8b0;fill-opacity:1;stroke-linecap:square;stroke-dashoffset:6.23623;-inkscape-stroke:none;paint-order:fill markers stroke"
         d="m -2077.174,883.92176 c -25.5906,0 -46.4121,20.97205 -46.4121,46.67208 0,25.70005 20.8215,46.67157 46.4121,46.67157 6.1198,0 11.9656,-1.20205 17.3204,-3.3786 v -11.00295 c -5.1471,2.79642 -11.0449,4.38165 -17.3204,4.38165 -20.1523,0 -36.4117,-16.34237 -36.4117,-36.67167 0,-20.3293 16.2594,-36.67218 36.4117,-36.67218 20.1523,0 36.4123,16.34288 36.4123,36.67218 0,1.38569 -0.083,2.75071 -0.23,4.09536 h 10.048 c 0.1176,-1.35022 0.1819,-2.71533 0.1819,-4.09536 0,-25.70003 -20.8217,-46.67208 -46.4122,-46.67208 z m 29.4339,68.29867 c -0.151,0.20835 -0.2986,0.41929 -0.4537,0.62425 h 11.8008 c 0.1118,-0.2062 0.2173,-0.4162 0.3261,-0.62425 z" /><path
         style="color:#000000;fill:#1eb8b0;fill-opacity:1;stroke-linecap:square;stroke-dashoffset:6.23623;-inkscape-stroke:none;paint-order:fill markers stroke"
         d="m -2065.4023,947.29492 v 5.55078 52.1914 c 0,5.91 4.9299,10.8418 10.8398,10.8418 h 51.9336 c 5.9099,0 10.8418,-4.9318 10.8418,-10.8418 v -57.74218 z m 11.0976,11.09961 h 51.418 v 46.38477 h -51.418 z"
         id="path72666" /><path
         style="color:#000000;fill:#1eb8b0;fill-opacity:1;stroke-linecap:round;stroke-dashoffset:6.23623;-inkscape-stroke:none;paint-order:fill markers stroke"
         d="m -2076.4824,903.31641 a 5,5 0 0 0 -5,5 v 21.86132 l -9.7344,10.68946 a 5,5 0 0 0 0.3301,7.06445 5,5 0 0 0 7.0625,-0.33008 l 12.3418,-13.55469 v -25.73046 a 5,5 0 0 0 -5,-5 z"
         id="path72668" /><path
         id="path72670"
         style="color:#000000;fill:#1eb8b0;fill-opacity:1;stroke-dashoffset:6.23623;-inkscape-stroke:none;paint-order:fill markers stroke"
         d="m -2116.0936,974.54672 v 28.57238 h 27.3534 l -1.7539,1.7539 -3.5373,3.5352 7.0725,7.0725 3.5352,-3.5352 14.0761,-14.07618 -13.3909,-14.3831 -3.4081,-3.65817 -7.3184,6.8125 3.4086,3.66024 2.6236,2.81844 h -18.6609 v -18.57251 z" /><path
         id="path72672"
         style="fill:#1eb8b0;fill-opacity:1;stroke-width:1.61801;stroke-linecap:round;stroke-linejoin:round;stroke-dashoffset:6.23623;paint-order:fill markers stroke"
         d="m -2042.7714,969.39728 a 10.033451,10.033451 0 0 0 0,14.18939 10.033451,10.033451 0 0 0 0.2521,0.23383 c 0.031,0.0419 0.064,0.0827 0.1025,0.12082 l 13.5876,13.58755 0.016,0.0157 c 0.1922,0.19226 0.443,0.28896 0.6965,0.29241 0.01,1.8e-4 0.014,6.7e-4 0.02,6.7e-4 0.01,-4e-5 0.014,-4.5e-4 0.02,-6.7e-4 0.2535,-0.003 0.5042,-0.10014 0.6965,-0.29241 l 12.7556,-12.75554 0.8477,-0.84773 c 0.038,-0.0381 0.072,-0.0789 0.1026,-0.12083 a 10.033451,10.033451 0 0 0 0.252,-0.23382 10.033451,10.033451 0 0 0 0,-14.1894 10.033451,10.033451 0 0 0 -14.1894,-8e-5 10.033451,10.033451 0 0 0 -0.234,0.25224 c -0.042,0.031 -0.083,0.0644 -0.1207,0.10242 l -0.1307,0.13076 -0.1308,-0.13076 c -0.038,-0.038 -0.079,-0.0712 -0.1204,-0.10217 a 10.033451,10.033451 0 0 0 -0.2343,-0.25249 10.033451,10.033451 0 0 0 -14.1894,8e-5 z" /><path
         style="color:#000000;fill:#1eb8b0;fill-opacity:1;stroke-linecap:square;stroke-dashoffset:6.23623;-inkscape-stroke:none;paint-order:fill markers stroke"
         d="m -2055.6504,929.68945 -9.7519,17.25586 v 10.27539 h 5 68.6152 v -10.28906 l -9.8652,-17.24219 z m 5.8359,10 h 42.3633 l 4.3086,7.53125 h -50.9277 z"
         id="path72674" /></g></g></svg>
