<?xml version="1.0" encoding="UTF-8" standalone="no"?>
<!-- Created with Inkscape (http://www.inkscape.org/) -->

<svg
   width="132.29175mm"
   height="132.29175mm"
   viewBox="0 0 132.29175 132.29175"
   version="1.1"
   id="svg5"
   xml:space="preserve"
   inkscape:version="1.2 (dc2aedaf03, 2022-05-15)"
   sodipodi:docname="drawing.svg.2025_01_17_15_17_03.0.svg"
   xmlns:inkscape="http://www.inkscape.org/namespaces/inkscape"
   xmlns:sodipodi="http://sodipodi.sourceforge.net/DTD/sodipodi-0.dtd"
   xmlns="http://www.w3.org/2000/svg"
   xmlns:svg="http://www.w3.org/2000/svg"><sodipodi:namedview
     id="namedview7"
     pagecolor="#ffffff"
     bordercolor="#ffffff"
     borderopacity="1"
     inkscape:showpageshadow="0"
     inkscape:pageopacity="0"
     inkscape:pagecheckerboard="0"
     inkscape:deskcolor="#ffffff"
     inkscape:document-units="mm"
     showgrid="true"
     showborder="false"
     showguides="true"
     inkscape:zoom="0.1767767"
     inkscape:cx="-3753.3227"
     inkscape:cy="6491.2401"
     inkscape:window-width="1920"
     inkscape:window-height="1051"
     inkscape:window-x="-9"
     inkscape:window-y="-9"
     inkscape:window-maximized="1"
     inkscape:current-layer="layer1"><inkscape:grid
       type="xygrid"
       id="grid182"
       spacingx="2.6458333"
       spacingy="2.6458333"
       color="#89c7e5"
       opacity="0.16862745"
       empcolor="#89c7e5"
       empopacity="0.16862745"
       visible="true" /><sodipodi:guide
       position="2253.18,-2834.4093"
       orientation="-1,0"
       id="guide292"
       inkscape:locked="false"
       inkscape:label=""
       inkscape:color="rgb(237,51,59)" /><sodipodi:guide
       position="2306.3834,-2648.4835"
       orientation="-1,0"
       id="guide352"
       inkscape:locked="false"
       inkscape:label=""
       inkscape:color="rgb(0,134,229)" /><sodipodi:guide
       position="2438.2561,-2645.3229"
       orientation="-1,0"
       id="guide354"
       inkscape:locked="false"
       inkscape:label=""
       inkscape:color="rgb(0,134,229)" /><sodipodi:guide
       position="2439.6286,-2707.2354"
       orientation="0,-1"
       id="guide360"
       inkscape:locked="false" /><sodipodi:guide
       position="2319.3259,-2580.2354"
       orientation="1,0"
       id="guide388"
       inkscape:locked="false" /><sodipodi:guide
       position="2368.5384,-2587.9083"
       orientation="0,-1"
       id="guide390"
       inkscape:locked="false" /><sodipodi:guide
       position="2425.1592,-2577.7219"
       orientation="1,0"
       id="guide392"
       inkscape:locked="false" /><sodipodi:guide
       position="2328.3897,-2694.671"
       orientation="0,-1"
       id="guide394"
       inkscape:locked="false" /><sodipodi:guide
       position="2402.9342,-2574.9437"
       orientation="0,-1"
       id="guide5821"
       inkscape:locked="false" /></sodipodi:namedview><defs
     id="defs2"><inkscape:path-effect
       effect="mirror_symmetry"
       start_point="-223.88559,78.54818"
       end_point="-223.88559,134.77214"
       center_point="-223.88559,106.66016"
       id="path-effect1719"
       is_visible="true"
       lpeversion="1.2"
       lpesatellites=""
       mode="free"
       discard_orig_path="false"
       fuse_paths="false"
       oposite_fuse="false"
       split_items="false"
       split_open="false"
       link_styles="false" /><inkscape:path-effect
       effect="mirror_symmetry"
       start_point="-223.88559,78.54818"
       end_point="-223.88559,134.77214"
       center_point="-223.88559,106.66016"
       id="path-effect7777"
       is_visible="true"
       lpeversion="1.2"
       lpesatellites=""
       mode="free"
       discard_orig_path="false"
       fuse_paths="false"
       oposite_fuse="false"
       split_items="false"
       split_open="false"
       link_styles="false" /><clipPath
       clipPathUnits="userSpaceOnUse"
       id="clipPath7715"><path
         id="path7717"
         clip-path="none"
         style="fill:#fd6939;fill-opacity:1;stroke-width:9.99998;stroke-dashoffset:6.23623;paint-order:fill markers stroke"
         d="m 118.35501,-125.09044 c -0.002,7.9e-4 -3.5042,1.03507 -6.54747,3.28461 -1.53314,1.13328 -3.79516,-0.23045 -5.20222,-0.97157 -1.97212,-1.03874 -4.68286,-0.63574 -4.68286,-0.63574 0,0 -1.35802,14.20584 -9.338267,28.840685 0,0 2.164834,2.657049 5.101794,1.990151 2.936963,-0.666898 3.699913,-3.793022 6.196103,-3.886809 2.49617,-0.09373 2.92757,3.199204 5.89239,4.023762 2.96481,0.824574 4.607,-4.851759 8.3043,-4.390027 3.69729,0.461716 3.98088,2.636785 3.98088,4.708401 v 10.657964 c 0.41143,2.134206 2.28013,3.736819 4.53811,3.736819 2.56154,0 4.62419,-2.061692 4.62419,-4.623255 v -14.517767 c 0,0 -0.041,-2.439509 2.91104,-2.825618 2.64742,-0.346276 3.29259,2.636581 5.95983,3.773652 2.08526,0.888944 4.03392,1.352708 4.03392,1.352708 -7.98019,-14.634836 -9.33731,-28.840676 -9.33731,-28.840676 0,0 -2.71072,-0.40301 -4.68284,0.63574 -1.40706,0.74111 -3.66909,2.10484 -5.20223,0.97156 -3.0433,-2.24954 -6.5459,-3.28388 -6.54841,-3.28461 v 1.66407 z"
         sodipodi:nodetypes="csscczzzzscsscssccssccc" /></clipPath><clipPath
       clipPathUnits="userSpaceOnUse"
       id="clipPath7779"><path
         id="path7781"
         style="fill:#1accbe;fill-opacity:1;stroke-width:6.58537;stroke-dashoffset:6.23623;paint-order:fill markers stroke"
         d="m -227.46277,79.834613 c 1.66299,-1.786615 3.57754,-2.607917 3.57754,-2.607917 l -3.6e-4,1.321466 v 56.223958 h -35.79556 c 0,-4.7019 1.3549,-4.26889 13.30502,-18.33957 11.95012,-14.07068 13.5139,-37.873713 13.5139,-37.873713 0,0 1.4807,-0.32006 2.55796,0.504608 0.7686,0.58838 2.00403,1.670892 2.8415,0.771168 z"
         inkscape:path-effect="#path-effect7777"
         inkscape:original-d="m -227.46277,79.834613 c 1.66299,-1.786615 3.57754,-2.607917 3.57754,-2.607917 l -3.6e-4,1.321466 v 56.223958 h -35.79556 c 0,-4.7019 1.3549,-4.26889 13.30502,-18.33957 11.95012,-14.07068 13.5139,-37.873713 13.5139,-37.873713 0,0 1.4807,-0.32006 2.55796,0.504608 0.7686,0.58838 2.00403,1.670892 2.8415,0.771168 z"
         class="UnoptimicedTransforms"
         sodipodi:nodetypes="scccczcss"
         transform="matrix(1.8306801,0,0,1.2595832,528.21866,-222.36432)" /></clipPath></defs><g
     inkscape:label="Layer 1"
     inkscape:groupmode="layer"
     id="layer1"
     transform="translate(2253.18,2892.4438)"><rect
       style="fill:none;fill-opacity:1;stroke:#000000;stroke-width:1.56123;stroke-linecap:round;stroke-linejoin:round;stroke-dashoffset:6.23623;paint-order:fill markers stroke"
       id="rect3543"
       width="725.88928"
       height="557.75635"
       x="-2618.323"
       y="-2935.8779" /><path
       id="path1567"
       style="fill:#f2f2f2;stroke-width:29.1967;stroke-linecap:round;stroke-linejoin:round;stroke-dashoffset:6.23623;paint-order:stroke fill markers"
       d="m -2120.8883,-2826.298 a 66.145836,66.145836 0 0 1 -66.1458,66.1458 66.145836,66.145836 0 0 1 -66.1459,-66.1458 66.145836,66.145836 0 0 1 66.1459,-66.1458 66.145836,66.145836 0 0 1 66.1458,66.1458 z"
       inkscape:export-filename="Bencana Alam.png"
       inkscape:export-xdpi="96"
       inkscape:export-ydpi="96" /><g
       id="g1715"
       transform="matrix(0.60431742,0,0,0.60431742,-2258.5586,-2758.0085)"><path
         id="path1693"
         style="fill:#fe9e2e;fill-opacity:1;stroke-width:10;stroke-dashoffset:6.23623;paint-order:fill markers stroke"
         d="m 109.93439,-184.5475 a 21.10912,21.10912 0 0 0 -20.791839,17.52805 13.816878,13.816878 0 0 0 -6.074471,-1.40769 13.816878,13.816878 0 0 0 -13.816765,13.81677 13.816878,13.816878 0 0 0 6.426383,11.64847 H 94.15651 c 5.98259,0 10.91287,4.09135 11.832,9.48017 h 23.98185 c 0.91931,-5.3888 5.84943,-9.48017 11.832,-9.48017 h 20.67077 a 12.089768,12.089768 0 0 0 5.79916,-10.30512 12.089768,12.089768 0 0 0 -12.09027,-12.09025 12.089768,12.089768 0 0 0 -4.05657,0.71047 14.200681,14.200681 0 0 0 0.0265,-0.71047 14.200681,14.200681 0 0 0 -14.20086,-14.20086 14.200681,14.200681 0 0 0 -10.38457,4.5173 21.10912,21.10912 0 0 0 -17.63212,-9.50667 z" /><path
         id="path1695"
         style="fill:#1accbe;fill-opacity:1;stroke-width:6.58537;stroke-dashoffset:6.23623;paint-order:fill markers stroke"
         d="m -227.46277,79.834613 c 1.66299,-1.786615 3.57754,-2.607917 3.57754,-2.607917 l -3.6e-4,1.321466 v 56.223958 h -35.79556 c 0,-4.7019 1.3549,-4.26889 13.30502,-18.33957 11.95012,-14.07068 13.5139,-37.873713 13.5139,-37.873713 0,0 1.4807,-0.32006 2.55796,0.504608 0.7686,0.58838 2.00403,1.670892 2.8415,0.771168 z m 7.15436,0 c -1.66299,-1.786615 -3.57754,-2.607917 -3.57754,-2.607917 l 3.6e-4,1.321466 v 56.223958 h 35.79556 c 0,-4.7019 -1.3549,-4.26889 -13.30502,-18.33957 -11.95012,-14.07068 -13.5139,-37.873713 -13.5139,-37.873713 0,0 -1.4807,-0.32006 -2.55796,0.504608 -0.7686,0.58838 -2.00403,1.670892 -2.8415,0.771168 z"
         inkscape:path-effect="#path-effect1719"
         inkscape:original-d="m -227.46277,79.834613 c 1.66299,-1.786615 3.57754,-2.607917 3.57754,-2.607917 l -3.6e-4,1.321466 v 56.223958 h -35.79556 c 0,-4.7019 1.3549,-4.26889 13.30502,-18.33957 11.95012,-14.07068 13.5139,-37.873713 13.5139,-37.873713 0,0 1.4807,-0.32006 2.55796,0.504608 0.7686,0.58838 2.00403,1.670892 2.8415,0.771168 z"
         class="UnoptimicedTransforms"
         sodipodi:nodetypes="scccczcss"
         transform="matrix(1.8306801,0,0,1.2595832,528.21866,-222.36432)" /><rect
         style="fill:#1eb8b0;fill-opacity:1;stroke-width:10;stroke-dashoffset:6.23623;paint-order:fill markers stroke"
         id="rect1697"
         width="95.779167"
         height="111.65417"
         x="43.391666"
         y="-142.34583"
         clip-path="url(#clipPath7779)" /><path
         id="path1699"
         clip-path="none"
         style="fill:#fd6939;fill-opacity:1;stroke-width:10;stroke-dashoffset:6.23623;paint-order:fill markers stroke"
         d="m 118.35501,-125.09044 c -0.002,7.3e-4 -3.5042,1.03507 -6.54747,3.28461 -1.53314,1.13328 -3.79516,-0.23045 -5.20222,-0.97157 -1.97212,-1.03874 -4.68286,-0.63574 -4.68286,-0.63574 0,0 -1.35802,14.20584 -9.338267,28.840685 0,0 2.164834,2.657049 5.101795,1.990151 2.936962,-0.666899 3.699912,-3.793023 6.196102,-3.886809 2.49617,-0.09373 2.92757,3.199205 5.89239,4.023762 2.96481,0.824575 4.607,-4.85176 8.3043,-4.390026 3.69729,0.461716 3.98088,2.636784 3.98088,4.7084 v 10.657963 c 0.41143,2.134207 2.28013,3.736821 4.53811,3.736821 2.56154,0 4.62419,-2.061694 4.62419,-4.623255 v -14.517769 c 0,0 -0.041,-2.439509 2.91104,-2.825618 2.64742,-0.346275 3.29259,2.636582 5.95983,3.773654 2.08526,0.888942 4.03392,1.352708 4.03392,1.352708 -7.98019,-14.634837 -9.33731,-28.840677 -9.33731,-28.840677 0,0 -2.71072,-0.40301 -4.68284,0.63574 -1.40706,0.74111 -3.66909,2.10484 -5.20223,0.97156 -3.0433,-2.24954 -6.5459,-3.28388 -6.54841,-3.28461 v 1.66407 z"
         sodipodi:nodetypes="csscczzzzscsscssccssccc" /><path
         id="path1701"
         style="fill:#f6b548;fill-opacity:1;stroke-width:10;stroke-dashoffset:6.23623;paint-order:fill markers stroke"
         d="m 109.93439,-184.5475 a 21.10912,21.10912 0 0 0 -20.791839,17.52805 13.816878,13.816878 0 0 0 -6.074471,-1.40769 13.816878,13.816878 0 0 0 -13.816765,13.81677 13.816878,13.816878 0 0 0 6.426383,11.64847 h 0.226107 a 12.566073,12.566073 0 0 1 -1.485267,-5.88241 12.566073,12.566073 0 0 1 12.566118,-12.56612 12.566073,12.566073 0 0 1 5.523857,1.28093 19.198168,19.198168 0 0 1 18.910207,-15.94157 19.198168,19.198168 0 0 1 16.03616,8.64577 12.915131,12.915131 0 0 1 9.44422,-4.10766 12.915131,12.915131 0 0 1 12.91519,12.91521 12.915131,12.915131 0 0 1 -0.0245,0.64614 10.995313,10.995313 0 0 1 3.68952,-0.64614 10.995313,10.995313 0 0 1 10.9957,10.99571 10.995313,10.995313 0 0 1 -0.68681,3.72831 12.089768,12.089768 0 0 0 4.48417,-9.37329 12.089768,12.089768 0 0 0 -12.09027,-12.09025 12.089768,12.089768 0 0 0 -4.05656,0.71047 14.200681,14.200681 0 0 0 0.0265,-0.71047 14.200681,14.200681 0 0 0 -14.20086,-14.20086 14.200681,14.200681 0 0 0 -10.38457,4.5173 21.10912,21.10912 0 0 0 -17.63212,-9.50667 z m -4.05657,50.50855 c 0.0415,0.18418 0.0787,0.36978 0.11069,0.55722 h 0.29232 c -0.12787,-0.19021 -0.26254,-0.37582 -0.40301,-0.55722 z" /><circle
         style="fill:#fd5239;fill-opacity:1;stroke-width:10;stroke-dashoffset:6.23623;paint-order:fill markers stroke"
         id="circle1703"
         cx="93.118652"
         cy="-126.52214"
         r="1.7124975" /><circle
         style="fill:#fe9e2e;fill-opacity:1;stroke-width:10;stroke-dashoffset:6.23623;paint-order:fill markers stroke"
         id="circle1705"
         cx="83.186172"
         cy="-116.58966"
         r="1.7124975" /><circle
         style="fill:#fd5239;fill-opacity:1;stroke-width:10;stroke-dashoffset:6.23623;paint-order:fill markers stroke"
         id="circle1707"
         cx="148.94608"
         cy="-118.98717"
         r="1.7124975" /><circle
         style="fill:#fe9e2e;fill-opacity:1;stroke-width:10;stroke-dashoffset:6.23623;paint-order:fill markers stroke"
         id="circle1709"
         cx="157.85109"
         cy="-128.57715"
         r="1.7124975" /><circle
         style="fill:#fd5239;fill-opacity:1;stroke-width:10;stroke-dashoffset:6.23623;paint-order:fill markers stroke"
         id="circle1711"
         cx="77.706177"
         cy="-130.97464"
         r="1.7124975" /><rect
         style="fill:#fd5239;fill-opacity:1;stroke-width:10;stroke-dashoffset:6.23623;paint-order:fill markers stroke"
         id="rect1713"
         width="37.570835"
         height="63.5"
         x="90.487503"
         y="-135.46666"
         clip-path="url(#clipPath7715)" /></g></g></svg>
