<?xml version="1.0" encoding="UTF-8" standalone="no"?>
<!-- Created with Inkscape (http://www.inkscape.org/) -->

<svg
   width="132.29163mm"
   height="132.29175mm"
   viewBox="0 0 132.29163 132.29175"
   version="1.1"
   id="svg5"
   xml:space="preserve"
   inkscape:version="1.2 (dc2aedaf03, 2022-05-15)"
   sodipodi:docname="drawing.svg.2025_01_17_15_17_03.0.svg"
   xmlns:inkscape="http://www.inkscape.org/namespaces/inkscape"
   xmlns:sodipodi="http://sodipodi.sourceforge.net/DTD/sodipodi-0.dtd"
   xmlns="http://www.w3.org/2000/svg"
   xmlns:svg="http://www.w3.org/2000/svg"><sodipodi:namedview
     id="namedview7"
     pagecolor="#ffffff"
     bordercolor="#ffffff"
     borderopacity="1"
     inkscape:showpageshadow="0"
     inkscape:pageopacity="0"
     inkscape:pagecheckerboard="0"
     inkscape:deskcolor="#ffffff"
     inkscape:document-units="mm"
     showgrid="true"
     showborder="false"
     showguides="true"
     inkscape:zoom="0.1767767"
     inkscape:cx="-3753.3227"
     inkscape:cy="6491.2401"
     inkscape:window-width="1920"
     inkscape:window-height="1051"
     inkscape:window-x="-9"
     inkscape:window-y="-9"
     inkscape:window-maximized="1"
     inkscape:current-layer="layer1"><inkscape:grid
       type="xygrid"
       id="grid182"
       spacingx="2.6458333"
       spacingy="2.6458333"
       color="#89c7e5"
       opacity="0.16862745"
       empcolor="#89c7e5"
       empopacity="0.16862745"
       visible="true" /><sodipodi:guide
       position="2093.9483,-2834.4093"
       orientation="-1,0"
       id="guide292"
       inkscape:locked="false"
       inkscape:label=""
       inkscape:color="rgb(237,51,59)" /><sodipodi:guide
       position="2147.1517,-2648.4835"
       orientation="-1,0"
       id="guide352"
       inkscape:locked="false"
       inkscape:label=""
       inkscape:color="rgb(0,134,229)" /><sodipodi:guide
       position="2279.0244,-2645.3229"
       orientation="-1,0"
       id="guide354"
       inkscape:locked="false"
       inkscape:label=""
       inkscape:color="rgb(0,134,229)" /><sodipodi:guide
       position="2280.3969,-2707.2354"
       orientation="0,-1"
       id="guide360"
       inkscape:locked="false" /><sodipodi:guide
       position="2160.0942,-2580.2354"
       orientation="1,0"
       id="guide388"
       inkscape:locked="false" /><sodipodi:guide
       position="2209.3067,-2587.9083"
       orientation="0,-1"
       id="guide390"
       inkscape:locked="false" /><sodipodi:guide
       position="2265.9275,-2577.7219"
       orientation="1,0"
       id="guide392"
       inkscape:locked="false" /><sodipodi:guide
       position="2169.158,-2694.671"
       orientation="0,-1"
       id="guide394"
       inkscape:locked="false" /><sodipodi:guide
       position="2243.7025,-2574.9438"
       orientation="0,-1"
       id="guide5821"
       inkscape:locked="false" /></sodipodi:namedview><defs
     id="defs2"><clipPath
       clipPathUnits="userSpaceOnUse"
       id="clipPath4985"><path
         id="path4987"
         style="fill:#fd5239;fill-opacity:1;stroke-width:9.99998;stroke-dashoffset:6.23623;paint-order:fill markers stroke"
         d="m 118.29666,-130.84163 a 22.050177,22.050177 0 0 0 -21.340304,16.55817 12.837435,12.837435 0 0 0 -10.375593,12.59044 12.837435,12.837435 0 0 0 12.837459,12.837462 12.837435,12.837435 0 0 0 6.437328,-1.731677 22.050177,22.050177 0 0 0 12.44111,3.845759 22.050177,22.050177 0 0 0 12.4411,-3.845759 12.837435,12.837435 0 0 0 6.43733,1.731677 12.837435,12.837435 0 0 0 12.83746,-12.837462 12.837435,12.837435 0 0 0 -10.36319,-12.59613 22.050177,22.050177 0 0 0 -21.3527,-16.55248 z" /></clipPath><clipPath
       clipPathUnits="userSpaceOnUse"
       id="clipPath4993"><ellipse
         style="fill:#fd5239;fill-opacity:1;stroke-width:9.9999;stroke-dashoffset:6.23623;paint-order:fill markers stroke"
         id="ellipse4995"
         cx="-127.40392"
         cy="-97.411438"
         rx="11.443456"
         ry="13.894631" /></clipPath><clipPath
       clipPathUnits="userSpaceOnUse"
       id="clipPath5124"><ellipse
         style="fill:#fd6939;fill-opacity:1;stroke-width:10.002;stroke-dashoffset:6.23623;paint-order:fill markers stroke"
         id="ellipse5126"
         cx="88.119934"
         cy="-170.37515"
         rx="13.065351"
         ry="15.864892"
         transform="matrix(0.99991345,0.01315628,0.01526959,0.99988341,0,0)" /></clipPath><clipPath
       clipPathUnits="userSpaceOnUse"
       id="clipPath5877"><path
         id="path5879"
         style="fill:#1eb8b0;fill-opacity:1;stroke-width:9.99998;stroke-dashoffset:6.23623;paint-order:fill markers stroke"
         d="m 102.67539,-184.94788 a 21.860762,22.558451 0 0 0 -21.861202,22.55883 21.860762,22.558451 0 0 0 0.233061,3.25974 19.349649,21.406239 0 0 0 -16.418118,21.15737 19.349649,21.406239 0 0 0 4.298444,13.44569 c 1.00797,1.84108 2.404732,4.69583 3.46904,8.04757 0.877763,2.76427 1.285703,7.31915 1.474845,11.30009 v 52.261923 h 90.25702 v -44.661357 l 0.10956,0.28267 c 0,0 -0.19103,-13.452166 1.62884,-19.183326 1.30071,-4.09625 3.09814,-7.45095 4.07417,-9.11727 a 19.349649,21.406239 0 0 0 0.50539,-0.83406 c 0.11463,-0.18238 0.19431,-0.30541 0.19431,-0.30541 l -0.0176,-0.005 a 19.349649,21.406239 0 0 0 2.8918,-11.23136 19.349649,21.406239 0 0 0 -17.13022,-21.2633 21.860762,22.558451 0 0 0 0.22117,-3.15381 21.860762,22.558451 0 0 0 -21.86067,-22.55883 21.860762,22.558451 0 0 0 -16.03572,7.22798 21.860762,22.558451 0 0 0 -16.03416,-7.22798 z" /></clipPath></defs><g
     inkscape:label="Layer 1"
     inkscape:groupmode="layer"
     id="layer1"
     transform="translate(2093.9483,2892.4438)"><rect
       style="fill:none;fill-opacity:1;stroke:#000000;stroke-width:1.56123;stroke-linecap:round;stroke-linejoin:round;stroke-dashoffset:6.23623;paint-order:fill markers stroke"
       id="rect3543"
       width="725.88928"
       height="557.75635"
       x="-2618.323"
       y="-2935.8779" /><path
       id="path1569"
       style="fill:#f2f2f2;stroke-width:29.1967;stroke-linecap:round;stroke-linejoin:round;stroke-dashoffset:6.23623;paint-order:stroke fill markers"
       d="m -1961.6566,-2826.298 a 66.145836,66.145836 0 0 1 -66.1458,66.1458 66.145836,66.145836 0 0 1 -66.1459,-66.1458 66.145836,66.145836 0 0 1 66.1459,-66.1458 66.145836,66.145836 0 0 1 66.1458,66.1458 z"
       inkscape:export-filename="Hewan.png"
       inkscape:export-xdpi="96"
       inkscape:export-ydpi="96" /><g
       id="g1745"
       transform="matrix(0.65131352,0,0,0.65131352,-2105.3557,-2748.8358)"><path
         id="path1721"
         style="fill:#fe9e2e;fill-opacity:1;stroke-width:10;stroke-dashoffset:6.23623;paint-order:fill markers stroke"
         d="m 102.67539,-184.94788 a 21.860762,22.558451 0 0 0 -21.861201,22.55883 21.860762,22.558451 0 0 0 0.23306,3.25974 19.349649,21.406239 0 0 0 -16.418119,21.15737 19.349649,21.406239 0 0 0 4.298446,13.44569 c 1.00797,1.84108 2.404732,4.69583 3.469039,8.04757 0.877763,2.76427 1.285702,7.31915 1.474845,11.30009 v 52.261923 h 90.25702 v -44.661356 l 0.10956,0.28267 c 0,0 -0.19103,-13.452167 1.62884,-19.183327 1.30071,-4.09625 3.09814,-7.45095 4.07417,-9.11727 a 19.349649,21.406239 0 0 0 0.50539,-0.83406 c 0.11463,-0.18238 0.19431,-0.30541 0.19431,-0.30541 l -0.0176,-0.005 a 19.349649,21.406239 0 0 0 2.89181,-11.23136 19.349649,21.406239 0 0 0 -17.13022,-21.2633 21.860762,22.558451 0 0 0 0.22117,-3.15381 21.860762,22.558451 0 0 0 -21.86068,-22.55883 21.860762,22.558451 0 0 0 -16.03571,7.22798 21.860762,22.558451 0 0 0 -16.03416,-7.22798 z" /><circle
         style="fill:#f6b548;fill-opacity:1;stroke-width:10;stroke-dashoffset:6.23623;paint-order:fill markers stroke"
         id="circle1723"
         cx="119.13786"
         cy="-145.76474"
         r="69.573593"
         clip-path="url(#clipPath5877)" /><ellipse
         style="fill:#fd5239;fill-opacity:1;stroke-width:10;stroke-dashoffset:6.23623;paint-order:fill markers stroke"
         id="ellipse1725"
         cx="88.086975"
         cy="-170.30119"
         rx="13.060465"
         ry="15.858006"
         transform="rotate(5.3796317)" /><ellipse
         style="fill:#fd5239;fill-opacity:1;stroke-width:10;stroke-dashoffset:6.23623;paint-order:fill markers stroke"
         id="ellipse1727"
         cx="149.8987"
         cy="-146.77872"
         rx="13.060463"
         ry="15.858004"
         transform="rotate(-5.8499523)" /><ellipse
         style="fill:#fd5239;fill-opacity:1;stroke-width:9.99991;stroke-dashoffset:6.23623;paint-order:fill markers stroke"
         id="ellipse1729"
         cx="94.423004"
         cy="-181.88031"
         rx="11.443455"
         ry="13.894632"
         transform="rotate(20.846205)" /><ellipse
         style="fill:#fd5239;fill-opacity:1;stroke-width:9.99991;stroke-dashoffset:6.23623;paint-order:fill markers stroke"
         id="ellipse1731"
         cx="-127.40392"
         cy="-97.411438"
         rx="11.443455"
         ry="13.894631"
         transform="matrix(-0.934539,0.35586073,0.35586073,0.934539,0,0)" /><path
         id="path1733"
         style="fill:#fd5239;fill-opacity:1;stroke-width:10;stroke-dashoffset:6.23623;paint-order:fill markers stroke"
         d="m 118.29666,-132.95831 a 22.050177,22.050177 0 0 0 -21.340304,16.55817 12.837435,12.837435 0 0 0 -10.375594,12.59044 12.837435,12.837435 0 0 0 12.837459,12.837474 12.837435,12.837435 0 0 0 6.437329,-1.731678 22.050177,22.050177 0 0 0 12.44111,3.845761 22.050177,22.050177 0 0 0 12.4411,-3.845761 12.837435,12.837435 0 0 0 6.43733,1.731678 12.837435,12.837435 0 0 0 12.83746,-12.837474 12.837435,12.837435 0 0 0 -10.36319,-12.59613 22.050177,22.050177 0 0 0 -21.3527,-16.55248 z" /><ellipse
         style="fill:#fd6939;fill-opacity:1;stroke-width:10;stroke-dashoffset:6.23623;paint-order:fill markers stroke"
         id="ellipse1735"
         cx="118.29665"
         cy="-132.183"
         rx="59.124184"
         ry="36.540756"
         clip-path="url(#clipPath4985)"
         transform="translate(0,-2.1166667)" /><ellipse
         style="fill:#fd6939;fill-opacity:1;stroke-width:9.99991;stroke-dashoffset:6.23623;paint-order:fill markers stroke"
         id="ellipse1737"
         cx="-127.59188"
         cy="-103.65528"
         rx="12.426717"
         ry="15.088508"
         transform="matrix(-0.934539,0.35586073,0.35586073,0.934539,0,0)"
         clip-path="url(#clipPath4993)" /><ellipse
         style="fill:#fd6939;fill-opacity:1;stroke-width:9.99991;stroke-dashoffset:6.23623;paint-order:fill markers stroke"
         id="ellipse1739"
         cx="-127.59188"
         cy="-103.65528"
         rx="12.426717"
         ry="15.088508"
         transform="rotate(20.846206,118.68253,645.18495)"
         clip-path="url(#clipPath4993)" /><ellipse
         style="fill:#fd6939;fill-opacity:1;stroke-width:10.002;stroke-dashoffset:6.23623;paint-order:fill markers stroke"
         id="ellipse1741"
         cx="84.379692"
         cy="-179.54388"
         rx="16.250643"
         ry="16.999649"
         transform="matrix(0.99674262,0.08064834,-0.10894625,0.99404764,0,0)"
         clip-path="url(#clipPath5124)" /><ellipse
         style="fill:#fd6939;fill-opacity:1;stroke-width:10.002;stroke-dashoffset:6.23623;paint-order:fill markers stroke"
         id="ellipse1743"
         cx="84.379692"
         cy="-179.54388"
         rx="16.250643"
         ry="16.999649"
         transform="matrix(-0.99674262,0.08064834,0.10894625,0.99404764,237.81837,0)"
         clip-path="url(#clipPath5124)" /></g></g></svg>
