<?xml version="1.0" encoding="UTF-8" standalone="no"?>
<!-- Created with Inkscape (http://www.inkscape.org/) -->

<svg
   width="132.29175mm"
   height="132.29175mm"
   viewBox="0 0 132.29175 132.29175"
   version="1.1"
   id="svg5"
   xml:space="preserve"
   inkscape:version="1.2 (dc2aedaf03, 2022-05-15)"
   sodipodi:docname="drawing.svg.2025_01_17_15_17_03.0.svg"
   xmlns:inkscape="http://www.inkscape.org/namespaces/inkscape"
   xmlns:sodipodi="http://sodipodi.sourceforge.net/DTD/sodipodi-0.dtd"
   xmlns="http://www.w3.org/2000/svg"
   xmlns:svg="http://www.w3.org/2000/svg"><sodipodi:namedview
     id="namedview7"
     pagecolor="#ffffff"
     bordercolor="#ffffff"
     borderopacity="1"
     inkscape:showpageshadow="0"
     inkscape:pageopacity="0"
     inkscape:pagecheckerboard="0"
     inkscape:deskcolor="#ffffff"
     inkscape:document-units="mm"
     showgrid="true"
     showborder="false"
     showguides="true"
     inkscape:zoom="0.1767767"
     inkscape:cx="-3753.3227"
     inkscape:cy="6491.2401"
     inkscape:window-width="1920"
     inkscape:window-height="1051"
     inkscape:window-x="-9"
     inkscape:window-y="-9"
     inkscape:window-maximized="1"
     inkscape:current-layer="layer1"><inkscape:grid
       type="xygrid"
       id="grid182"
       spacingx="2.6458333"
       spacingy="2.6458333"
       color="#89c7e5"
       opacity="0.16862745"
       empcolor="#89c7e5"
       empopacity="0.16862745"
       visible="true" /><sodipodi:guide
       position="2570.67,-2509.0219"
       orientation="-1,0"
       id="guide292"
       inkscape:locked="false"
       inkscape:label=""
       inkscape:color="rgb(237,51,59)" /><sodipodi:guide
       position="2623.8734,-2323.0961"
       orientation="-1,0"
       id="guide352"
       inkscape:locked="false"
       inkscape:label=""
       inkscape:color="rgb(0,134,229)" /><sodipodi:guide
       position="2755.7461,-2319.9355"
       orientation="-1,0"
       id="guide354"
       inkscape:locked="false"
       inkscape:label=""
       inkscape:color="rgb(0,134,229)" /><sodipodi:guide
       position="2757.1186,-2381.8479"
       orientation="0,-1"
       id="guide360"
       inkscape:locked="false" /><sodipodi:guide
       position="2636.8159,-2254.848"
       orientation="1,0"
       id="guide388"
       inkscape:locked="false" /><sodipodi:guide
       position="2686.0284,-2262.5209"
       orientation="0,-1"
       id="guide390"
       inkscape:locked="false" /><sodipodi:guide
       position="2742.6492,-2252.3344"
       orientation="1,0"
       id="guide392"
       inkscape:locked="false" /><sodipodi:guide
       position="2645.8797,-2369.2836"
       orientation="0,-1"
       id="guide394"
       inkscape:locked="false" /><sodipodi:guide
       position="2720.4242,-2249.5563"
       orientation="0,-1"
       id="guide5821"
       inkscape:locked="false" /></sodipodi:namedview><defs
     id="defs2"><clipPath
       clipPathUnits="userSpaceOnUse"
       id="clipPath4312-41"><path
         id="path4314-8"
         style="fill:#fd6939;fill-opacity:1;stroke-width:0.686906;stroke-linecap:round;stroke-linejoin:round;stroke-dashoffset:6.23623;paint-order:fill markers stroke"
         d="m 100.26972,-139.23308 a 11.626523,11.626523 0 0 0 0,16.44231 11.626523,11.626523 0 0 0 0.29209,0.27097 c 0.036,0.0486 0.0747,0.0959 0.11887,0.14001 l 15.74491,15.74492 0.0183,0.0182 c 0.22281,0.22279 0.51332,0.33484 0.80711,0.33884 0.008,2.1e-4 0.0158,5.3e-4 0.0237,5.3e-4 0.008,-4e-5 0.0158,-5.3e-4 0.0237,-5.3e-4 0.29378,-0.004 0.5843,-0.11605 0.80709,-0.33884 l 14.78084,-14.78082 0.98233,-0.98232 c 0.0442,-0.0442 0.0829,-0.0914 0.11885,-0.14002 a 11.626523,11.626523 0 0 0 0.29212,-0.27096 11.626523,11.626523 0 0 0 0,-16.44232 11.626523,11.626523 0 0 0 -16.44243,-9e-5 11.626523,11.626523 0 0 0 -0.27115,0.29229 c -0.0485,0.0359 -0.0957,0.0746 -0.13983,0.11866 l -0.15151,0.15154 -0.15154,-0.15154 c -0.0439,-0.0439 -0.0911,-0.0825 -0.13953,-0.11838 a 11.626523,11.626523 0 0 0 -0.27142,-0.29257 11.626523,11.626523 0 0 0 -16.44243,9e-5 z" /></clipPath><clipPath
       clipPathUnits="userSpaceOnUse"
       id="clipPath4148"><path
         id="path4150"
         style="fill:#1eb8b0;fill-opacity:1;stroke-width:9.9999;stroke-dashoffset:6.23623;paint-order:fill markers stroke"
         d="m 102.01806,-184.88587 c -3.955526,0 -7.14013,3.1846 -7.14013,7.14013 v 35.1932 H 59.684729 c -3.955528,0 -7.140133,3.1846 -7.140133,7.14013 v 33.34474 c 0,3.955529 3.184605,7.140131 7.140133,7.140131 H 94.87793 v 35.1932 c 0,3.955529 3.184604,7.140133 7.14013,7.140133 h 33.34474 c 3.95553,0 7.14013,-3.184604 7.14013,-7.140133 v -35.1932 h 35.1932 c 3.95553,0 7.14013,-3.184602 7.14013,-7.140131 v -33.34474 c 0,-3.95553 -3.1846,-7.14013 -7.14013,-7.14013 h -35.1932 v -35.1932 c 0,-3.95553 -3.1846,-7.14013 -7.14013,-7.14013 z" /></clipPath></defs><g
     inkscape:label="Layer 1"
     inkscape:groupmode="layer"
     id="layer1"
     transform="translate(2570.67,2567.0563)"><rect
       style="fill:none;fill-opacity:1;stroke:#000000;stroke-width:1.56123;stroke-linecap:round;stroke-linejoin:round;stroke-dashoffset:6.23623;paint-order:fill markers stroke"
       id="rect3543"
       width="725.88928"
       height="557.75635"
       x="-2618.323"
       y="-2935.8779" /><path
       id="path1579"
       style="fill:#f2f2f2;stroke-width:29.1967;stroke-linecap:round;stroke-linejoin:round;stroke-dashoffset:6.23623;paint-order:stroke fill markers"
       d="m -2438.3783,-2500.9104 a 66.145836,66.145836 0 0 1 -66.1458,66.1458 66.145836,66.145836 0 0 1 -66.1459,-66.1458 66.145836,66.145836 0 0 1 66.1459,-66.1459 66.145836,66.145836 0 0 1 66.1458,66.1459 z"
       inkscape:export-filename="Kesehatan.png"
       inkscape:export-xdpi="96"
       inkscape:export-ydpi="96" /><g
       id="g1835"
       transform="matrix(0.58181691,0,0,0.58181691,-2575.2518,-2426.0442)"><path
         id="path1827"
         style="fill:#fd5239;fill-opacity:1;stroke-width:0.686909;stroke-linecap:round;stroke-linejoin:round;stroke-dashoffset:6.23623;paint-order:fill markers stroke"
         d="m 90.455461,-183.56244 a 37.120135,37.120135 0 0 0 -26.248011,10.87272 37.120135,37.120135 0 0 0 -7.149951,42.34781 h 23.139673 l 5.019849,-16.06259 a 2.50025,2.50025 0 0 1 4.851383,0.3359 l 3.425631,20.55481 8.368995,-38.49222 a 2.50025,2.50025 0 0 1 2.58227,-1.96267 2.50025,2.50025 0 0 1 2.34766,2.24224 l 5.23431,51.47644 4.32842,-17.31057 a 2.50025,2.50025 0 0 1 2.42569,-1.89446 h 61.71768 a 37.120135,37.120135 0 0 0 -7.70806,-41.23469 37.120135,37.120135 0 0 0 -52.4955,-5.1e-4 37.120135,37.120135 0 0 0 -0.8661,0.93327 c -0.15488,0.11468 -0.30557,0.23817 -0.44648,0.37879 l -0.48369,0.48369 -0.48369,-0.48369 c -0.14015,-0.14017 -0.29083,-0.26323 -0.44546,-0.37775 a 37.120135,37.120135 0 0 0 -0.86661,-0.93431 37.120135,37.120135 0 0 0 -26.248009,-10.87221 z m 12.952699,35.98023 -7.794875,35.86138 a 2.50025,2.50025 0 0 1 -4.910294,-0.11886 l -3.843693,-23.06267 -2.439128,7.80676 a 2.50025,2.50025 0 0 1 -2.384867,1.7539 H 59.945178 a 37.120135,37.120135 0 0 0 4.262272,5.14749 37.120135,37.120135 0 0 0 0.93276,0.86506 c 0.114687,0.15511 0.238293,0.30618 0.379305,0.447 l 50.269285,50.268767 0.0584,0.05839 c 0.71139,0.711309 1.63862,1.068828 2.57659,1.081588 0.0248,6.66e-4 0.0505,0.0021 0.0755,0.0021 0.025,-1.26e-4 0.0509,-0.002 0.076,-0.0021 0.93795,-0.0122 1.86529,-0.370279 2.57659,-1.081588 l 47.19092,-47.190917 3.13624,-3.13624 c 0.14121,-0.14127 0.26518,-0.29179 0.37982,-0.447 a 37.120135,37.120135 0 0 0 0.93224,-0.86506 37.120135,37.120135 0 0 0 5.02657,-6.26112 h -57.08334 l -7.32203,29.287614 a 2.50025,2.50025 0 0 1 -4.91236,-0.353984 z" /><path
         id="path1829"
         clip-path="url(#clipPath4312-41)"
         style="fill:#fd6939;stroke-width:4.69823;stroke-linecap:round;stroke-dashoffset:6.23623;paint-order:stroke fill markers"
         d="m 125.3699,-166.62579 c -10.82951,0 -19.54785,8.71834 -19.54785,19.54785 v 9.4303 c 0,2.27784 0.38697,4.46175 1.09691,6.4913 a 0.78311178,0.78311178 0 0 1 1.45073,0.2614 l 0.67025,4.02135 c 0.22624,0.3431 0.46255,0.67886 0.70942,1.00627 l 2.31456,-10.64586 a 0.78311178,0.78311178 0 0 1 0.8088,-0.61473 0.78311178,0.78311178 0 0 1 0.73532,0.7023 l 1.57423,15.48102 c 0.0651,0.0397 0.13093,0.0781 0.19649,0.11702 l 1.22446,-4.89683 a 0.78311178,0.78311178 0 0 1 0.75976,-0.59337 h 20.83656 a 0.78303348,0.78303348 0 0 1 0.78307,0.78306 0.78303348,0.78303348 0 0 1 -0.78307,0.78291 h -20.22491 l -1.17281,4.69111 c 2.58467,1.25624 5.49093,1.96091 8.56808,1.96091 h 9.43031 c 10.82951,0 19.54801,-8.71835 19.54801,-19.54786 v -9.4303 c 0,-10.82951 -8.7185,-19.54785 -19.54801,-19.54785 z m -12.82202,35.25677 -1.52616,7.02138 c 0.7568,0.81645 1.58258,1.5676 2.46865,2.24464 z"
         transform="matrix(3.1927115,0,0,3.1927115,-255.92474,271.84118)" /><path
         id="path1831"
         style="fill:#1eb8b0;fill-opacity:1;stroke-width:9.99989;stroke-dashoffset:6.23623;paint-order:fill markers stroke"
         d="m 145.52093,-113.90773 c -1.85219,0 -3.3434,1.49121 -3.3434,3.34341 v 16.47942 h -16.47942 c -1.8522,0 -3.34341,1.491207 -3.34341,3.343407 v 15.613865 c 0,1.852199 1.49121,3.343406 3.34341,3.343406 h 16.47942 v 16.479418 c 0,1.8522 1.49121,3.343407 3.3434,3.343407 h 15.61388 c 1.8522,0 3.34341,-1.491207 3.34341,-3.343407 v -16.479418 h 16.47941 c 1.8522,0 3.34341,-1.491207 3.34341,-3.343406 v -15.613865 c 0,-1.8522 -1.49121,-3.343407 -3.34341,-3.343407 h -16.47941 v -16.47942 c 0,-1.8522 -1.49121,-3.34341 -3.34341,-3.34341 z" /><circle
         style="fill:#1accbe;fill-opacity:1;stroke-width:21.3559;stroke-dashoffset:6.23623;paint-order:fill markers stroke"
         id="circle1833"
         cx="206.12106"
         cy="-181.99422"
         r="118.23567"
         clip-path="url(#clipPath4148)"
         transform="matrix(0.46825572,0,0,0.46825572,97.750403,-27.333858)" /></g></g></svg>
