<?xml version="1.0" encoding="UTF-8" standalone="no"?>
<!-- Created with Inkscape (http://www.inkscape.org/) -->

<svg
   width="132.29175mm"
   height="132.29175mm"
   viewBox="0 0 132.29175 132.29175"
   version="1.1"
   id="svg5"
   xml:space="preserve"
   inkscape:version="1.2 (dc2aedaf03, 2022-05-15)"
   sodipodi:docname="drawing.svg.2025_01_17_15_17_03.0.svg"
   xmlns:inkscape="http://www.inkscape.org/namespaces/inkscape"
   xmlns:sodipodi="http://sodipodi.sourceforge.net/DTD/sodipodi-0.dtd"
   xmlns="http://www.w3.org/2000/svg"
   xmlns:svg="http://www.w3.org/2000/svg"><sodipodi:namedview
     id="namedview7"
     pagecolor="#ffffff"
     bordercolor="#ffffff"
     borderopacity="1"
     inkscape:showpageshadow="0"
     inkscape:pageopacity="0"
     inkscape:pagecheckerboard="0"
     inkscape:deskcolor="#ffffff"
     inkscape:document-units="mm"
     showgrid="true"
     showborder="false"
     showguides="true"
     inkscape:zoom="0.1767767"
     inkscape:cx="-3753.3227"
     inkscape:cy="6491.2401"
     inkscape:window-width="1920"
     inkscape:window-height="1051"
     inkscape:window-x="-9"
     inkscape:window-y="-9"
     inkscape:window-maximized="1"
     inkscape:current-layer="layer1"><inkscape:grid
       type="xygrid"
       id="grid182"
       spacingx="2.6458333"
       spacingy="2.6458333"
       color="#89c7e5"
       opacity="0.16862745"
       empcolor="#89c7e5"
       empopacity="0.16862745"
       visible="true" /><sodipodi:guide
       position="2570.67,-2666.1181"
       orientation="-1,0"
       id="guide292"
       inkscape:locked="false"
       inkscape:label=""
       inkscape:color="rgb(237,51,59)" /><sodipodi:guide
       position="2623.8734,-2480.1923"
       orientation="-1,0"
       id="guide352"
       inkscape:locked="false"
       inkscape:label=""
       inkscape:color="rgb(0,134,229)" /><sodipodi:guide
       position="2755.7461,-2477.0316"
       orientation="-1,0"
       id="guide354"
       inkscape:locked="false"
       inkscape:label=""
       inkscape:color="rgb(0,134,229)" /><sodipodi:guide
       position="2757.1186,-2538.9441"
       orientation="0,-1"
       id="guide360"
       inkscape:locked="false" /><sodipodi:guide
       position="2636.8159,-2411.9441"
       orientation="1,0"
       id="guide388"
       inkscape:locked="false" /><sodipodi:guide
       position="2686.0284,-2419.6171"
       orientation="0,-1"
       id="guide390"
       inkscape:locked="false" /><sodipodi:guide
       position="2742.6492,-2409.4306"
       orientation="1,0"
       id="guide392"
       inkscape:locked="false" /><sodipodi:guide
       position="2645.8797,-2526.3798"
       orientation="0,-1"
       id="guide394"
       inkscape:locked="false" /><sodipodi:guide
       position="2720.4242,-2406.6525"
       orientation="0,-1"
       id="guide5821"
       inkscape:locked="false" /></sodipodi:namedview><defs
     id="defs2"><clipPath
       clipPathUnits="userSpaceOnUse"
       id="clipPath1671"><path
         id="path1673"
         style="fill:#1eb8b0;stroke-width:2.54613;stroke-linecap:round;stroke-linejoin:round;stroke-dashoffset:6.23623;paint-order:fill markers stroke"
         d="m 79.876965,46.134532 c 0.82573,-5.278631 7.213126,-9.310835 12.874317,-11.335008 3.538728,-1.265281 8.121108,-6.687549 8.121108,-6.687549 V 60.358068 H 85.225816 c 0,0 -6.98224,-3.781793 -5.348851,-14.223536 z m 41.990845,0 c -0.82572,-5.278631 -7.21312,-9.310835 -12.87431,-11.335008 -3.53873,-1.265281 -8.12111,-6.687549 -8.12111,-6.687549 v 32.246093 h 15.64657 c 0,0 6.98224,-3.781793 5.34885,-14.223536 z"
         class="UnoptimicedTransforms"
         sodipodi:nodetypes="sscccs"
         transform="matrix(1.9208283,0,0,1.6262197,-74.375394,-219.98757)" /></clipPath><clipPath
       clipPathUnits="userSpaceOnUse"
       id="clipPath2915"><path
         id="path2917"
         style="fill:#fd5239;fill-opacity:1;stroke-width:6.24782;stroke-linecap:round;stroke-linejoin:round;stroke-dashoffset:6.23623;paint-order:stroke fill markers"
         d="m 206.38218,12.161217 c 0,0 -0.72887,-6.5236906 5.59652,-13.09333058 6.06796,-6.30226622 16.45148,-7.85962032 22.16019,-12.70585642 5.52359,-4.689085 6.73777,-6.240201 6.73777,-6.240201 v 91.205726 h -34.49448 z m 68.98896,0 c 0,0 0.72887,-6.5236906 -5.59652,-13.09333058 -6.06796,-6.30226622 -16.45148,-7.85962032 -22.16019,-12.70585642 -5.52359,-4.689085 -6.73777,-6.240201 -6.73777,-6.240201 v 91.205726 h 34.49448 z"
         class="UnoptimicedTransforms"
         sodipodi:nodetypes="csscccc"
         transform="matrix(0.48016612,0,0,0.48016612,2.8013681,-87.025718)" /></clipPath><clipPath
       clipPathUnits="userSpaceOnUse"
       id="clipPath3182"><path
         id="path3184"
         style="fill:#fd5239;fill-opacity:1;stroke-width:12.6296;stroke-linecap:round;stroke-linejoin:round;stroke-dashoffset:6.23623;paint-order:stroke fill markers"
         d="m 206.38218,12.161217 c 0,0 -0.72887,-6.5236906 5.59652,-13.09333058 6.06796,-6.30226622 16.45148,-7.85962032 22.16019,-12.70585642 5.52359,-4.689085 6.73777,-6.240201 6.73777,-6.240201 V 105.23437 l -34.49448,-0.2923 z m 68.98896,0 c 0,0 0.72887,-6.5236906 -5.59652,-13.09333058 -6.06796,-6.30226622 -16.45148,-7.85962032 -22.16019,-12.70585642 -5.52359,-4.689085 -6.73777,-6.240201 -6.73777,-6.240201 V 104.94207 h 34.49448 z"
         class="UnoptimicedTransforms"
         sodipodi:nodetypes="csscccccsscccc"
         transform="matrix(0.22567652,0,0,0.25002217,103.15282,-79.08757)" /></clipPath></defs><g
     inkscape:label="Layer 1"
     inkscape:groupmode="layer"
     id="layer1"
     transform="translate(2570.67,2724.1525)"><rect
       style="fill:none;fill-opacity:1;stroke:#000000;stroke-width:1.56123;stroke-linecap:round;stroke-linejoin:round;stroke-dashoffset:6.23623;paint-order:fill markers stroke"
       id="rect3543"
       width="725.88928"
       height="557.75635"
       x="-2618.323"
       y="-2935.8779" /><path
       id="path1571"
       style="fill:#f2f2f2;stroke-width:29.1967;stroke-linecap:round;stroke-linejoin:round;stroke-dashoffset:6.23623;paint-order:stroke fill markers"
       d="m -2438.3783,-2658.0067 a 66.145836,66.145836 0 0 1 -66.1458,66.1458 66.145836,66.145836 0 0 1 -66.1459,-66.1458 66.145836,66.145836 0 0 1 66.1459,-66.1459 66.145836,66.145836 0 0 1 66.1458,66.1459 z"
       inkscape:export-filename="Masjid dan Pondok.png"
       inkscape:export-xdpi="96"
       inkscape:export-ydpi="96" /><g
       id="g1775"
       transform="matrix(0.67745545,0,0,0.67745545,-2584.8826,-2582.4352)"><path
         id="path1747"
         style="fill:#1eb8b0;fill-opacity:1;stroke-width:4.50001;stroke-linecap:round;stroke-linejoin:round;stroke-dashoffset:6.23623;paint-order:fill markers stroke"
         d="m 64.29951,-110.89304 h 31.442231 v 57.705234 H 64.29951 Z" /><path
         id="path1749"
         style="fill:#1eb8b0;fill-opacity:1;stroke-width:4.50001;stroke-linecap:round;stroke-linejoin:round;stroke-dashoffset:6.23623;paint-order:fill markers stroke"
         d="m 144.04408,-110.89304 h 29.33258 v 57.705234 h -29.33258 z" /><path
         id="path1751"
         style="fill:#1accbe;fill-opacity:1;stroke-width:4.50001;stroke-linecap:round;stroke-linejoin:round;stroke-dashoffset:6.23623;paint-order:fill markers stroke"
         d="m 93.412613,-110.89304 h 50.850937 v 57.705234 H 93.412613 Z" /><path
         id="path1753"
         style="fill:#fd5239;fill-opacity:1;stroke-width:6.87432;stroke-linecap:round;stroke-linejoin:round;stroke-dashoffset:6.23623;paint-order:stroke fill markers"
         d="m 206.38218,12.161217 c 0,0 -0.72887,-6.5236906 5.59652,-13.09333058 6.06796,-6.30226622 16.45148,-7.85962032 22.16019,-12.70585642 5.52359,-4.689085 6.73777,-6.240201 6.73777,-6.240201 v 91.205726 h -34.49448 z m 68.98896,0 c 0,0 0.72887,-6.5236906 -5.59652,-13.09333058 -6.06796,-6.30226622 -16.45148,-7.85962032 -22.16019,-12.70585642 -5.52359,-4.689085 -6.73777,-6.240201 -6.73777,-6.240201 v 91.205726 h 34.49448 z"
         class="UnoptimicedTransforms"
         sodipodi:nodetypes="csscccc"
         transform="matrix(0.43640664,0,0,0.43640664,13.717906,-84.315625)" /><rect
         style="fill:#fd6939;fill-opacity:1;stroke-width:11.0027;stroke-dashoffset:6.23623;paint-order:fill markers stroke"
         id="rect1755"
         width="41.217972"
         height="50.076618"
         x="107.82434"
         y="-102.52212"
         rx="15.714455"
         ry="13.151103"
         clip-path="url(#clipPath2915)"
         transform="matrix(0.90886598,0,0,0.90886598,11.171845,-5.2209109)" /><g
         id="g1761"
         transform="translate(2.992573)"><path
           id="path1757"
           style="fill:#1eb8b0;stroke-width:2.29287;stroke-linecap:round;stroke-linejoin:round;stroke-dashoffset:6.23623;paint-order:fill markers stroke"
           d="m 79.876965,46.134532 c 0.82573,-5.278631 7.213126,-9.310835 12.874317,-11.335008 3.538728,-1.265281 8.121108,-6.687549 8.121108,-6.687549 V 60.358068 H 85.225816 c 0,0 -6.98224,-3.781793 -5.348851,-14.223536 z m 41.990845,0 c -0.82572,-5.278631 -7.21312,-9.310835 -12.87431,-11.335008 -3.53873,-1.265281 -8.12111,-6.687549 -8.12111,-6.687549 v 32.246093 h 15.64657 c 0,0 6.98224,-3.781793 5.34885,-14.223536 z"
           class="UnoptimicedTransforms"
           sodipodi:nodetypes="sscccs"
           transform="matrix(2.1330038,0,0,1.8058525,-99.535713,-216.14241)" /><circle
           style="fill:#1accbe;fill-opacity:1;stroke-width:9.00527;stroke-dashoffset:6.23623;paint-order:fill markers stroke"
           id="circle1759"
           cx="163.62785"
           cy="-94.58725"
           r="66.972656"
           clip-path="url(#clipPath1671)"
           transform="matrix(1.1104605,0,0,1.1104605,-16.94478,28.145055)" /></g><rect
         style="fill:#fe9e2e;stroke-width:10;stroke-dashoffset:6.23623;paint-order:fill markers stroke"
         id="rect1763"
         width="131.24802"
         height="13.944722"
         x="52.994045"
         y="-114.90547"
         rx="3.0088739"
         ry="3.0088739" /><path
         id="path1765"
         style="fill:#fd5239;fill-opacity:1;stroke-width:12.3747;stroke-linecap:round;stroke-linejoin:round;stroke-dashoffset:6.23623;paint-order:stroke fill markers"
         d="m 206.38218,12.161217 c 0,0 -0.72887,-6.5236906 5.59652,-13.09333058 6.06796,-6.30226622 16.45148,-7.85962032 22.16019,-12.70585642 5.52359,-4.689085 6.73777,-6.240201 6.73777,-6.240201 V 105.23437 l -34.49448,-0.2923 z m 68.98896,0 c 0,0 0.72887,-6.5236906 -5.59652,-13.09333058 -6.06796,-6.30226622 -16.45148,-7.85962032 -22.16019,-12.70585642 -5.52359,-4.689085 -6.73777,-6.240201 -6.73777,-6.240201 V 104.94207 h 34.49448 z"
         class="UnoptimicedTransforms"
         sodipodi:nodetypes="csscccccsscccc"
         transform="matrix(0.23032615,0,0,0.2551734,23.257751,-80.040819)" /><path
         id="path1767"
         style="fill:#fd5239;fill-opacity:1;stroke-width:12.3747;stroke-linecap:round;stroke-linejoin:round;stroke-dashoffset:6.23623;paint-order:stroke fill markers"
         d="m 206.38218,12.161217 c 0,0 -0.72887,-6.5236906 5.59652,-13.09333058 6.06796,-6.30226622 16.45148,-7.85962032 22.16019,-12.70585642 5.52359,-4.689085 6.73777,-6.240201 6.73777,-6.240201 V 105.23437 l -34.49448,-0.2923 z m 68.98896,0 c 0,0 0.72887,-6.5236906 -5.59652,-13.09333058 -6.06796,-6.30226622 -16.45148,-7.85962032 -22.16019,-12.70585642 -5.52359,-4.689085 -6.73777,-6.240201 -6.73777,-6.240201 V 104.94207 h 34.49448 z"
         class="UnoptimicedTransforms"
         sodipodi:nodetypes="csscccccsscccc"
         transform="matrix(0.23032615,0,0,0.2551734,103.21329,-80.040819)" /><path
         id="path1769"
         style="color:#000000;fill:#fe9e2e;stroke-width:4.50003;stroke-linecap:round;stroke-linejoin:round;stroke-dashoffset:6.23623;paint-order:fill markers stroke"
         d="m 116.52686,-185.47815 a 0.28067152,0.28067152 0 0 0 -0.11739,0.0135 c -3.10137,1.02733 -5.53047,3.46779 -6.54347,6.57387 a 0.28067152,0.28067152 0 0 0 -6e-5,1.7e-4 c -1.75531,5.39826 1.2017,11.20495 6.59995,12.9603 a 0.28067152,0.28067152 0 0 0 1.6e-4,4e-5 c 4.15322,1.34693 8.7068,-0.0765 11.35306,-3.54951 a 0.28067152,0.28067152 0 0 0 -0.31181,-0.43622 c -1.96779,0.65506 -4.09342,0.66369 -6.06649,0.0246 -5.10963,-1.66149 -7.90109,-7.1428 -6.23987,-12.25249 l 5e-5,-1.7e-4 4e-5,-1.5e-4 c 0.33997,-1.04003 0.85427,-2.01466 1.51938,-2.88352 a 0.28067152,0.28067152 0 0 0 -0.0814,-0.41299 0.28067152,0.28067152 0 0 0 -0.1121,-0.0367 z" /><rect
         style="fill:#fd6939;fill-opacity:1;stroke-width:9.79813;stroke-dashoffset:6.23623;paint-order:fill markers stroke"
         id="rect1771"
         width="18.124214"
         height="34.202148"
         x="154.60501"
         y="-86.764595"
         rx="7.1399517"
         ry="7.1399517"
         clip-path="url(#clipPath3182)"
         transform="matrix(1.0206031,0,0,1.0206031,-2.0647772,0.67619803)" /><rect
         style="fill:#fd6939;fill-opacity:1;stroke-width:9.79813;stroke-dashoffset:6.23623;paint-order:fill markers stroke"
         id="rect1773"
         width="18.124214"
         height="34.202148"
         x="154.60501"
         y="-86.764595"
         rx="7.1399517"
         ry="7.1399517"
         clip-path="url(#clipPath3182)"
         transform="matrix(1.0206031,0,0,1.0206031,-82.020334,0.67619803)" /></g></g></svg>
