<?xml version="1.0" encoding="UTF-8" standalone="no"?>
<!-- Created with Inkscape (http://www.inkscape.org/) -->

<svg
   width="132.2915mm"
   height="132.29175mm"
   viewBox="0 0 132.2915 132.29175"
   version="1.1"
   id="svg5"
   xml:space="preserve"
   inkscape:version="1.2 (dc2aedaf03, 2022-05-15)"
   sodipodi:docname="drawing.svg.2025_01_17_15_17_03.0.svg"
   xmlns:inkscape="http://www.inkscape.org/namespaces/inkscape"
   xmlns:sodipodi="http://sodipodi.sourceforge.net/DTD/sodipodi-0.dtd"
   xmlns="http://www.w3.org/2000/svg"
   xmlns:svg="http://www.w3.org/2000/svg"><sodipodi:namedview
     id="namedview7"
     pagecolor="#ffffff"
     bordercolor="#ffffff"
     borderopacity="1"
     inkscape:showpageshadow="0"
     inkscape:pageopacity="0"
     inkscape:pagecheckerboard="0"
     inkscape:deskcolor="#ffffff"
     inkscape:document-units="mm"
     showgrid="true"
     showborder="false"
     showguides="true"
     inkscape:zoom="0.1767767"
     inkscape:cx="-3753.3227"
     inkscape:cy="6491.2401"
     inkscape:window-width="1920"
     inkscape:window-height="1051"
     inkscape:window-x="-9"
     inkscape:window-y="-9"
     inkscape:window-maximized="1"
     inkscape:current-layer="layer1"><inkscape:grid
       type="xygrid"
       id="grid182"
       spacingx="2.6458333"
       spacingy="2.6458333"
       color="#89c7e5"
       opacity="0.16862745"
       empcolor="#89c7e5"
       empopacity="0.16862745"
       visible="true" /><sodipodi:guide
       position="2405.6504,-2834.4092"
       orientation="-1,0"
       id="guide292"
       inkscape:locked="false"
       inkscape:label=""
       inkscape:color="rgb(237,51,59)" /><sodipodi:guide
       position="2458.8538,-2648.4834"
       orientation="-1,0"
       id="guide352"
       inkscape:locked="false"
       inkscape:label=""
       inkscape:color="rgb(0,134,229)" /><sodipodi:guide
       position="2590.7265,-2645.3228"
       orientation="-1,0"
       id="guide354"
       inkscape:locked="false"
       inkscape:label=""
       inkscape:color="rgb(0,134,229)" /><sodipodi:guide
       position="2592.099,-2707.2353"
       orientation="0,-1"
       id="guide360"
       inkscape:locked="false" /><sodipodi:guide
       position="2471.7963,-2580.2353"
       orientation="1,0"
       id="guide388"
       inkscape:locked="false" /><sodipodi:guide
       position="2521.0088,-2587.9082"
       orientation="0,-1"
       id="guide390"
       inkscape:locked="false" /><sodipodi:guide
       position="2577.6296,-2577.7218"
       orientation="1,0"
       id="guide392"
       inkscape:locked="false" /><sodipodi:guide
       position="2480.8601,-2694.671"
       orientation="0,-1"
       id="guide394"
       inkscape:locked="false" /><sodipodi:guide
       position="2555.4046,-2574.9437"
       orientation="0,-1"
       id="guide5821"
       inkscape:locked="false" /></sodipodi:namedview><defs
     id="defs2"><clipPath
       clipPathUnits="userSpaceOnUse"
       id="clipPath10206"><rect
         style="fill:#fe9e2e;stroke-width:9.99998;stroke-dashoffset:6.23623;paint-order:fill markers stroke"
         id="rect10208"
         width="131.11879"
         height="12.203006"
         x="53.110687"
         y="-65.473137"
         rx="4.0423169"
         ry="4.0423169" /></clipPath></defs><g
     inkscape:label="Layer 1"
     inkscape:groupmode="layer"
     id="layer1"
     transform="translate(2405.6504,2892.4438)"><rect
       style="fill:none;fill-opacity:1;stroke:#000000;stroke-width:1.56123;stroke-linecap:round;stroke-linejoin:round;stroke-dashoffset:6.23623;paint-order:fill markers stroke"
       id="rect3543"
       width="725.88928"
       height="557.75635"
       x="-2618.323"
       y="-2935.8779" /><path
       id="path1565"
       style="fill:#f2f2f2;stroke-width:29.1967;stroke-linecap:round;stroke-linejoin:round;stroke-dashoffset:6.23623;paint-order:stroke fill markers"
       d="m -2273.3588,-2826.298 a 66.145836,66.145836 0 0 1 -66.1458,66.1458 66.145836,66.145836 0 0 1 -66.1458,-66.1458 66.145836,66.145836 0 0 1 66.1458,-66.1458 66.145836,66.145836 0 0 1 66.1458,66.1458 z"
       inkscape:export-filename="Sarana dan Infrastruktur.svg"
       inkscape:export-xdpi="96"
       inkscape:export-ydpi="96" /><g
       id="g1637"
       transform="matrix(0.61261075,0,0,0.61261075,-2412.4916,-2756.1079)"
       style="stroke-width:0.992197"><path
         id="path1625"
         style="fill:#fd5239;fill-opacity:1;stroke-width:9.92197;stroke-dashoffset:6.23623;paint-order:fill markers stroke"
         d="m 123.99863,-154.40453 c -1.69688,-0.0216 -3.13934,2.14914 -3.13934,4.02921 v 90.96706 c 0,2.148662 1.73017,3.878316 3.87883,3.878316 h 40.30917 c 2.14866,0 3.87832,-1.729654 3.87832,-3.878316 v -74.83109 c 0,-2.14866 -1.88354,-3.08033 -3.87832,-3.87883 l -40.30917,-16.13545 c -0.24934,-0.0998 -0.49707,-0.14781 -0.73949,-0.1509 z m 11.05618,27.33218 h 9.35446 v 9.06198 h -9.35446 z m 16.66254,0 h 9.35447 v 9.06198 h -9.35447 z m -16.66254,15.875 h 9.35446 v 9.06198 h -9.35446 z m 16.66254,0 h 9.35447 v 9.06198 h -9.35447 z" /><path
         id="path1627"
         style="fill:#1eb8b0;stroke-width:9.92197;stroke-dashoffset:6.23623;paint-order:fill markers stroke"
         d="m 124.36657,-184.47918 c -0.67734,0.0146 -1.35829,0.24126 -1.90583,0.46044 l -50.605178,20.25716 c -2.504311,1.00247 -4.86947,2.17197 -4.86947,4.86947 v 93.945687 c 0,2.697501 2.171969,4.868953 4.86947,4.868953 h 50.605178 c 2.6975,0 4.86947,-2.171452 4.86947,-4.868953 V -179.14927 c 0,-4.36671 -1.47349,-5.36212 -2.96364,-5.32991 z m -45.146083,39.48545 h 9.354468 v 9.06198 h -9.354468 z m 16.662549,0 h 9.354464 v 9.06198 h -9.354464 z m -16.662549,15.875 h 9.354468 v 9.06198 h -9.354468 z m 16.662549,0 h 9.354464 v 9.06198 h -9.354464 z m -16.662549,15.875 h 9.354468 v 9.06198 h -9.354468 z m 16.662549,0 h 9.354464 v 9.06198 h -9.354464 z m -16.662549,15.874996 h 9.354468 v 9.061979 h -9.354468 z" /><path
         id="path1629"
         clip-path="none"
         style="fill:#fd6939;fill-opacity:1;stroke-width:9.92197;stroke-dashoffset:6.23623;paint-order:fill markers stroke"
         d="m 123.99863,-154.40453 c -1.69688,-0.0216 -3.13934,2.14914 -3.13934,4.02921 v 24.22023 a 44.235027,44.235027 0 0 0 14.19552,16.43362 v -1.47588 h 9.35446 v 6.47816 a 44.235027,44.235027 0 0 0 7.30808,2.13579 v -8.61395 h 9.35447 v 9.06198 h -6.71897 a 44.235027,44.235027 0 0 0 6.0508,0.43615 44.235027,44.235027 0 0 0 8.52196,-0.85886 v -31.68127 c 0,-2.14866 -1.88354,-3.08034 -3.87832,-3.87883 l -40.30917,-16.13545 c -0.24934,-0.0998 -0.49707,-0.14781 -0.73949,-0.1509 z m 11.05618,27.33218 h 9.35446 v 9.06198 h -9.35446 z m 16.66254,0 h 9.35447 v 9.06198 h -9.35447 z" /><path
         id="path1631"
         style="fill:#fe9e2e;stroke-width:9.92197;stroke-dashoffset:6.23623;paint-order:fill markers stroke"
         d="M 57.153004,-65.473137 H 180.18716 c 2.23944,0 4.04232,1.802873 4.04232,4.042317 v 4.118372 c 0,2.239444 -1.80288,4.042317 -4.04232,4.042317 H 57.153004 c -2.239443,0 -4.042317,-1.802873 -4.042317,-4.042317 v -4.118372 c 0,-2.239444 1.802874,-4.042317 4.042317,-4.042317 z" /><path
         id="path1633"
         clip-path="none"
         style="fill:#1accbe;fill-opacity:1;stroke-width:9.92197;stroke-dashoffset:6.23623;paint-order:fill markers stroke"
         d="m 124.36657,-184.47918 c -0.67734,0.0146 -1.35829,0.24126 -1.90583,0.46044 l -50.605178,20.25716 c -2.504307,1.00247 -4.86947,2.17197 -4.86947,4.86947 v 20.06182 a 65.732422,65.732422 0 0 0 18.144112,25.58656 h 3.444751 v 2.79414 a 65.732422,65.732422 0 0 0 7.308081,4.79557 v -7.58971 h 9.354464 v 9.06198 h -6.603727 a 65.732422,65.732422 0 0 0 28.696437,6.999051 v -81.966571 c 0,-4.36671 -1.47349,-5.36212 -2.96364,-5.32991 z m -45.146083,39.48545 h 9.354468 v 9.06198 h -9.354468 z m 16.662549,0 h 9.354464 v 9.06198 h -9.354464 z m -16.662549,15.875 h 9.354468 v 9.06198 h -9.354468 z m 16.662549,0 h 9.354464 v 9.06198 h -9.354464 z" /><circle
         style="fill:#f6b548;fill-opacity:1;stroke-width:9.92197;stroke-dashoffset:6.23623;paint-order:fill markers stroke"
         id="circle1635"
         cx="78.343384"
         cy="42.094955"
         r="115.17646"
         clip-path="url(#clipPath10206)" /></g></g></svg>
