<?xml version="1.0" encoding="UTF-8" standalone="no"?>
<!-- Created with Inkscape (http://www.inkscape.org/) -->

<svg
   width="132.29175mm"
   height="132.29175mm"
   viewBox="0 0 132.29175 132.29175"
   version="1.1"
   id="svg5"
   xml:space="preserve"
   inkscape:version="1.2 (dc2aedaf03, 2022-05-15)"
   sodipodi:docname="drawing.svg.2025_01_17_15_17_03.0.svg"
   xmlns:inkscape="http://www.inkscape.org/namespaces/inkscape"
   xmlns:sodipodi="http://sodipodi.sourceforge.net/DTD/sodipodi-0.dtd"
   xmlns="http://www.w3.org/2000/svg"
   xmlns:svg="http://www.w3.org/2000/svg"><sodipodi:namedview
     id="namedview7"
     pagecolor="#ffffff"
     bordercolor="#ffffff"
     borderopacity="1"
     inkscape:showpageshadow="0"
     inkscape:pageopacity="0"
     inkscape:pagecheckerboard="0"
     inkscape:deskcolor="#ffffff"
     inkscape:document-units="mm"
     showgrid="true"
     showborder="false"
     showguides="true"
     inkscape:zoom="0.1767767"
     inkscape:cx="-3753.3227"
     inkscape:cy="6491.2401"
     inkscape:window-width="1920"
     inkscape:window-height="1051"
     inkscape:window-x="-9"
     inkscape:window-y="-9"
     inkscape:window-maximized="1"
     inkscape:current-layer="layer1"><inkscape:grid
       type="xygrid"
       id="grid182"
       spacingx="2.6458333"
       spacingy="2.6458333"
       color="#89c7e5"
       opacity="0.16862745"
       empcolor="#89c7e5"
       empopacity="0.16862745"
       visible="true" /><sodipodi:guide
       position="2570.67,-2834.4093"
       orientation="-1,0"
       id="guide292"
       inkscape:locked="false"
       inkscape:label=""
       inkscape:color="rgb(237,51,59)" /><sodipodi:guide
       position="2623.8734,-2648.4835"
       orientation="-1,0"
       id="guide352"
       inkscape:locked="false"
       inkscape:label=""
       inkscape:color="rgb(0,134,229)" /><sodipodi:guide
       position="2755.7461,-2645.3229"
       orientation="-1,0"
       id="guide354"
       inkscape:locked="false"
       inkscape:label=""
       inkscape:color="rgb(0,134,229)" /><sodipodi:guide
       position="2757.1186,-2707.2354"
       orientation="0,-1"
       id="guide360"
       inkscape:locked="false" /><sodipodi:guide
       position="2636.8159,-2580.2354"
       orientation="1,0"
       id="guide388"
       inkscape:locked="false" /><sodipodi:guide
       position="2686.0284,-2587.9083"
       orientation="0,-1"
       id="guide390"
       inkscape:locked="false" /><sodipodi:guide
       position="2742.6492,-2577.7219"
       orientation="1,0"
       id="guide392"
       inkscape:locked="false" /><sodipodi:guide
       position="2645.8797,-2694.671"
       orientation="0,-1"
       id="guide394"
       inkscape:locked="false" /><sodipodi:guide
       position="2720.4242,-2574.9437"
       orientation="0,-1"
       id="guide5821"
       inkscape:locked="false" /></sodipodi:namedview><defs
     id="defs2"><clipPath
       clipPathUnits="userSpaceOnUse"
       id="clipPath2050"><rect
         style="fill:#1eb8b0;fill-opacity:1;stroke-width:15;stroke-linecap:round;stroke-dashoffset:6.23623;paint-order:stroke fill markers"
         id="rect2052"
         width="19.3666"
         height="26.967077"
         x="65.627197"
         y="-91.790375"
         rx="4.0545936"
         ry="4.0545936" /></clipPath><clipPath
       clipPathUnits="userSpaceOnUse"
       id="clipPath4462"><path
         style="fill:#fe9e2e;fill-opacity:1;stroke:none;stroke-width:1.68276;stroke-linecap:round;stroke-linejoin:round;stroke-dashoffset:6.23623;paint-order:fill markers stroke"
         d="m 80.160987,-78.133731 c 0,0 0.808022,-4.921716 6.652482,-6.896269 9.909554,-2.83155 20.256131,-3.644112 30.524841,-4.119322 0,0 4.96328,-0.310759 5.37914,4.001751 0.41585,4.31251 -4.65401,5.236213 -4.65401,5.236213 l -10.21278,3.849145 c 0,0 21.98441,0.246303 23.51654,0.178779 1.53212,-0.06756 2.26413,-0.682109 3.67426,-1.780887 1.41015,-1.09878 10.62357,-8.742939 14.7118,-11.438302 4.08825,-2.695369 5.13828,-2.539532 7.32354,-1.349211 2.18527,1.190326 1.69311,4.115742 0.54235,6.11396 -1.15074,1.998207 -18.30395,19.898304 -19.31685,20.8398 -1.0129,0.941499 -4.07313,4.501018 -5.47972,4.794597 -1.40661,0.293576 -34.092095,0.443034 -39.029797,0.443034 -4.937717,0 -13.559014,0.06044 -13.559014,0.06044 z"
         id="path4464"
         sodipodi:nodetypes="ccczcczzzzzzzzcc" /></clipPath><clipPath
       clipPathUnits="userSpaceOnUse"
       id="clipPath4673-7"><path
         d="m 146.97604,-58.622774 v -14.163471 c 0,-2.203204 -0.94423,-4.406419 -2.83269,-5.665391 -3.77693,-3.147436 -8.81284,-5.35065 -13.84874,-6.609622 -3.46219,-0.944232 -7.55385,-1.888461 -11.64551,-1.888461 -3.77695,0 -7.86861,0.629491 -11.64554,1.888461 -5.0359,1.258972 -9.757049,3.776927 -13.848729,6.609622 -1.888461,1.573723 -2.83269,3.462187 -2.83269,5.665391 v 14.163471 z"
         id="path4675-9"
         style="fill:#1eb8b0;fill-opacity:1;stroke-width:1.57372" /></clipPath><clipPath
       clipPathUnits="userSpaceOnUse"
       id="clipPath4681-2"><path
         d="m 89.377909,-83.487535 v 0 c 4.406416,-3.147446 9.442304,-5.665388 14.478211,-7.239111 -3.46218,-3.776927 -5.665377,-8.498086 -5.665377,-13.848734 0,-0.31474 0,-0.31474 0,-0.62949 -1.888461,-0.62949 -3.776935,-1.57372 -5.665396,-1.88847 -3.462184,-0.94423 -7.553854,-1.88847 -11.645524,-1.88847 -3.77693,0 -7.8686,0.6295 -11.645527,1.88847 -5.035902,1.57372 -9.757061,3.77693 -13.848731,6.60963 -1.888463,1.258978 -2.832698,3.462182 -2.832698,5.665399 v 14.163471 h 33.992344 c 0.944232,-1.258983 1.573723,-1.888461 2.832698,-2.832695 z"
         id="path4683-1"
         style="fill:#1eb8b0;fill-opacity:1;stroke-width:1.57372" /></clipPath><clipPath
       clipPathUnits="userSpaceOnUse"
       id="clipPath4689-8"><path
         d="m 181.91261,-100.48371 c -3.77692,-3.14744 -8.81282,-5.35065 -13.84872,-6.60963 -3.46219,-0.94423 -7.55387,-1.88847 -11.64554,-1.88847 -3.77692,0 -7.86859,0.6295 -11.64551,1.88847 -1.88847,0.62949 -3.77693,1.25898 -5.6654,2.20322 v 0.31474 c 0,5.350648 -2.20321,10.386547 -5.66539,13.848734 5.98014,1.888463 10.7013,4.406418 14.47822,7.239111 0.94423,0.944234 1.88846,1.573712 2.51796,2.832695 h 34.30708 v -14.163471 c 0,-2.203217 -0.94424,-4.406421 -2.8327,-5.665399 z"
         id="path4691-9"
         style="fill:#1eb8b0;fill-opacity:1;stroke-width:1.57372" /></clipPath></defs><g
     inkscape:label="Layer 1"
     inkscape:groupmode="layer"
     id="layer1"
     transform="translate(2570.67,2892.4438)"><rect
       style="fill:none;fill-opacity:1;stroke:#000000;stroke-width:1.56123;stroke-linecap:round;stroke-linejoin:round;stroke-dashoffset:6.23623;paint-order:fill markers stroke"
       id="rect3543"
       width="725.88928"
       height="557.75635"
       x="-2618.323"
       y="-2935.8779" /><path
       id="path1563"
       style="fill:#f2f2f2;stroke-width:29.1967;stroke-linecap:round;stroke-linejoin:round;stroke-dashoffset:6.23623;paint-order:stroke fill markers"
       d="m -2438.3783,-2826.298 a 66.145836,66.145836 0 0 1 -66.1458,66.1458 66.145836,66.145836 0 0 1 -66.1459,-66.1458 66.145836,66.145836 0 0 1 66.1459,-66.1458 66.145836,66.145836 0 0 1 66.1458,66.1458 z"
       inkscape:export-filename="Sosial dan Kemanusiaan.svg"
       inkscape:export-xdpi="96"
       inkscape:export-ydpi="96" /><g
       id="g1623"
       transform="matrix(0.63373071,0,0,0.63373071,-2579.8961,-2753.3183)"
       style="stroke-width:0.929942"><path
         id="path1585"
         style="fill:#fe9e2e;stroke-width:1.46346"
         d="m 100.20739,-165.46932 a 11.457076,11.457076 0 0 1 -11.457073,11.45708 11.457076,11.457076 0 0 1 -11.457076,-11.45708 11.457076,11.457076 0 0 1 11.457076,-11.45707 11.457076,11.457076 0 0 1 11.457073,11.45707 z" /><path
         id="path1587"
         style="fill:#fe9e2e;stroke-width:1.46346"
         d="m 161.3118,-165.46932 a 11.457076,11.457076 0 0 1 -11.45707,11.45708 11.457076,11.457076 0 0 1 -11.45707,-11.45708 11.457076,11.457076 0 0 1 11.45707,-11.45707 11.457076,11.457076 0 0 1 11.45707,11.45707 z" /><path
         d="m 142.21667,-110.22076 v -11.45707 c 0,-1.7822 -0.7638,-3.56443 -2.29141,-4.58283 -3.05522,-2.54602 -7.12886,-4.32823 -11.20248,-5.34664 -2.80062,-0.7638 -6.11044,-1.5276 -9.42025,-1.5276 -3.05524,0 -6.36506,0.5092 -9.42028,1.5276 -4.07362,1.01841 -7.89263,3.05522 -11.202463,5.34664 -1.527608,1.27301 -2.291412,2.80063 -2.291412,4.58283 v 11.45707 z"
         id="path1589"
         style="fill:#1eb8b0;fill-opacity:1;stroke-width:1.46346" /><path
         id="path1591"
         style="fill:#fe9e2e;stroke-width:1.46346"
         d="m 130.75962,-147.64719 a 11.457076,11.457076 0 0 1 -11.45707,11.45708 11.457076,11.457076 0 0 1 -11.45708,-11.45708 11.457076,11.457076 0 0 1 11.45708,-11.45708 11.457076,11.457076 0 0 1 11.45707,11.45708 z" /><path
         d="m 170.47746,-144.08278 c -3.05521,-2.54602 -7.12885,-4.32823 -11.20247,-5.34664 -2.80062,-0.76381 -6.11046,-1.52762 -9.42027,-1.52762 -3.05522,0 -6.36504,0.50921 -9.42025,1.52762 -1.52762,0.5092 -3.05522,1.01841 -4.58284,1.78222 v 0.2546 c 0,4.32823 -1.78222,8.40186 -4.58283,11.20248 4.83744,1.5276 8.65646,3.56442 11.71167,5.85583 0.76381,0.76381 1.52761,1.273 2.03682,2.29142 h 27.75158 v -11.45708 c 0,-1.78221 -0.76381,-3.56442 -2.29141,-4.58283 z"
         id="path1593"
         style="fill:#1eb8b0;fill-opacity:1;stroke-width:1.46346" /><path
         d="m 95.624571,-130.33429 v 0 c 3.564425,-2.54602 7.638039,-4.58282 11.711669,-5.85583 -2.80062,-3.05523 -4.58282,-6.87425 -4.58282,-11.20248 0,-0.2546 0,-0.2546 0,-0.50921 -1.52761,-0.5092 -3.055224,-1.27301 -4.582833,-1.52761 -2.80062,-0.76381 -6.110442,-1.52762 -9.420264,-1.52762 -3.055221,0 -6.365042,0.50921 -9.420264,1.52762 -4.073626,1.27301 -7.89265,3.05522 -11.202473,5.34664 -1.527611,1.01841 -2.291416,2.80062 -2.291416,4.58283 v 11.45708 h 27.496983 c 0.763806,-1.01842 1.273011,-1.52761 2.291418,-2.29142 z"
         id="path1595"
         style="fill:#1eb8b0;fill-opacity:1;stroke-width:1.46346" /><path
         id="path1597"
         clip-path="url(#clipPath4673-7)"
         style="fill:#1accbe;stroke-width:3.44884;stroke-linecap:round;stroke-linejoin:round;stroke-dashoffset:6.23623;paint-order:stroke fill markers"
         d="m 178.90354,-108.74529 a 43.264256,43.264256 0 0 1 -43.26426,43.264253 43.264256,43.264256 0 0 1 -43.264253,-43.264253 43.264256,43.264256 0 0 1 43.264253,-43.26426 43.264256,43.264256 0 0 1 43.26426,43.26426 z"
         transform="matrix(0.80891698,0,0,0.80891698,23.325263,-62.799799)" /><path
         id="path1599"
         clip-path="url(#clipPath4681-2)"
         style="fill:#1accbe;stroke-width:3.44884;stroke-linecap:round;stroke-linejoin:round;stroke-dashoffset:6.23623;paint-order:stroke fill markers"
         d="m 159.16341,-111.62109 a 44.648437,44.648437 0 0 1 -44.64844,44.648434 44.648437,44.648437 0 0 1 -44.648439,-44.648434 44.648437,44.648437 0 0 1 44.648439,-44.64844 44.648437,44.648437 0 0 1 44.64844,44.64844 z"
         transform="matrix(0.80891698,0,0,0.80891698,23.325263,-62.799799)" /><path
         id="path1601"
         clip-path="url(#clipPath4689-8)"
         style="fill:#1accbe;stroke-width:3.44884;stroke-linecap:round;stroke-linejoin:round;stroke-dashoffset:6.23623;paint-order:stroke fill markers"
         d="m 236.47136,-122.7832 a 44.648437,44.648437 0 0 1 -44.64844,44.648434 44.648437,44.648437 0 0 1 -44.64844,-44.648434 44.648437,44.648437 0 0 1 44.64844,-44.64844 44.648437,44.648437 0 0 1 44.64844,44.64844 z"
         transform="matrix(0.80891698,0,0,0.80891698,23.325263,-62.799799)" /><g
         id="g1621"
         transform="matrix(1.294829,0,0,1.294829,-61.103071,-37.910163)"
         style="stroke-width:0.462443"><g
           id="g1607"
           transform="matrix(1.1843687,0,0,1.1843687,10.933099,64.818437)"
           style="stroke-width:0.390457"><path
             id="path1603"
             style="fill:#fd5239;fill-opacity:1;stroke-width:5.85691;stroke-linecap:round;stroke-dashoffset:6.23623;paint-order:stroke fill markers"
             d="m 69.681791,-91.790375 h 11.257413 c 2.246245,0 4.054593,1.808349 4.054593,4.054594 v 18.85789 c 0,2.246245 -1.808348,4.054593 -4.054593,4.054593 H 69.681791 c -2.246245,0 -4.054594,-1.808348 -4.054594,-4.054593 v -18.85789 c 0,-2.246245 1.808349,-4.054594 4.054594,-4.054594 z" /><path
             id="path1605"
             clip-path="url(#clipPath2050)"
             style="fill:#fd6939;fill-opacity:1;stroke-width:5.85691;stroke-linecap:round;stroke-dashoffset:6.23623;paint-order:stroke fill markers"
             d="m 79.366523,-100.26783 c 5.425279,0 9.792922,4.367643 9.792922,9.792922 v 9.354433 c 0,5.425279 -4.367643,9.792922 -9.792922,9.792922 -5.425279,0 -9.792922,-4.367643 -9.792922,-9.792922 v -9.354433 c 0,-5.425279 4.367643,-9.792922 9.792922,-9.792922 z" /></g><path
           style="fill:#fe9e2e;fill-opacity:1;stroke:none;stroke-width:0.778187;stroke-linecap:round;stroke-linejoin:round;stroke-dashoffset:6.23623;paint-order:fill markers stroke"
           d="m 114.20743,-35.773138 c 0,0 0.77486,-4.719696 6.37942,-6.6132 9.5028,-2.715324 19.42468,-3.494532 29.27189,-3.950237 0,0 4.75956,-0.298002 5.15835,3.837492 0.39878,4.135495 -4.46298,5.021282 -4.46298,5.021282 l -9.79358,3.691151 c 0,0 21.08202,0.236194 22.55126,0.17144 1.46923,-0.06479 2.17119,-0.654111 3.52344,-1.707786 1.35227,-1.053679 10.18751,-8.384068 14.10793,-10.968795 3.92044,-2.584734 4.92737,-2.435292 7.02293,-1.293832 2.09557,1.141469 1.62361,3.946806 0.52009,5.863001 -1.10351,1.916187 -17.55263,19.08154 -18.52395,19.984393 -0.97133,0.902853 -3.90595,4.316263 -5.2548,4.597791 -1.34887,0.281528 -32.69272,0.42485 -37.42775,0.42485 -4.73503,0 -13.00245,0.05796 -13.00245,0.05796 z"
           id="path1609"
           sodipodi:nodetypes="ccczcczzzzzzzzcc" /><g
           id="g1619"
           clip-path="url(#clipPath4462)"
           transform="matrix(0.95895309,0,0,0.95895309,37.3368,39.153447)"
           style="stroke-width:0.482234"><path
             id="path1611"
             style="fill:#f6b548;stroke-width:7.2336;stroke-linecap:round;stroke-dashoffset:6.23623;paint-order:stroke fill markers"
             d="m 90.899184,-63.804855 h 34.895266 c 6.17455,0 11.14539,2.233427 11.14539,5.007683 v 23.938849 c 0,2.774257 -4.97084,5.007684 -11.14539,5.007684 H 90.899184 c -6.174547,0 -11.145392,-2.233427 -11.145392,-5.007684 v -23.938849 c 0,-2.774256 4.970845,-5.007683 11.145392,-5.007683 z" /><path
             id="path1613"
             style="fill:#f6b548;stroke-width:7.2336;stroke-linecap:round;stroke-dashoffset:6.23623;paint-order:stroke fill markers"
             transform="rotate(-38.827253)"
             d="m 108.41598,31.528318 h 71.80864 c 2.51091,0 4.53232,2.021414 4.53232,4.532319 v 32.094089 c 0,2.510904 -2.02141,4.532318 -4.53232,4.532318 h -71.80864 c -2.51091,0 -4.53232,-2.021414 -4.53232,-4.532318 V 36.060637 c 0,-2.510905 2.02141,-4.532319 4.53232,-4.532319 z" /><path
             style="fill:#f6b548;fill-opacity:1;stroke-width:7.2336;stroke-linecap:round;stroke-dashoffset:6.23623;paint-order:stroke fill markers"
             d="m 152.93406,-81.253335 c 0.0106,-0.840323 3.34053,-3.69346 4.44189,-6.194262 1.10135,-2.500803 -0.0262,-4.649496 -0.10055,-5.692132 -0.0744,-1.042635 0.90421,-0.978814 1.94663,-0.06381 1.04242,0.915002 2.14867,2.680757 2.21233,4.563456 0.0637,1.882699 -0.91495,3.882465 -3.05855,5.46853 -2.1436,1.586064 -5.45231,2.758542 -5.44175,1.91822 z"
             id="path1615"
             sodipodi:nodetypes="ccccccc" /><path
             style="fill:#f6b548;fill-opacity:1;stroke-width:7.2336;stroke-linecap:round;stroke-dashoffset:6.23623;paint-order:stroke fill markers"
             d="m 136.2116,-68.464638 c -1.3045,0.490029 -3.96121,2.665045 -7.19927,3.721614 -3.23805,1.056569 -7.0574,0.994573 -7.55806,1.346861 -0.50066,0.352288 2.31742,1.118727 5.24586,1.351452 2.92843,0.232725 5.96713,-0.06814 7.77217,-0.910483 1.80504,-0.842347 2.37668,-2.226313 2.68639,-3.515574 0.30971,-1.289261 0.35742,-2.4839 -0.94709,-1.99387 z"
             id="path1617"
             sodipodi:nodetypes="ccccccc" /></g></g></g></g></svg>
