<?xml version="1.0" encoding="UTF-8" standalone="no"?>
<!-- Created with Inkscape (http://www.inkscape.org/) -->

<svg
   width="132.29175mm"
   height="132.29175mm"
   viewBox="0 0 132.29175 132.29175"
   version="1.1"
   id="svg5"
   xml:space="preserve"
   inkscape:version="1.2 (dc2aedaf03, 2022-05-15)"
   sodipodi:docname="drawing.svg.2025_01_17_15_17_03.0.svg"
   xmlns:inkscape="http://www.inkscape.org/namespaces/inkscape"
   xmlns:sodipodi="http://sodipodi.sourceforge.net/DTD/sodipodi-0.dtd"
   xmlns="http://www.w3.org/2000/svg"
   xmlns:svg="http://www.w3.org/2000/svg"><sodipodi:namedview
     id="namedview7"
     pagecolor="#ffffff"
     bordercolor="#ffffff"
     borderopacity="1"
     inkscape:showpageshadow="0"
     inkscape:pageopacity="0"
     inkscape:pagecheckerboard="0"
     inkscape:deskcolor="#ffffff"
     inkscape:document-units="mm"
     showgrid="true"
     showborder="false"
     showguides="true"
     inkscape:zoom="0.1767767"
     inkscape:cx="-3753.3227"
     inkscape:cy="6491.2401"
     inkscape:window-width="1920"
     inkscape:window-height="1051"
     inkscape:window-x="-9"
     inkscape:window-y="-9"
     inkscape:window-maximized="1"
     inkscape:current-layer="layer1"><inkscape:grid
       type="xygrid"
       id="grid182"
       spacingx="2.6458333"
       spacingy="2.6458333"
       color="#89c7e5"
       opacity="0.16862745"
       empcolor="#89c7e5"
       empopacity="0.16862745"
       visible="true" /><sodipodi:guide
       position="2253.18,-2666.1181"
       orientation="-1,0"
       id="guide292"
       inkscape:locked="false"
       inkscape:label=""
       inkscape:color="rgb(237,51,59)" /><sodipodi:guide
       position="2306.3834,-2480.1923"
       orientation="-1,0"
       id="guide352"
       inkscape:locked="false"
       inkscape:label=""
       inkscape:color="rgb(0,134,229)" /><sodipodi:guide
       position="2438.2561,-2477.0316"
       orientation="-1,0"
       id="guide354"
       inkscape:locked="false"
       inkscape:label=""
       inkscape:color="rgb(0,134,229)" /><sodipodi:guide
       position="2439.6286,-2538.9441"
       orientation="0,-1"
       id="guide360"
       inkscape:locked="false" /><sodipodi:guide
       position="2319.3259,-2411.9441"
       orientation="1,0"
       id="guide388"
       inkscape:locked="false" /><sodipodi:guide
       position="2368.5384,-2419.6171"
       orientation="0,-1"
       id="guide390"
       inkscape:locked="false" /><sodipodi:guide
       position="2425.1592,-2409.4306"
       orientation="1,0"
       id="guide392"
       inkscape:locked="false" /><sodipodi:guide
       position="2328.3897,-2526.3798"
       orientation="0,-1"
       id="guide394"
       inkscape:locked="false" /><sodipodi:guide
       position="2402.9342,-2406.6525"
       orientation="0,-1"
       id="guide5821"
       inkscape:locked="false" /></sodipodi:namedview><defs
     id="defs2"><clipPath
       clipPathUnits="userSpaceOnUse"
       id="clipPath21694-5"><path
         id="path21696-7"
         style="fill:#1eb8b0;stroke-width:15;stroke-linecap:round;stroke-dashoffset:6.23623;paint-order:stroke fill markers"
         d="m 734.65386,-388.25112 c 0,0 34.55196,7.16714 34.55196,39.21808 v 11.57168 c 0,13.14892 -10.58558,23.73453 -23.73453,23.73453 h -21.91901 c -13.14891,0 -23.73452,-10.58561 -23.73452,-23.73453 v -11.57168 c 0,-31.64877 34.8361,-39.21808 34.8361,-39.21808 z"
         sodipodi:nodetypes="cssssssc" /></clipPath><clipPath
       clipPathUnits="userSpaceOnUse"
       id="clipPath4312-3"><path
         id="path4314-4"
         style="fill:#fd6939;fill-opacity:1;stroke-width:0.686906;stroke-linecap:round;stroke-linejoin:round;stroke-dashoffset:6.23623;paint-order:fill markers stroke"
         d="m 100.26972,-139.23308 a 11.626523,11.626523 0 0 0 0,16.44231 11.626523,11.626523 0 0 0 0.29209,0.27097 c 0.036,0.0486 0.0747,0.0959 0.11887,0.14001 l 15.74491,15.74492 0.0183,0.0182 c 0.22281,0.22279 0.51332,0.33484 0.80711,0.33884 0.008,2.1e-4 0.0158,5.3e-4 0.0237,5.3e-4 0.008,-4e-5 0.0158,-5.3e-4 0.0237,-5.3e-4 0.29378,-0.004 0.5843,-0.11605 0.80709,-0.33884 l 14.78084,-14.78082 0.98233,-0.98232 c 0.0442,-0.0442 0.0829,-0.0914 0.11885,-0.14002 a 11.626523,11.626523 0 0 0 0.29212,-0.27096 11.626523,11.626523 0 0 0 0,-16.44232 11.626523,11.626523 0 0 0 -16.44243,-9e-5 11.626523,11.626523 0 0 0 -0.27115,0.29229 c -0.0485,0.0359 -0.0957,0.0746 -0.13983,0.11866 l -0.15151,0.15154 -0.15154,-0.15154 c -0.0439,-0.0439 -0.0911,-0.0825 -0.13953,-0.11838 a 11.626523,11.626523 0 0 0 -0.27142,-0.29257 11.626523,11.626523 0 0 0 -16.44243,9e-5 z" /></clipPath></defs><g
     inkscape:label="Layer 1"
     inkscape:groupmode="layer"
     id="layer1"
     transform="translate(2253.18,2724.1525)"><rect
       style="fill:none;fill-opacity:1;stroke:#000000;stroke-width:1.56123;stroke-linecap:round;stroke-linejoin:round;stroke-dashoffset:6.23623;paint-order:fill markers stroke"
       id="rect3543"
       width="725.88928"
       height="557.75635"
       x="-2618.323"
       y="-2935.8779" /><path
       id="path1575"
       style="fill:#f2f2f2;stroke-width:29.1967;stroke-linecap:round;stroke-linejoin:round;stroke-dashoffset:6.23623;paint-order:stroke fill markers"
       d="m -2120.8883,-2658.0067 a 66.145836,66.145836 0 0 1 -66.1458,66.1458 66.145836,66.145836 0 0 1 -66.1459,-66.1458 66.145836,66.145836 0 0 1 66.1459,-66.1459 66.145836,66.145836 0 0 1 66.1458,66.1459 z"
       inkscape:export-filename="Zakat.png"
       inkscape:export-xdpi="96"
       inkscape:export-ydpi="96" /><g
       id="g1811"
       transform="matrix(0.61781639,0,0,0.61781639,-2258.7977,-2584.5495)"
       style="stroke-width:1.00019"><path
         id="path1797"
         style="fill:#1eb8b0;stroke-width:15.0029;stroke-linecap:round;stroke-dashoffset:6.23623;paint-order:stroke fill markers"
         d="m 116.37803,-168.79002 c 0,0 53.80485,11.1608 53.80485,61.07101 v 18.019555 c 0,20.475727 -16.48406,36.959782 -36.95979,36.959782 H 99.090496 c -20.475709,0 -36.959765,-16.484055 -36.959765,-36.959782 v -18.019555 c 0,-49.28396 54.247299,-61.07101 54.247299,-61.07101 z"
         sodipodi:nodetypes="cssssssc" /><path
         id="path1799"
         clip-path="url(#clipPath21694-5)"
         style="fill:#1accbe;stroke-width:1.92689;stroke-linecap:round;stroke-linejoin:round;stroke-dashoffset:6.23623;paint-order:stroke fill markers"
         d="m 797.88409,-364.62888 a 38.447266,38.447266 0 0 1 -38.44726,38.44727 38.447266,38.447266 0 0 1 -38.44727,-38.44727 38.447266,38.447266 0 0 1 38.44727,-38.44726 38.447266,38.447266 0 0 1 38.44726,38.44726 z"
         transform="matrix(1.5572151,0,0,1.5572151,-1027.636,435.80048)" /><path
         id="path1801"
         style="fill:#1eb8b0;fill-opacity:1;stroke-width:15.0029;stroke-linecap:round;stroke-dashoffset:6.23623;paint-order:stroke fill markers"
         d="m 88.703143,-185.05585 c -2.973425,0.006 -5.196833,0.25208 -5.196833,3.81915 l 10.844323,19.93999 h 44.466027 l 9.54793,-19.93999 c 0,-3.98023 -2.90481,-3.81595 -6.51336,-3.81595 H 90.01885 c -0.451063,0 -0.890929,-0.005 -1.315707,-0.004 z" /><path
         id="path1803"
         style="fill:#fe9e2e;stroke-width:15.0029;stroke-linecap:round;stroke-dashoffset:6.23623;paint-order:stroke fill markers"
         d="m 90.323332,-164.96541 h 51.666928 c 2.16844,0 3.91415,1.74571 3.91415,3.91415 0,2.16845 -1.74571,3.91417 -3.91415,3.91417 H 90.323332 c -2.168454,0 -3.91417,-1.74572 -3.91417,-3.91417 0,-2.16844 1.745716,-3.91415 3.91417,-3.91415 z" /><g
         id="g1809"
         transform="matrix(1.476205,0,0,1.476205,-56.964654,77.965171)"
         style="stroke-width:0.677545"><path
           id="path1805"
           style="fill:#fd5239;fill-opacity:1;stroke:none;stroke-width:2.4981;stroke-linecap:round;stroke-linejoin:round;stroke-dasharray:none;stroke-dashoffset:6.23623;paint-order:stroke fill markers"
           d="m 100.26972,-139.23308 a 11.626523,11.626523 0 0 0 0,16.44231 11.626523,11.626523 0 0 0 0.29209,0.27097 c 0.036,0.0486 0.0747,0.0959 0.11887,0.14001 l 15.74491,15.74492 0.0183,0.0182 c 0.22281,0.22279 0.51332,0.33484 0.80711,0.33884 0.008,2.1e-4 0.0158,5.3e-4 0.0237,5.3e-4 0.008,-4e-5 0.0158,-5.1e-4 0.0237,-5.3e-4 0.29378,-0.004 0.58431,-0.11605 0.8071,-0.33884 l 14.78084,-14.78082 0.98233,-0.98232 c 0.0442,-0.0442 0.0829,-0.0914 0.11885,-0.14002 a 11.626523,11.626523 0 0 0 0.29212,-0.27096 11.626523,11.626523 0 0 0 0,-16.44232 11.626523,11.626523 0 0 0 -16.44243,-9e-5 11.626523,11.626523 0 0 0 -0.27115,0.29229 c -0.0485,0.0359 -0.0957,0.0746 -0.13983,0.11866 l -0.15151,0.15154 -0.15154,-0.15154 c -0.0439,-0.0439 -0.0911,-0.0825 -0.13953,-0.11838 a 11.626523,11.626523 0 0 0 -0.27142,-0.29257 11.626523,11.626523 0 0 0 -16.44243,9e-5 z" /><path
           id="path1807"
           clip-path="url(#clipPath4312-3)"
           style="fill:#fd6939;stroke-width:10.1633;stroke-linecap:round;stroke-dashoffset:6.23623;paint-order:stroke fill markers"
           d="m 125.3699,-166.62584 h 9.43038 c 10.82952,0 19.54787,8.71835 19.54787,19.54787 v 9.43038 c 0,10.82952 -8.71835,19.54787 -19.54787,19.54787 h -9.43038 c -10.82952,0 -19.54787,-8.71835 -19.54787,-19.54787 v -9.43038 c 0,-10.82952 8.71835,-19.54787 19.54787,-19.54787 z" /></g></g></g></svg>
