<?xml version="1.0" encoding="UTF-8" standalone="no"?>
<!-- Created with Inkscape (http://www.inkscape.org/) -->

<svg
   width="133.24805mm"
   height="123.81458mm"
   viewBox="0 0 133.24805 123.81458"
   version="1.1"
   id="svg5"
   xml:space="preserve"
   inkscape:version="1.2 (dc2aedaf03, 2022-05-15)"
   sodipodi:docname="drawing.svg.2025_01_17_15_17_03.0.svg"
   xmlns:inkscape="http://www.inkscape.org/namespaces/inkscape"
   xmlns:sodipodi="http://sodipodi.sourceforge.net/DTD/sodipodi-0.dtd"
   xmlns="http://www.w3.org/2000/svg"
   xmlns:svg="http://www.w3.org/2000/svg"><sodipodi:namedview
     id="namedview7"
     pagecolor="#ffffff"
     bordercolor="#ffffff"
     borderopacity="1"
     inkscape:showpageshadow="0"
     inkscape:pageopacity="0"
     inkscape:pagecheckerboard="0"
     inkscape:deskcolor="#ffffff"
     inkscape:document-units="mm"
     showgrid="true"
     showborder="false"
     showguides="true"
     inkscape:zoom="0.1767767"
     inkscape:cx="-3753.3227"
     inkscape:cy="6491.2401"
     inkscape:window-width="1920"
     inkscape:window-height="1051"
     inkscape:window-x="-9"
     inkscape:window-y="-9"
     inkscape:window-maximized="1"
     inkscape:current-layer="layer1"><inkscape:grid
       type="xygrid"
       id="grid182"
       spacingx="2.6458333"
       spacingy="2.6458333"
       color="#89c7e5"
       opacity="0.16862745"
       empcolor="#89c7e5"
       empopacity="0.16862745"
       visible="true" /><sodipodi:guide
       position="2009.6594,-1277.6743"
       orientation="-1,0"
       id="guide292"
       inkscape:locked="false"
       inkscape:label=""
       inkscape:color="rgb(237,51,59)" /><sodipodi:guide
       position="2062.8627,-1091.7485"
       orientation="-1,0"
       id="guide352"
       inkscape:locked="false"
       inkscape:label=""
       inkscape:color="rgb(0,134,229)" /><sodipodi:guide
       position="2194.7354,-1088.5879"
       orientation="-1,0"
       id="guide354"
       inkscape:locked="false"
       inkscape:label=""
       inkscape:color="rgb(0,134,229)" /><sodipodi:guide
       position="2196.1079,-1150.5004"
       orientation="0,-1"
       id="guide360"
       inkscape:locked="false" /><sodipodi:guide
       position="2075.8052,-1023.5004"
       orientation="1,0"
       id="guide388"
       inkscape:locked="false" /><sodipodi:guide
       position="2125.0177,-1031.1733"
       orientation="0,-1"
       id="guide390"
       inkscape:locked="false" /><sodipodi:guide
       position="2181.6385,-1020.9869"
       orientation="1,0"
       id="guide392"
       inkscape:locked="false" /><sodipodi:guide
       position="2084.869,-1137.936"
       orientation="0,-1"
       id="guide394"
       inkscape:locked="false" /><sodipodi:guide
       position="2159.4135,-1018.2087"
       orientation="0,-1"
       id="guide5821"
       inkscape:locked="false" /></sodipodi:namedview><defs
     id="defs2" /><g
     inkscape:label="Layer 1"
     inkscape:groupmode="layer"
     id="layer1"
     transform="translate(2009.6593,1327.2317)"><g
       id="g28449"
       transform="translate(-2062.2941,-1150.7902)"
       inkscape:export-filename=".\menunggu salur.png"
       inkscape:export-xdpi="96"
       inkscape:export-ydpi="96"><path
         style="color:#000000;fill:#19b697;stroke-linecap:round;stroke-dashoffset:6.23623;-inkscape-stroke:none;paint-order:fill markers stroke"
         d="m 108.6543,-129.75781 c -4.42845,2e-5 -8.810602,1.59559 -12.357425,4.6289 l -0.322266,0.11914 -0.769531,0.76563 c -7.398005,7.3533 -7.398005,19.47092 0,26.824218 l 0.03516,0.03516 0.03711,0.03516 c 0.09599,0.0916 0.195079,0.179961 0.292968,0.269531 0.05251,0.05635 0.07141,0.09326 0.13086,0.152344 l 19.013664,18.898437 0.0156,0.01758 c 0.002,0.0017 0.004,0.0022 0.006,0.0039 1.21526,1.205002 2.85464,1.834206 4.42578,1.855468 0.0177,7.03e-4 0.008,0.002 0.0977,0.002 h 0.0117 0.0117 c 0.18344,-8.8e-4 0.19791,-0.0024 0.0176,-0.002 h 0.0273 0.0273 c 1.5734,-0.02129 3.21567,-0.650757 4.43164,-1.859375 l 17.84375,-17.736328 1.18359,-1.177734 c 0.0603,-0.05983 0.0814,-0.09701 0.13477,-0.154297 0.0975,-0.08925 0.19536,-0.17826 0.29101,-0.269531 l 0.0371,-0.03516 0.0352,-0.03516 c 7.39801,-7.353293 7.39801,-19.470923 0,-26.824223 -6.42086,-6.38209 -16.37003,-7.19486 -23.73437,-2.50977 -0.15827,0.10069 -0.32616,0.17452 -0.32616,0.17452 0,0 1.32364,0.8625 -0.31252,-0.17647 -1.63616,-1.03897 -6.69845,-3.00196 -10.28515,-3.00195 z m 0,9.94931 c 2.30586,-2e-5 4.61101,0.88537 6.39258,2.65234 0.0497,0.0525 0.0981,0.10454 0.14648,0.1582 l 0.33984,0.37696 0.20899,0.15429 3.51758,3.49414 3.51367,-3.49218 0.20898,-0.1543 0.3418,-0.37891 c 0.0491,-0.0544 0.10001,-0.10696 0.15039,-0.16015 3.56573,-3.53314 9.22747,-3.53228 12.78906,0.008 3.5633,3.54176 3.56371,9.08713 0.004,12.63086 -0.052,0.0486 -0.10507,0.0972 -0.15821,0.14453 l -0.38085,0.33984 -0.15625,0.21094 -0.99024,0.98242 -15.32422,15.230472 -16.31445,-16.214842 -0.15625,-0.21094 -0.37891,-0.33789 c -0.0544,-0.0485 -0.10697,-0.0987 -0.16015,-0.14844 -3.556573,-3.54387 -3.556364,-9.08626 0.006,-12.62695 1.78253,-1.77178 4.0914,-2.65819 6.40039,-2.6582 z"
         id="path9936-6"
         sodipodi:nodetypes="sccccccccccccsccccccccccccssczssccsccccccccccccccccccccc" /><path
         style="color:#000000;fill:#19b697;stroke-linecap:square;stroke-dashoffset:6.23623;-inkscape-stroke:none;paint-order:fill markers stroke"
         d="m 62.4375,-152.14258 v 5 94.515627 h 113.64258 v -99.515627 z m 10,10 h 93.64258 v 79.515627 H 72.4375 Z"
         id="rect26183" /><path
         style="color:#000000;fill:#19b697;stroke-linecap:square;stroke-dashoffset:6.23623;-inkscape-stroke:none;paint-order:fill markers stroke"
         d="m 52.634766,142.47461 v 4.69531 29.27149 H 185.88281 v -33.9668 z m 9.392578,9.39258 H 176.49023 v 15.18164 H 62.027344 Z"
         id="rect26913"
         transform="scale(1,-1)" /></g><rect
       style="fill:none;fill-opacity:1;stroke:#000000;stroke-width:1.56123;stroke-linecap:round;stroke-linejoin:round;stroke-dashoffset:6.23623;paint-order:fill markers stroke"
       id="rect35689"
       width="543.85596"
       height="513.75928"
       x="-2311.4062"
       y="-1426.6946" /></g></svg>
