<?xml version="1.0" encoding="UTF-8" standalone="no"?>
<!-- Created with Inkscape (http://www.inkscape.org/) -->

<svg
   width="133.02832mm"
   height="133.68164mm"
   viewBox="0 0 133.02832 133.68164"
   version="1.1"
   id="svg5"
   xml:space="preserve"
   inkscape:version="1.2 (dc2aedaf03, 2022-05-15)"
   sodipodi:docname="drawing.svg.2025_01_17_15_17_03.0.svg"
   xmlns:inkscape="http://www.inkscape.org/namespaces/inkscape"
   xmlns:sodipodi="http://sodipodi.sourceforge.net/DTD/sodipodi-0.dtd"
   xmlns="http://www.w3.org/2000/svg"
   xmlns:svg="http://www.w3.org/2000/svg"><sodipodi:namedview
     id="namedview7"
     pagecolor="#ffffff"
     bordercolor="#ffffff"
     borderopacity="1"
     inkscape:showpageshadow="0"
     inkscape:pageopacity="0"
     inkscape:pagecheckerboard="0"
     inkscape:deskcolor="#ffffff"
     inkscape:document-units="mm"
     showgrid="true"
     showborder="false"
     showguides="true"
     inkscape:zoom="0.1767767"
     inkscape:cx="-3753.3227"
     inkscape:cy="6491.2401"
     inkscape:window-width="1920"
     inkscape:window-height="1051"
     inkscape:window-x="-9"
     inkscape:window-y="-9"
     inkscape:window-maximized="1"
     inkscape:current-layer="layer1"><inkscape:grid
       type="xygrid"
       id="grid182"
       spacingx="2.6458333"
       spacingy="2.6458333"
       color="#89c7e5"
       opacity="0.16862745"
       empcolor="#89c7e5"
       empopacity="0.16862745"
       visible="true" /><sodipodi:guide
       position="2208.6011,-1272.7407"
       orientation="-1,0"
       id="guide292"
       inkscape:locked="false"
       inkscape:label=""
       inkscape:color="rgb(237,51,59)" /><sodipodi:guide
       position="2261.8044,-1086.8149"
       orientation="-1,0"
       id="guide352"
       inkscape:locked="false"
       inkscape:label=""
       inkscape:color="rgb(0,134,229)" /><sodipodi:guide
       position="2393.6771,-1083.6543"
       orientation="-1,0"
       id="guide354"
       inkscape:locked="false"
       inkscape:label=""
       inkscape:color="rgb(0,134,229)" /><sodipodi:guide
       position="2395.0496,-1145.5668"
       orientation="0,-1"
       id="guide360"
       inkscape:locked="false" /><sodipodi:guide
       position="2274.7469,-1018.5668"
       orientation="1,0"
       id="guide388"
       inkscape:locked="false" /><sodipodi:guide
       position="2323.9594,-1026.2397"
       orientation="0,-1"
       id="guide390"
       inkscape:locked="false" /><sodipodi:guide
       position="2380.5803,-1016.0533"
       orientation="1,0"
       id="guide392"
       inkscape:locked="false" /><sodipodi:guide
       position="2283.8107,-1133.0024"
       orientation="0,-1"
       id="guide394"
       inkscape:locked="false" /><sodipodi:guide
       position="2358.3553,-1013.2751"
       orientation="0,-1"
       id="guide5821"
       inkscape:locked="false" /></sodipodi:namedview><defs
     id="defs2" /><g
     inkscape:label="Layer 1"
     inkscape:groupmode="layer"
     id="layer1"
     transform="translate(2208.6011,1332.1651)"><g
       id="g26129"
       transform="translate(-2262.0288,-1146.1242)"
       style="fill:#19b697;fill-opacity:1"
       inkscape:export-filename="pembayaran.png"
       inkscape:export-xdpi="96"
       inkscape:export-ydpi="96"><path
         style="color:#000000;fill:#19b697;fill-opacity:1;stroke-linecap:square;stroke-linejoin:bevel;stroke-dashoffset:6.23623;-inkscape-stroke:none;paint-order:fill markers stroke"
         d="m 174.77734,-110.53516 c -0.85625,-0.009 -1.68577,0.0752 -2.45703,0.2461 -3.08503,0.68345 -5.42604,2.29524 -7.21484,4.00195 -0.0867,0.0827 -2.34774,1.98851 -5.03125,4.11523 -2.68352,2.12673 -6.06516,4.75275 -9.41602,7.300786 -3.35086,2.548037 -6.68093,5.024179 -9.22461,6.824219 -1.27184,0.90002 -2.35637,1.63563 -3.07617,2.087891 -0.0802,0.05036 -0.0875,0.05079 -0.1582,0.09375 -0.54284,-0.0038 -1.70758,0.001 -3.82422,-0.02539 -0.37139,-0.0046 -0.91075,-0.0142 -1.30859,-0.01953 0.2447,-0.25921 0.4592,-0.370107 0.69921,-0.658203 2.23853,-2.686944 4.3844,-7.907551 1.98047,-12.941407 -2.37531,-4.973956 -7.51448,-6.739566 -10.97656,-6.927736 -3.46208,-0.18817 -6.26367,0.70312 -6.26367,0.70312 l 1.24805,-0.20898 c -1.72485,0.0683 -2.69827,0.41683 -4.25,0.86133 -1.55174,0.44449 -3.38244,1.03645 -5.42578,1.73242 -4.0867,1.39194 -9.00649,3.20081 -13.775396,5.001956 -9.537819,3.602279 -18.46875,7.173828 -18.46875,7.173828 l -3.142578,4.724609 0.44336,26.679688 5.035156,4.916015 c 0,0 10.331738,-0.07227 16.205078,-0.07227 2.865599,0 14.19148,0.08189 24.94141,0.11914 5.37496,0.01862 10.61803,0.0269 14.64453,0.0078 2.01325,-0.0095 3.71964,-0.02708 5.00976,-0.05273 0.64506,-0.01283 1.18311,-0.02682 1.63477,-0.04687 0.45165,-0.02006 0.44586,0.06876 1.53515,-0.158204 1.42199,-0.296261 1.54587,-0.570968 1.85157,-0.759765 0.3057,-0.188797 0.52898,-0.34868 0.76172,-0.521485 0.46547,-0.34561 0.94175,-0.732828 1.5,-1.201171 1.1165,-0.936688 2.52664,-2.181388 4.17187,-3.666016 3.29046,-2.969256 7.49708,-6.88334 11.73438,-10.876953 4.23729,-3.993613 8.49944,-8.061585 11.87695,-11.326172 3.37751,-3.264588 5.59606,-5.406201 6.72851,-6.667969 1.90531,-2.122857 3.40049,-4.83053 3.66016,-8.095703 0.25967,-3.265178 -1.15353,-7.021838 -4.03906,-9.529298 -2.22797,-1.93605 -5.0406,-2.80751 -7.60938,-2.83399 z m 0.34766,9.91016 c 0.16751,0.0331 0.34623,0.16057 0.70312,0.4707 0.79888,0.694203 0.66545,0.730036 0.62891,1.189456 -0.0365,0.459421 -0.41495,1.409162 -1.13281,2.208985 -0.17912,0.199572 -2.89542,2.927037 -6.23633,6.15625 -3.34091,3.229213 -7.5819,7.278819 -11.78711,11.242187 -4.20521,3.963368 -8.38087,7.846891 -11.57422,10.728516 -1.59667,1.440812 -2.95517,2.634746 -3.90039,3.427734 -0.18934,0.158852 -0.2615,0.210366 -0.41406,0.333985 -0.22072,0.0062 -0.36506,0.0121 -0.64063,0.01758 -1.19636,0.02379 -2.87121,0.04137 -4.85742,0.05078 -3.97241,0.01883 -9.20059,0.01077 -14.5625,-0.0078 -10.72381,-0.03716 -21.928164,-0.11914 -24.97656,-0.11914 -4.143228,0 -7.900971,0.02948 -11.324219,0.05078 L 84.75,-83.132812 c 2.350988,-0.93475 7.312325,-2.923408 15.085937,-5.859375 4.712073,-1.779676 9.564833,-3.564228 13.464843,-4.892579 1.95001,-0.664175 3.66638,-1.214835 4.95508,-1.583984 1.2887,-0.369149 2.44947,-0.504467 1.89258,-0.482422 l 1.24804,-0.208984 c 0,0 1.38047,-0.371756 2.83008,-0.292969 1.44962,0.07879 1.95081,0.110108 2.4961,1.251953 0.51668,1.081944 0.25696,1.155033 -0.64063,2.232422 -0.84019,1.008502 -1.87829,1.658829 -2.02344,1.751953 l -13.74023,5.294922 1.70508,9.664063 c 0,0 6.35243,0.118455 12.93554,0.226562 3.29156,0.05405 6.64067,0.10559 9.29102,0.138672 2.65035,0.03308 4.13024,0.07528 5.30859,0.02344 2.17613,-0.09582 2.18357,-0.52984 2.67774,-0.785156 0.49416,-0.255315 0.94136,-0.523703 1.4414,-0.83789 1.0001,-0.628376 2.17808,-1.433619 3.53321,-2.392579 2.71025,-1.917918 6.09297,-4.434648 9.5,-7.02539 3.40702,-2.590742 6.82835,-5.247693 9.57422,-7.423828 2.74586,-2.176135 4.54092,-3.591248 5.72265,-4.71875 0.74803,-0.713698 1.83996,-1.332059 2.47461,-1.472659 0.31733,-0.0703 0.47507,-0.13266 0.64258,-0.0996 z"
         id="path9948" /><path
         style="color:#000000;fill:#19b697;fill-opacity:1;stroke-linecap:square;stroke-dashoffset:6.23623;-inkscape-stroke:none;paint-order:fill markers stroke"
         d="m 113.01758,-186.04102 c -5.12065,3e-5 -10.18389,1.76733 -14.400393,5.08985 l -0.316406,-0.0762 -1.80664,1.80664 c -9.085417,9.09249 -9.085417,23.96805 0,33.06054 l 0.0332,0.0332 0.0332,0.0312 c 0.133102,0.12788 0.270161,0.25226 0.40625,0.37695 0.07226,0.0806 0.107243,0.13853 0.193359,0.22461 l 25.45312,25.47266 0.0254,0.0254 c 1.2223,1.22317 2.87852,1.86644 4.47461,1.88867 0.0185,7.4e-4 0.0139,0.002 0.10156,0.002 h 0.0137 l 0.0117,-0.002 c 0.17392,-9.5e-4 0.18509,-5e-4 0.0273,0 h 0.0215 0.0215 c 1.60276,-0.0202 3.25896,-0.66625 4.48047,-1.88867 l 23.89257,-23.91016 1.58789,-1.58984 h 0.002 c 0.0832,-0.0834 0.11859,-0.14367 0.18945,-0.22266 0.13635,-0.12491 0.2729,-0.24884 0.40625,-0.37695 l 0.0332,-0.0312 0.0332,-0.0332 c 9.08542,-9.09249 9.08542,-23.96805 0,-33.06054 -8.36363,-8.37019 -21.57754,-8.93658 -30.72071,-1.89649 -4.17702,-3.21624 -9.15914,-4.92385 -14.19726,-4.92383 z m 0,9.08399 c 3.62467,-2e-5 7.24789,1.3981 10.04297,4.18945 0.0943,0.0994 0.18789,0.19873 0.27929,0.30078 l 0.3086,0.34571 0.23633,0.17578 3.33007,3.33398 3.32618,-3.33008 0.24023,-0.17773 0.31055,-0.34766 c 0.0931,-0.10401 0.18899,-0.20541 0.28515,-0.30664 5.59429,-5.57932 14.50474,-5.57581 20.0918,0.0156 5.58938,5.59373 5.59179,14.52492 0.01,20.12304 -0.0991,0.0942 -0.19898,0.18799 -0.30079,0.2793 l -0.3457,0.31055 -0.17187,0.23242 -1.44336,1.44336 -22.00196,22.01953 -23.44726,-23.4668 -0.16992,-0.22851 -0.34571,-0.31055 c -0.1018,-0.0913 -0.20165,-0.18508 -0.30078,-0.2793 -5.582016,-5.59812 -5.579609,-14.52931 0.01,-20.12304 2.79654,-2.79875 6.42718,-4.1992 10.05664,-4.19922 z"
         id="path9936-7" /><path
         style="color:#000000;fill:#19b697;fill-opacity:1;stroke-linecap:round;stroke-dashoffset:6.23623;-inkscape-stroke:none;paint-order:fill markers stroke"
         d="m 53.427734,-97.458984 v 5 40.099609 h 31.273438 v -45.099609 z m 10,10 h 11.273438 v 25.099609 H 63.427734 Z"
         id="rect20549" /></g><rect
       style="fill:none;fill-opacity:1;stroke:#000000;stroke-width:1.56123;stroke-linecap:round;stroke-linejoin:round;stroke-dashoffset:6.23623;paint-order:fill markers stroke"
       id="rect35689"
       width="543.85596"
       height="513.75928"
       x="-2311.4062"
       y="-1426.6946" /></g></svg>
