<?xml version="1.0" encoding="UTF-8" standalone="no"?>
<!-- Created with Inkscape (http://www.inkscape.org/) -->

<svg
   width="131.63293mm"
   height="127.08569mm"
   viewBox="0 0 131.63293 127.08569"
   version="1.1"
   id="svg5"
   xml:space="preserve"
   inkscape:version="1.2 (dc2aedaf03, 2022-05-15)"
   sodipodi:docname="drawing.svg.2025_01_17_15_17_03.0.svg"
   xmlns:inkscape="http://www.inkscape.org/namespaces/inkscape"
   xmlns:sodipodi="http://sodipodi.sourceforge.net/DTD/sodipodi-0.dtd"
   xmlns="http://www.w3.org/2000/svg"
   xmlns:svg="http://www.w3.org/2000/svg"><sodipodi:namedview
     id="namedview7"
     pagecolor="#ffffff"
     bordercolor="#ffffff"
     borderopacity="1"
     inkscape:showpageshadow="0"
     inkscape:pageopacity="0"
     inkscape:pagecheckerboard="0"
     inkscape:deskcolor="#ffffff"
     inkscape:document-units="mm"
     showgrid="true"
     showborder="false"
     showguides="true"
     inkscape:zoom="0.1767767"
     inkscape:cx="-3753.3227"
     inkscape:cy="6491.2401"
     inkscape:window-width="1920"
     inkscape:window-height="1051"
     inkscape:window-x="-9"
     inkscape:window-y="-9"
     inkscape:window-maximized="1"
     inkscape:current-layer="layer1"><inkscape:grid
       type="xygrid"
       id="grid182"
       spacingx="2.6458333"
       spacingy="2.6458333"
       color="#89c7e5"
       opacity="0.16862745"
       empcolor="#89c7e5"
       empopacity="0.16862745"
       visible="true" /><sodipodi:guide
       position="2008.8518,-1078.2625"
       orientation="-1,0"
       id="guide292"
       inkscape:locked="false"
       inkscape:label=""
       inkscape:color="rgb(237,51,59)" /><sodipodi:guide
       position="2062.0551,-892.33674"
       orientation="-1,0"
       id="guide352"
       inkscape:locked="false"
       inkscape:label=""
       inkscape:color="rgb(0,134,229)" /><sodipodi:guide
       position="2193.9278,-889.17613"
       orientation="-1,0"
       id="guide354"
       inkscape:locked="false"
       inkscape:label=""
       inkscape:color="rgb(0,134,229)" /><sodipodi:guide
       position="2195.3003,-951.08862"
       orientation="0,-1"
       id="guide360"
       inkscape:locked="false" /><sodipodi:guide
       position="2074.9976,-824.08863"
       orientation="1,0"
       id="guide388"
       inkscape:locked="false" /><sodipodi:guide
       position="2124.2101,-831.76155"
       orientation="0,-1"
       id="guide390"
       inkscape:locked="false" /><sodipodi:guide
       position="2180.8309,-821.57509"
       orientation="1,0"
       id="guide392"
       inkscape:locked="false" /><sodipodi:guide
       position="2084.0614,-938.52426"
       orientation="0,-1"
       id="guide394"
       inkscape:locked="false" /><sodipodi:guide
       position="2158.6059,-818.79697"
       orientation="0,-1"
       id="guide5821"
       inkscape:locked="false" /></sodipodi:namedview><defs
     id="defs2" /><g
     inkscape:label="Layer 1"
     inkscape:groupmode="layer"
     id="layer1"
     transform="translate(2008.8519,1131.091)"><g
       id="g33419"
       transform="translate(-2062.0609,-951.09323)"
       inkscape:export-filename=".\proses salur1.png"
       inkscape:export-xdpi="96"
       inkscape:export-ydpi="96"><path
         id="path30181"
         style="color:#000000;fill:#19b697;stroke-linecap:square;stroke-dashoffset:6.23623;paint-order:fill markers stroke"
         d="m 53.353333,-179.9978 -0.0098,9.99991 5.000212,0.004 70.263415,0.0723 v 86.366307 a 10.99056,11.100139 0 0 1 5.4131,-1.443323 10.99056,11.100139 0 0 1 8.47856,4.037996 h 42.34315 v -39.64461 l -21.79092,-25.20104 h -24.44347 v -34.10542 l -80.254017,-0.0822 z m 85.621127,44.1911 h 19.50217 l 16.36541,18.92598 v 25.919864 h -35.86758 z m -14.07252,55.715465 -66.69309,0.07751 -4.999695,0.0062 0.01137,9.999907 5.000212,-0.0057 65.483853,-0.07493 a 10.99056,11.100139 0 0 1 -0.67489,-3.81062 10.99056,11.100139 0 0 1 1.87224,-6.192387 z" /><path
         style="color:#000000;fill:#19b697;stroke-linecap:square;stroke-dashoffset:6.23623;-inkscape-stroke:none;paint-order:fill markers stroke"
         d="m 133.97656,-94.876953 c -11.4688,0 -20.82617,9.480105 -20.82617,20.982422 0,11.502317 9.35737,20.982422 20.82617,20.982422 11.4688,0 20.82422,-9.480105 20.82422,-20.982422 0,-11.502317 -9.35542,-20.982422 -20.82422,-20.982422 z m 0,10 c 6.01053,0 10.82422,4.831144 10.82422,10.982422 0,6.151277 -4.81369,10.982422 -10.82422,10.982422 -6.01052,0 -10.82617,-4.831145 -10.82617,-10.982422 0,-6.151278 4.81565,-10.982422 10.82617,-10.982422 z"
         id="ellipse32522" /><path
         style="color:#000000;fill:#19b697;stroke-linecap:square;stroke-dashoffset:6.23623;-inkscape-stroke:none;paint-order:fill markers stroke"
         d="m 144.70508,-143.76758 v 5 29.23633 l 33.90429,0.0371 5,0.006 0.0117,-10 -5,-0.006 -23.91601,-0.0273 v -19.2461 -5 z"
         id="path32584" /><path
         style="color:#000000;fill:#19b697;stroke-linecap:round;stroke-dashoffset:6.23623;-inkscape-stroke:none;paint-order:fill markers stroke"
         d="m 77.701316,-152.79968 c -4.42845,2e-5 -8.8106,1.59559 -12.35742,4.6289 l -0.32227,0.11914 -0.76953,0.76563 c -7.39801,7.3533 -7.39801,19.47092 0,26.82421 l 0.0352,0.0352 0.0371,0.0352 c 0.096,0.0916 0.19508,0.17997 0.29297,0.26954 0.0525,0.0564 0.0714,0.0933 0.13086,0.15234 l 19.01366,18.89844 0.0156,0.0176 c 0.002,0.002 0.004,0.002 0.006,0.004 1.21526,1.204997 2.85464,1.834203 4.42578,1.855465 0.0177,7.03e-4 0.008,0.002 0.0977,0.002 h 0.0117 0.0117 c 0.18344,-8.8e-4 0.19791,-0.0024 0.0176,-0.002 h 0.0273 0.0273 c 1.5734,-0.02129 3.21567,-0.650758 4.43164,-1.859375 l 17.843754,-17.73633 1.18359,-1.17773 c 0.0603,-0.0598 0.0814,-0.097 0.13477,-0.1543 0.0975,-0.0893 0.19536,-0.17826 0.29101,-0.26953 l 0.0371,-0.0352 0.0352,-0.0352 c 7.39801,-7.35329 7.39801,-19.47092 0,-26.82422 -6.42086,-6.38209 -16.370034,-7.19486 -23.734374,-2.50977 -0.15827,0.10069 -0.32616,0.17452 -0.32616,0.17452 0,0 1.32364,0.8625 -0.31252,-0.17647 -1.63616,-1.03897 -6.69845,-3.00196 -10.28515,-3.00195 z m 0,9.94931 c 2.30586,-2e-5 4.61101,0.88537 6.39258,2.65234 0.0497,0.0525 0.0981,0.10454 0.14648,0.1582 l 0.33984,0.37696 0.20899,0.15429 3.51758,3.49414 3.51367,-3.49218 0.20898,-0.1543 0.3418,-0.37891 c 0.0491,-0.0544 0.10001,-0.10696 0.15039,-0.16015 3.56573,-3.53314 9.227474,-3.53228 12.789064,0.008 3.5633,3.54176 3.56371,9.08713 0.004,12.63086 -0.052,0.0486 -0.10507,0.0972 -0.15821,0.14453 l -0.38085,0.33984 -0.15625,0.21094 -0.99024,0.98242 -15.324224,15.23047 -16.31445,-16.21484 -0.15625,-0.21094 -0.37891,-0.33789 c -0.0544,-0.0485 -0.10697,-0.0987 -0.16015,-0.14844 -3.55657,-3.54387 -3.55636,-9.08626 0.006,-12.62695 1.78253,-1.77178 4.0914,-2.65819 6.40039,-2.6582 z"
         id="path9936-6-8"
         sodipodi:nodetypes="sccccccccccccsccccccccccccssczssccsccccccccccccccccccccc" /></g><rect
       style="fill:none;fill-opacity:1;stroke:#000000;stroke-width:1.56123;stroke-linecap:round;stroke-linejoin:round;stroke-dashoffset:6.23623;paint-order:fill markers stroke"
       id="rect35689"
       width="543.85596"
       height="513.75928"
       x="-2311.4062"
       y="-1426.6946" /></g></svg>
