<?xml version="1.0" encoding="UTF-8" standalone="no"?>
<!-- Created with Inkscape (http://www.inkscape.org/) -->

<svg
   width="131.6438mm"
   height="119.6095mm"
   viewBox="0 0 131.6438 119.6095"
   version="1.1"
   id="svg5"
   xml:space="preserve"
   inkscape:version="1.2 (dc2aedaf03, 2022-05-15)"
   sodipodi:docname="drawing.svg.2025_01_17_15_17_03.0.svg"
   xmlns:inkscape="http://www.inkscape.org/namespaces/inkscape"
   xmlns:sodipodi="http://sodipodi.sourceforge.net/DTD/sodipodi-0.dtd"
   xmlns="http://www.w3.org/2000/svg"
   xmlns:svg="http://www.w3.org/2000/svg"><sodipodi:namedview
     id="namedview7"
     pagecolor="#ffffff"
     bordercolor="#ffffff"
     borderopacity="1"
     inkscape:showpageshadow="0"
     inkscape:pageopacity="0"
     inkscape:pagecheckerboard="0"
     inkscape:deskcolor="#ffffff"
     inkscape:document-units="mm"
     showgrid="true"
     showborder="false"
     showguides="true"
     inkscape:zoom="0.1767767"
     inkscape:cx="-3753.3227"
     inkscape:cy="6491.2401"
     inkscape:window-width="1920"
     inkscape:window-height="1051"
     inkscape:window-x="-9"
     inkscape:window-y="-9"
     inkscape:window-maximized="1"
     inkscape:current-layer="layer1"><inkscape:grid
       type="xygrid"
       id="grid182"
       spacingx="2.6458333"
       spacingy="2.6458333"
       color="#89c7e5"
       opacity="0.16862745"
       empcolor="#89c7e5"
       empopacity="0.16862745"
       visible="true" /><sodipodi:guide
       position="2207.9091,-1082.0007"
       orientation="-1,0"
       id="guide292"
       inkscape:locked="false"
       inkscape:label=""
       inkscape:color="rgb(237,51,59)" /><sodipodi:guide
       position="2261.1124,-896.07484"
       orientation="-1,0"
       id="guide352"
       inkscape:locked="false"
       inkscape:label=""
       inkscape:color="rgb(0,134,229)" /><sodipodi:guide
       position="2392.9851,-892.91423"
       orientation="-1,0"
       id="guide354"
       inkscape:locked="false"
       inkscape:label=""
       inkscape:color="rgb(0,134,229)" /><sodipodi:guide
       position="2394.3576,-954.82673"
       orientation="0,-1"
       id="guide360"
       inkscape:locked="false" /><sodipodi:guide
       position="2274.0549,-827.82673"
       orientation="1,0"
       id="guide388"
       inkscape:locked="false" /><sodipodi:guide
       position="2323.2674,-835.49965"
       orientation="0,-1"
       id="guide390"
       inkscape:locked="false" /><sodipodi:guide
       position="2379.8882,-825.31319"
       orientation="1,0"
       id="guide392"
       inkscape:locked="false" /><sodipodi:guide
       position="2283.1187,-942.26237"
       orientation="0,-1"
       id="guide394"
       inkscape:locked="false" /><sodipodi:guide
       position="2357.6632,-822.53507"
       orientation="0,-1"
       id="guide5821"
       inkscape:locked="false" /></sodipodi:namedview><defs
     id="defs2" /><g
     inkscape:label="Layer 1"
     inkscape:groupmode="layer"
     id="layer1"
     transform="translate(2207.909,1127.3529)"><g
       id="g35685"
       transform="translate(-2262.1376,-950.28453)"
       inkscape:export-filename=".\selesai salur.png"
       inkscape:export-xdpi="96"
       inkscape:export-ydpi="96"><path
         style="color:#000000;fill:#19b697;stroke-dashoffset:6.23623;-inkscape-stroke:none;paint-order:fill markers stroke"
         d="m 93.802734,-177.06836 c -10.178472,6e-5 -20.355747,3.90421 -28.078125,11.71094 l -3.960937,4.0039 0.447265,0.34766 c -11.660923,15.67374 -10.592411,38.00558 3.513672,52.26563 l 0.03516,0.0352 0.03711,0.0352 c 0.264026,0.25625 0.533721,0.50707 0.804687,0.75586 0.121606,0.1425 0.199225,0.26025 0.351563,0.41406 l 46.968751,47.482422 0.0527,0.05273 c 1.60333,1.620581 3.77671,2.474766 5.89258,2.503907 0.005,9.9e-4 -0.0145,0.002 0.13867,0.002 h 0.0137 0.0117 c 0.0578,-2.91e-4 0.0744,-8.09e-4 0.11523,-0.002 10e-4,-1.8e-5 0.003,1.7e-5 0.004,0 2.11521,-0.02995 4.28629,-0.884189 5.88867,-2.503907 l 44.09375,-44.574212 2.92969,-2.96289 h 0.002 c 0.15193,-0.15368 0.23262,-0.27766 0.35547,-0.42188 0.26753,-0.24577 0.53611,-0.49109 0.79688,-0.74414 l 0.0351,-0.0371 0.0371,-0.0352 c 15.44468,-15.61325 15.44468,-41.00394 0,-56.61719 -14.86174,-15.02407 -38.73455,-15.43653 -54.2832,-1.54688 -7.46929,-6.67218 -16.79323,-10.16411 -26.203122,-10.16406 z m 0.002,9.91406 c 7.566986,-4e-5 15.131096,2.93958 20.951176,8.81446 0.21679,0.22945 0.4311,0.46094 0.64062,0.69726 l 0.3379,0.38086 0.35546,0.26758 3.91797,3.95898 3.92188,-3.96484 0.34961,-0.26172 0.33789,-0.38086 c 0.21115,-0.23817 0.42795,-0.47193 0.64648,-0.70312 11.64599,-11.74805 30.2794,-11.74223 41.91602,0.0215 11.63862,11.76565 11.643,30.76056 0.0156,42.5332 -0.22657,0.21872 -0.45618,0.43516 -0.68945,0.64649 l -0.37891,0.3418 -0.26562,0.36328 -2.83789,2.86718 -43.01758,43.486333 -45.863285,-46.363283 -0.259766,-0.35547 -0.375,-0.33984 c -0.233239,-0.21133 -0.462906,-0.42777 -0.689453,-0.64649 -11.627372,-11.77264 -11.622998,-30.76755 0.01563,-42.5332 5.822155,-5.88575 13.396763,-8.83004 20.970703,-8.83008 z"
         id="path32634" /><path
         style="color:#000000;fill:#19b697;stroke-dashoffset:6.23623;-inkscape-stroke:none;paint-order:fill markers stroke"
         d="M 150.66602,-146.80273 119.07031,-114.42969 104,-129.16797 l -6.992188,7.15039 22.226568,21.73633 38.58789,-39.53711 z"
         id="path34201" /></g><rect
       style="fill:none;fill-opacity:1;stroke:#000000;stroke-width:1.56123;stroke-linecap:round;stroke-linejoin:round;stroke-dashoffset:6.23623;paint-order:fill markers stroke"
       id="rect35689"
       width="543.85596"
       height="513.75928"
       x="-2311.4062"
       y="-1426.6946" /></g></svg>
