<?xml version="1.0" encoding="UTF-8" standalone="no"?>
<!-- Created with Inkscape (http://www.inkscape.org/) -->

<svg
   width="132.7666mm"
   height="125.51758mm"
   viewBox="0 0 132.7666 125.51758"
   version="1.1"
   id="svg5"
   xml:space="preserve"
   inkscape:version="1.2 (dc2aedaf03, 2022-05-15)"
   sodipodi:docname="drawing.svg.2025_01_17_15_17_03.0.svg"
   xmlns:inkscape="http://www.inkscape.org/namespaces/inkscape"
   xmlns:sodipodi="http://sodipodi.sourceforge.net/DTD/sodipodi-0.dtd"
   xmlns="http://www.w3.org/2000/svg"
   xmlns:svg="http://www.w3.org/2000/svg"><sodipodi:namedview
     id="namedview7"
     pagecolor="#ffffff"
     bordercolor="#ffffff"
     borderopacity="1"
     inkscape:showpageshadow="0"
     inkscape:pageopacity="0"
     inkscape:pagecheckerboard="0"
     inkscape:deskcolor="#ffffff"
     inkscape:document-units="mm"
     showgrid="true"
     showborder="false"
     showguides="true"
     inkscape:zoom="0.1767767"
     inkscape:cx="-3753.3227"
     inkscape:cy="6491.2401"
     inkscape:window-width="1920"
     inkscape:window-height="1051"
     inkscape:window-x="-9"
     inkscape:window-y="-9"
     inkscape:window-maximized="1"
     inkscape:current-layer="layer1"><inkscape:grid
       type="xygrid"
       id="grid182"
       spacingx="2.6458333"
       spacingy="2.6458333"
       color="#89c7e5"
       opacity="0.16862745"
       empcolor="#89c7e5"
       empopacity="0.16862745"
       visible="true" /><sodipodi:guide
       position="3003.0725,-1405.1264"
       orientation="-1,0"
       id="guide292"
       inkscape:locked="false"
       inkscape:label=""
       inkscape:color="rgb(237,51,59)" /><sodipodi:guide
       position="3056.2758,-1219.2006"
       orientation="-1,0"
       id="guide352"
       inkscape:locked="false"
       inkscape:label=""
       inkscape:color="rgb(0,134,229)" /><sodipodi:guide
       position="3188.1485,-1216.04"
       orientation="-1,0"
       id="guide354"
       inkscape:locked="false"
       inkscape:label=""
       inkscape:color="rgb(0,134,229)" /><sodipodi:guide
       position="3189.5211,-1277.9525"
       orientation="0,-1"
       id="guide360"
       inkscape:locked="false" /><sodipodi:guide
       position="3069.2183,-1150.9525"
       orientation="1,0"
       id="guide388"
       inkscape:locked="false" /><sodipodi:guide
       position="3118.4308,-1158.6254"
       orientation="0,-1"
       id="guide390"
       inkscape:locked="false" /><sodipodi:guide
       position="3175.0517,-1148.439"
       orientation="1,0"
       id="guide392"
       inkscape:locked="false" /><sodipodi:guide
       position="3078.2822,-1265.3882"
       orientation="0,-1"
       id="guide394"
       inkscape:locked="false" /><sodipodi:guide
       position="3152.8267,-1145.6609"
       orientation="0,-1"
       id="guide5821"
       inkscape:locked="false" /></sodipodi:namedview><defs
     id="defs2" /><g
     inkscape:label="Layer 1"
     inkscape:groupmode="layer"
     id="layer1"
     transform="translate(3003.0726,1456.3868)"><g
       id="g40502"
       transform="translate(-3056.2805,-1278.1898)"
       inkscape:export-filename="Kantong Berbagi.png"
       inkscape:export-xdpi="96"
       inkscape:export-ydpi="96"><path
         id="rect38769"
         style="color:#000000;fill:#1accbe;stroke-dashoffset:6.23623;-inkscape-stroke:none;paint-order:fill markers stroke"
         d="m 155.96671,-178.19687 c -0.39522,0.002 -0.79635,0.0273 -1.202,0.076 l -91.868291,11.02258 c -6.269805,0.75227 -10.075497,6.76444 -9.654191,12.7801 h -0.03411 v 9.12813 h 10e-4 v 80.334627 c 0,6.658723 5.516763,12.176001 12.175484,12.176001 H 173.79869 c 6.65873,0 12.176,-5.517278 12.176,-12.176001 v -80.898417 c 0,-6.65873 -5.51727,-12.17601 -12.176,-12.17601 h -5.40845 l -1.1312,-9.42681 c -0.69975,-5.83203 -5.36407,-10.87436 -11.29233,-10.84016 z m -0.0103,10.00455 c 0.24656,-0.0296 1.17335,0.35376 1.37408,2.02675 l 0.98805,8.23567 H 70.423092 Z m -90.571731,10.26242 c -0.191048,0 -0.380928,0.005 -0.569991,0.0145 0.189022,-0.009 0.378982,-0.0145 0.569991,-0.0145 z m -0.747757,0.0258 c -0.132831,0.008 -0.265151,0.0184 -0.396875,0.031 0.131761,-0.0127 0.264004,-0.0227 0.396875,-0.031 z m -0.587045,0.0506 c -0.128982,0.0145 -0.25718,0.0316 -0.384989,0.0501 0.12777,-0.0186 0.256045,-0.0357 0.384989,-0.0501 z m -0.565857,0.0765 c -0.160287,0.0258 -0.319756,0.0552 -0.478007,0.0873 0.158285,-0.0321 0.317681,-0.0615 0.478007,-0.0873 z m -0.551387,0.10077 c -0.17496,0.0367 -0.348127,0.0782 -0.520382,0.12247 0.17228,-0.0442 0.345394,-0.0858 0.520382,-0.12247 z m -0.711585,0.17466 c -0.118989,0.0327 -0.237444,0.0666 -0.355017,0.10284 0.117596,-0.0362 0.236003,-0.0702 0.355017,-0.10284 z m -0.540018,0.16175 c -0.114624,0.0373 -0.228414,0.0767 -0.341582,0.11731 0.11318,-0.0407 0.226944,-0.08 0.341582,-0.11731 z m -0.531234,0.18603 c -0.124899,0.0472 -0.248573,0.0971 -0.371554,0.14832 0.123031,-0.0513 0.246601,-0.10104 0.371554,-0.14832 z m -0.52865,0.21343 c -0.155395,0.0673 -0.308871,0.13832 -0.460954,0.21187 0.152085,-0.0736 0.305553,-0.14454 0.460954,-0.21187 z m -0.605648,0.28422 c -0.114785,0.0574 -0.228827,0.11584 -0.341581,0.17673 0.11271,-0.0609 0.22684,-0.11933 0.341581,-0.17673 z m -0.516764,0.27388 c -0.09744,0.0547 -0.19409,0.11067 -0.289905,0.16795 0.09581,-0.0573 0.192461,-0.11322 0.289905,-0.16795 z m -0.478007,0.28164 c -0.109506,0.0682 -0.217312,0.13885 -0.324528,0.21032 0.107155,-0.0715 0.215083,-0.14218 0.324528,-0.21032 z m -0.453202,0.29507 c -0.136653,0.0936 -0.270919,0.1905 -0.403593,0.28939 0.132667,-0.0989 0.266943,-0.19576 0.403593,-0.28939 z m -0.612366,0.45062 c -0.07104,0.0553 -0.142077,0.11058 -0.211874,0.16743 0.0698,-0.0569 0.140832,-0.11206 0.211874,-0.16743 z m -0.424264,0.3452 c -0.06312,0.0538 -0.125561,0.10826 -0.187585,0.1633 0.06202,-0.0551 0.124469,-0.10948 0.187585,-0.1633 z m -0.397391,0.35243 c -0.06096,0.0566 -0.120544,0.11479 -0.180351,0.1726 0.05979,-0.0578 0.119409,-0.11597 0.180351,-0.1726 z m 8.251175,6.72776 H 173.79869 c 1.29171,0 2.1761,0.88387 2.1761,2.17558 v 80.898417 c 0,1.291711 -0.88439,2.175577 -2.1761,2.175578 H 65.384639 c -1.291709,0 -2.175577,-0.883867 -2.175577,-2.175578 v -80.898417 c 0,-1.29171 0.883868,-2.17558 2.175577,-2.17558 z" /><path
         id="path38764"
         style="color:#000000;fill:#1accbe;stroke-linecap:round;stroke-dashoffset:6.23623;paint-order:fill markers stroke"
         d="m 107.4844,-134.68739 c -5.25079,3e-5 -10.501598,1.98475 -14.482324,5.9552 0,0 -1.402477,1.45988 -2.497006,3.07268 -1.09453,1.61279 -1.971972,3.66334 -1.971972,3.66334 -2.995492,7.39472 -1.50705,16.22879 4.468978,22.189342 l 0.03514,0.03721 0.03669,0.03514 c 0.106051,0.101555 0.216318,0.199443 0.324528,0.29869 0.05906,0.06413 0.08284,0.108893 0.150378,0.176217 l 20.978568,20.923787 0.0191,0.01964 c 1.24044,1.237175 2.91905,1.884448 4.53151,1.907894 0.0114,6.31e-4 0.005,0.0021 0.10542,0.0021 h 0.0119 0.0114 c 0.18367,-8.53e-4 0.20437,-5.38e-4 0.0238,0 h 0.0253 0.0253 c 1.61793,-0.02108 3.29953,-0.67187 4.54081,-1.909961 l 19.68976,-19.639111 1.30844,-1.30638 h 0.002 c 0.0665,-0.06637 0.09,-0.110279 0.14831,-0.173633 0.10822,-0.09924 0.21847,-0.197655 0.32453,-0.299207 l 0.0367,-0.03514 0.0351,-0.03721 c 7.96139,-7.940758 7.96139,-20.984588 0,-28.925358 -7.00977,-6.99166 -17.94888,-7.81244 -25.90023,-2.49236 l 0.003,0.003 -0.29094,0.2129 -0.27957,-0.21239 -0.002,5.2e-4 0.004,-0.004 c -3.43564,-2.29836 -7.42085,-3.46286 -11.41584,-3.46284 z m 0,9.94152 c 2.67144,-2e-5 5.34033,1.03118 7.40626,3.0856 0.0624,0.066 0.12689,0.13192 0.18759,0.19947 l 0.33745,0.37672 0.21911,0.16226 3.55068,3.5388 3.54656,-3.5388 0.21704,-0.15813 0.34158,-0.38085 c 0.06,-0.0667 0.12231,-0.13225 0.18397,-0.19741 4.13556,-4.11589 10.69788,-4.11547 14.8301,0.006 4.13326,4.12255 4.13329,10.63474 0.004,14.75931 -0.0639,0.0601 -0.12785,0.11928 -0.19327,0.17777 l -0.37879,0.34003 -0.1602,0.21704 -1.12706,1.12293 -17.26355,17.220652 -18.38854,-18.342032 -0.16226,-0.21653 -0.38086,-0.34209 c -0.0671,-0.06 -0.13339,-0.11966 -0.19896,-0.18139 -4.12574,-4.12477 -4.124143,-10.63448 0.008,-14.75569 2.06752,-2.06217 4.7453,-3.09385 7.42177,-3.09386 z" /></g></g></svg>
