<?xml version="1.0" encoding="UTF-8" standalone="no"?>
<!-- Created with Inkscape (http://www.inkscape.org/) -->

<svg
   width="132.45886mm"
   height="132.45874mm"
   viewBox="0 0 132.45886 132.45874"
   version="1.1"
   id="svg5"
   xml:space="preserve"
   inkscape:version="1.2 (dc2aedaf03, 2022-05-15)"
   sodipodi:docname="drawing.svg.2025_01_17_15_17_03.0.svg"
   xmlns:inkscape="http://www.inkscape.org/namespaces/inkscape"
   xmlns:sodipodi="http://sodipodi.sourceforge.net/DTD/sodipodi-0.dtd"
   xmlns="http://www.w3.org/2000/svg"
   xmlns:svg="http://www.w3.org/2000/svg"><sodipodi:namedview
     id="namedview7"
     pagecolor="#ffffff"
     bordercolor="#ffffff"
     borderopacity="1"
     inkscape:showpageshadow="0"
     inkscape:pageopacity="0"
     inkscape:pagecheckerboard="0"
     inkscape:deskcolor="#ffffff"
     inkscape:document-units="mm"
     showgrid="true"
     showborder="false"
     showguides="true"
     inkscape:zoom="0.1767767"
     inkscape:cx="-3753.3227"
     inkscape:cy="6491.2401"
     inkscape:window-width="1920"
     inkscape:window-height="1051"
     inkscape:window-x="-9"
     inkscape:window-y="-9"
     inkscape:window-maximized="1"
     inkscape:current-layer="layer1"><inkscape:grid
       type="xygrid"
       id="grid182"
       spacingx="2.6458333"
       spacingy="2.6458333"
       color="#89c7e5"
       opacity="0.16862745"
       empcolor="#89c7e5"
       empopacity="0.16862745"
       visible="true" /><sodipodi:guide
       position="1222.6097,1705.3329"
       orientation="-1,0"
       id="guide292"
       inkscape:locked="false"
       inkscape:label=""
       inkscape:color="rgb(237,51,59)" /><sodipodi:guide
       position="1275.8131,1891.2587"
       orientation="-1,0"
       id="guide352"
       inkscape:locked="false"
       inkscape:label=""
       inkscape:color="rgb(0,134,229)" /><sodipodi:guide
       position="1407.6858,1894.4193"
       orientation="-1,0"
       id="guide354"
       inkscape:locked="false"
       inkscape:label=""
       inkscape:color="rgb(0,134,229)" /><sodipodi:guide
       position="1409.0583,1832.5068"
       orientation="0,-1"
       id="guide360"
       inkscape:locked="false" /><sodipodi:guide
       position="1288.7556,1959.5068"
       orientation="1,0"
       id="guide388"
       inkscape:locked="false" /><sodipodi:guide
       position="1337.9681,1951.8339"
       orientation="0,-1"
       id="guide390"
       inkscape:locked="false" /><sodipodi:guide
       position="1394.5889,1962.0203"
       orientation="1,0"
       id="guide392"
       inkscape:locked="false" /><sodipodi:guide
       position="1297.8194,1845.0712"
       orientation="0,-1"
       id="guide394"
       inkscape:locked="false" /><sodipodi:guide
       position="1372.3639,1964.7984"
       orientation="0,-1"
       id="guide5821"
       inkscape:locked="false" /></sodipodi:namedview><defs
     id="defs2"><clipPath
       clipPathUnits="userSpaceOnUse"
       id="clipPath8010"><path
         id="path8012"
         style="fill:#fe9e2e;fill-opacity:1;stroke:none;stroke-width:10;stroke-linecap:round;stroke-dashoffset:6.23623;paint-order:fill markers stroke"
         d="m 80.537717,-108.20011 5e-6,37.536204 0.12251,-1.1e-5 c 0.287007,0.865423 1.206982,1.700382 2.760557,2.368847 l 29.859161,12.847277 c 3.81122,1.639877 9.94763,1.639877 13.75885,0 l 29.85915,-12.847275 c 1.55358,-0.668469 2.47356,-1.503426 2.76056,-2.368849 l 0.1225,-1.3e-5 1e-5,-37.53621 z" /></clipPath><clipPath
       clipPathUnits="userSpaceOnUse"
       id="clipPath8212"><rect
         style="fill:#fd5239;fill-opacity:1;stroke:none;stroke-width:11.7354;stroke-linecap:round;stroke-dashoffset:6.23623;paint-order:fill markers stroke"
         id="rect8214"
         width="47.484249"
         height="47.484249"
         x="-95.418259"
         y="-226.22855"
         transform="matrix(0.91857709,0.39524185,-0.91857709,0.39524185,0,0)"
         rx="7.4892678"
         ry="7.4892678" /></clipPath><clipPath
       clipPathUnits="userSpaceOnUse"
       id="clipPath10194"><path
         id="path10196"
         style="fill:#1accbe;fill-opacity:1;stroke-width:1.9411;stroke-linecap:round;stroke-linejoin:round;stroke-dashoffset:6.23623;paint-order:fill markers stroke"
         d="m 79.876965,46.134532 c 0.82573,-5.278631 7.213126,-9.310835 12.874317,-11.335008 3.538728,-1.265281 8.121108,-6.687549 8.121108,-6.687549 V 60.358068 H 85.225816 c 0,0 -6.98224,-3.781793 -5.348851,-14.223536 z m 41.990845,0 c -0.82572,-5.278631 -7.21312,-9.310835 -12.87431,-11.335008 -3.53873,-1.265281 -8.12111,-6.687549 -8.12111,-6.687549 v 32.246093 h 15.64657 c 0,0 6.98224,-3.781793 5.34885,-14.223536 z"
         class="UnoptimicedTransforms"
         sodipodi:nodetypes="sscccs"
         transform="matrix(2.5195433,0,0,2.1331062,-134.82525,-220.63422)" /></clipPath></defs><g
     inkscape:label="Layer 1"
     inkscape:groupmode="layer"
     id="layer1"
     transform="translate(1222.6098,-1647.1314)"><g
       id="g12731"
       transform="translate(-151.79294)"
       inkscape:export-filename="Sedekah Jumat.svg"
       inkscape:export-xdpi="96"
       inkscape:export-ydpi="96"><circle
         style="fill:#f2f2f2;fill-opacity:1;stroke:none;stroke-width:10;stroke-linecap:round;stroke-dashoffset:6.23623;paint-order:fill markers stroke"
         id="path12328"
         cx="-1004.5874"
         cy="1713.3608"
         r="66.229385" /><g
         id="g12691"
         transform="matrix(0.8036562,0,0,0.8036562,-1071.64,1763.7509)"
         style="stroke-width:1.24431"><path
           id="path12675"
           style="fill:#1accbe;fill-opacity:1;stroke-width:2.41533;stroke-linecap:round;stroke-linejoin:round;stroke-dashoffset:6.23623;paint-order:fill markers stroke"
           d="m 79.876965,46.134532 c 0.82573,-5.278631 7.213126,-9.310835 12.874317,-11.335008 3.538728,-1.265281 8.121108,-6.687549 8.121108,-6.687549 V 60.358068 H 85.225816 c 0,0 -6.98224,-3.781793 -5.348851,-14.223536 z m 41.990845,0 c -0.82572,-5.278631 -7.21312,-9.310835 -12.87431,-11.335008 -3.53873,-1.265281 -8.12111,-6.687549 -8.12111,-6.687549 v 32.246093 h 15.64657 c 0,0 6.98224,-3.781793 5.34885,-14.223536 z"
           class="UnoptimicedTransforms"
           sodipodi:nodetypes="sscccs"
           transform="matrix(2.5195433,0,0,2.1331062,-169.75025,-165.60089)" /><path
           id="path12677"
           style="color:#000000;fill:#fe9e2e;stroke-width:5.59944;stroke-linecap:round;stroke-linejoin:round;stroke-dashoffset:6.23623;paint-order:fill markers stroke"
           d="m 81.931948,-129.3797 a 0.33153435,0.33153435 0 0 0 -0.13866,0.016 c -3.6634,1.2135 -6.53269,4.09621 -7.72927,7.76517 a 0.33153435,0.33153435 0 0 0 -7e-5,2e-4 c -2.07341,6.37653 1.41946,13.23551 7.79598,15.30895 a 0.33153435,0.33153435 0 0 0 1.9e-4,5e-5 c 4.90585,1.59101 10.28463,-0.0904 13.41044,-4.19275 a 0.33153435,0.33153435 0 0 0 -0.36832,-0.51527 c -2.32438,0.77377 -4.83522,0.78396 -7.16584,0.0291 -6.03559,-1.96259 -9.33292,-8.4372 -7.37065,-14.47287 l 5e-5,-2e-4 5e-5,-1.8e-4 c 0.40159,-1.22849 1.00908,-2.37975 1.79473,-3.40607 a 0.33153435,0.33153435 0 0 0 -0.0962,-0.48783 0.33153435,0.33153435 0 0 0 -0.13241,-0.0433 z" /><circle
           style="fill:#1eb8b0;fill-opacity:1;stroke:none;stroke-width:12.4431;stroke-linecap:round;stroke-dashoffset:6.23623;paint-order:fill markers stroke"
           id="circle12679"
           cx="65.087502"
           cy="-111.65417"
           r="73.025002"
           clip-path="url(#clipPath10194)"
           transform="translate(-34.924999,55.033332)" /><path
           id="path12681"
           style="fill:#fe9e2e;fill-opacity:1;stroke:none;stroke-width:12.4431;stroke-linecap:round;stroke-dashoffset:6.23623;paint-order:fill markers stroke"
           d="m 45.612718,-60.045931 5e-6,37.536194 0.122469,2e-6 c 0.287006,0.865424 1.206982,1.700381 2.760556,2.368847 l 29.85916,12.8472757 c 3.81122,1.639878 9.94763,1.639878 13.75885,0 L 121.97291,-20.140887 c 1.55358,-0.668469 2.47356,-1.503425 2.76056,-2.368847 l 0.12247,-2e-6 1e-5,-37.536195 z" /><rect
           style="fill:#f6b548;fill-opacity:1;stroke:none;stroke-width:12.4431;stroke-linecap:round;stroke-dashoffset:6.23623;paint-order:fill markers stroke"
           id="rect12683"
           width="66.674995"
           height="88.900002"
           x="120.91458"
           y="-132.29167"
           rx="0"
           ry="0"
           clip-path="url(#clipPath8010)"
           transform="translate(-34.924999,48.154168)" /><rect
           style="fill:#fd5239;fill-opacity:1;stroke:none;stroke-width:14.6025;stroke-linecap:round;stroke-dashoffset:6.23623;paint-order:fill markers stroke"
           id="rect12685"
           width="47.484249"
           height="47.484249"
           x="-53.511318"
           y="-146.30086"
           transform="matrix(0.91857709,0.39524185,-0.91857709,0.39524185,0,0)"
           rx="7.4892678"
           ry="7.4892678" /><ellipse
           style="fill:#f86839;fill-opacity:1;stroke:none;stroke-width:12.4431;stroke-linecap:round;stroke-dashoffset:6.23623;paint-order:fill markers stroke"
           id="ellipse12687"
           cx="141.28749"
           cy="-100.67395"
           rx="39.158329"
           ry="26.326038"
           clip-path="url(#clipPath8212)"
           transform="translate(-34.924999,48.154168)" /><rect
           style="fill:#ffffff;fill-opacity:1;stroke:none;stroke-width:12.4431;stroke-linecap:round;stroke-dashoffset:6.23623;paint-order:fill markers stroke"
           id="rect12689"
           width="40.481251"
           height="3.9687498"
           x="64.993706"
           y="-62.71986"
           rx="1.9843749"
           ry="1.9843749" /></g></g><rect
       style="fill:none;fill-opacity:1;stroke:#000000;stroke-width:2.53763;stroke-linecap:round;stroke-linejoin:round;stroke-dashoffset:6.23623;paint-order:fill markers stroke"
       id="rect12715"
       width="577.36932"
       height="276.19131"
       x="-1346.384"
       y="1561.769" /></g></svg>
