<?xml version="1.0" encoding="UTF-8" standalone="no"?>
<!-- Created with Inkscape (http://www.inkscape.org/) -->

<svg
   width="132.29175mm"
   height="132.29163mm"
   viewBox="0 0 132.29175 132.29163"
   version="1.1"
   id="svg5"
   xml:space="preserve"
   inkscape:version="1.2 (dc2aedaf03, 2022-05-15)"
   sodipodi:docname="drawing.svg.2025_01_17_15_17_03.0.svg"
   xmlns:inkscape="http://www.inkscape.org/namespaces/inkscape"
   xmlns:sodipodi="http://sodipodi.sourceforge.net/DTD/sodipodi-0.dtd"
   xmlns="http://www.w3.org/2000/svg"
   xmlns:svg="http://www.w3.org/2000/svg"><sodipodi:namedview
     id="namedview7"
     pagecolor="#ffffff"
     bordercolor="#ffffff"
     borderopacity="1"
     inkscape:showpageshadow="0"
     inkscape:pageopacity="0"
     inkscape:pagecheckerboard="0"
     inkscape:deskcolor="#ffffff"
     inkscape:document-units="mm"
     showgrid="true"
     showborder="false"
     showguides="true"
     inkscape:zoom="0.1767767"
     inkscape:cx="-3753.3227"
     inkscape:cy="6491.2401"
     inkscape:window-width="1920"
     inkscape:window-height="1051"
     inkscape:window-x="-9"
     inkscape:window-y="-9"
     inkscape:window-maximized="1"
     inkscape:current-layer="layer1"><inkscape:grid
       type="xygrid"
       id="grid182"
       spacingx="2.6458333"
       spacingy="2.6458333"
       color="#89c7e5"
       opacity="0.16862745"
       empcolor="#89c7e5"
       empopacity="0.16862745"
       visible="true" /><sodipodi:guide
       position="2422.5033,-1931.6349"
       orientation="-1,0"
       id="guide292"
       inkscape:locked="false"
       inkscape:label=""
       inkscape:color="rgb(237,51,59)" /><sodipodi:guide
       position="2475.7066,-1745.7091"
       orientation="-1,0"
       id="guide352"
       inkscape:locked="false"
       inkscape:label=""
       inkscape:color="rgb(0,134,229)" /><sodipodi:guide
       position="2607.5793,-1742.5485"
       orientation="-1,0"
       id="guide354"
       inkscape:locked="false"
       inkscape:label=""
       inkscape:color="rgb(0,134,229)" /><sodipodi:guide
       position="2608.9519,-1804.461"
       orientation="0,-1"
       id="guide360"
       inkscape:locked="false" /><sodipodi:guide
       position="2488.6491,-1677.461"
       orientation="1,0"
       id="guide388"
       inkscape:locked="false" /><sodipodi:guide
       position="2537.8616,-1685.1339"
       orientation="0,-1"
       id="guide390"
       inkscape:locked="false" /><sodipodi:guide
       position="2594.4825,-1674.9475"
       orientation="1,0"
       id="guide392"
       inkscape:locked="false" /><sodipodi:guide
       position="2497.7129,-1791.8966"
       orientation="0,-1"
       id="guide394"
       inkscape:locked="false" /><sodipodi:guide
       position="2572.2575,-1672.1693"
       orientation="0,-1"
       id="guide5821"
       inkscape:locked="false" /></sodipodi:namedview><defs
     id="defs2"><clipPath
       clipPathUnits="userSpaceOnUse"
       id="clipPath4312-9"><path
         id="path4314-0"
         style="fill:#fd6939;fill-opacity:1;stroke-width:0.686906;stroke-linecap:round;stroke-linejoin:round;stroke-dashoffset:6.23623;paint-order:fill markers stroke"
         d="m 100.26972,-139.23308 a 11.626523,11.626523 0 0 0 0,16.44231 11.626523,11.626523 0 0 0 0.29209,0.27097 c 0.036,0.0486 0.0747,0.0959 0.11887,0.14001 l 15.74491,15.74492 0.0183,0.0182 c 0.22281,0.22279 0.51332,0.33484 0.80711,0.33884 0.008,2.1e-4 0.0158,5.3e-4 0.0237,5.3e-4 0.008,-4e-5 0.0158,-5.3e-4 0.0237,-5.3e-4 0.29378,-0.004 0.5843,-0.11605 0.80709,-0.33884 l 14.78084,-14.78082 0.98233,-0.98232 c 0.0442,-0.0442 0.0829,-0.0914 0.11885,-0.14002 a 11.626523,11.626523 0 0 0 0.29212,-0.27096 11.626523,11.626523 0 0 0 0,-16.44232 11.626523,11.626523 0 0 0 -16.44243,-9e-5 11.626523,11.626523 0 0 0 -0.27115,0.29229 c -0.0485,0.0359 -0.0957,0.0746 -0.13983,0.11866 l -0.15151,0.15154 -0.15154,-0.15154 c -0.0439,-0.0439 -0.0911,-0.0825 -0.13953,-0.11838 a 11.626523,11.626523 0 0 0 -0.27142,-0.29257 11.626523,11.626523 0 0 0 -16.44243,9e-5 z" /></clipPath><clipPath
       clipPathUnits="userSpaceOnUse"
       id="clipPath4673-7"><path
         d="m 146.97604,-58.622774 v -14.163471 c 0,-2.203204 -0.94423,-4.406419 -2.83269,-5.665391 -3.77693,-3.147436 -8.81284,-5.35065 -13.84874,-6.609622 -3.46219,-0.944232 -7.55385,-1.888461 -11.64551,-1.888461 -3.77695,0 -7.86861,0.629491 -11.64554,1.888461 -5.0359,1.258972 -9.757049,3.776927 -13.848729,6.609622 -1.888461,1.573723 -2.83269,3.462187 -2.83269,5.665391 v 14.163471 z"
         id="path4675-9"
         style="fill:#1eb8b0;fill-opacity:1;stroke-width:1.57372" /></clipPath><clipPath
       clipPathUnits="userSpaceOnUse"
       id="clipPath4681-2"><path
         d="m 89.377909,-83.487535 v 0 c 4.406416,-3.147446 9.442304,-5.665388 14.478211,-7.239111 -3.46218,-3.776927 -5.665377,-8.498086 -5.665377,-13.848734 0,-0.31474 0,-0.31474 0,-0.62949 -1.888461,-0.62949 -3.776935,-1.57372 -5.665396,-1.88847 -3.462184,-0.94423 -7.553854,-1.88847 -11.645524,-1.88847 -3.77693,0 -7.8686,0.6295 -11.645527,1.88847 -5.035902,1.57372 -9.757061,3.77693 -13.848731,6.60963 -1.888463,1.258978 -2.832698,3.462182 -2.832698,5.665399 v 14.163471 h 33.992344 c 0.944232,-1.258983 1.573723,-1.888461 2.832698,-2.832695 z"
         id="path4683-1"
         style="fill:#1eb8b0;fill-opacity:1;stroke-width:1.57372" /></clipPath><clipPath
       clipPathUnits="userSpaceOnUse"
       id="clipPath4689-8"><path
         d="m 181.91261,-100.48371 c -3.77692,-3.14744 -8.81282,-5.35065 -13.84872,-6.60963 -3.46219,-0.94423 -7.55387,-1.88847 -11.64554,-1.88847 -3.77692,0 -7.86859,0.6295 -11.64551,1.88847 -1.88847,0.62949 -3.77693,1.25898 -5.6654,2.20322 v 0.31474 c 0,5.350648 -2.20321,10.386547 -5.66539,13.848734 5.98014,1.888463 10.7013,4.406418 14.47822,7.239111 0.94423,0.944234 1.88846,1.573712 2.51796,2.832695 h 34.30708 v -14.163471 c 0,-2.203217 -0.94424,-4.406421 -2.8327,-5.665399 z"
         id="path4691-9"
         style="fill:#1eb8b0;fill-opacity:1;stroke-width:1.57372" /></clipPath></defs><g
     inkscape:label="Layer 1"
     inkscape:groupmode="layer"
     id="layer1"
     transform="translate(2422.5032,1989.6693)"><path
       id="circle6183"
       style="fill:#f2f2f2;stroke-width:29.1967;stroke-linecap:round;stroke-linejoin:round;stroke-dashoffset:6.23623;paint-order:stroke fill markers"
       d="m -2290.2116,-1923.5234 a 66.145836,66.145836 0 0 1 -66.1458,66.1458 66.145836,66.145836 0 0 1 -66.1459,-66.1458 66.145836,66.145836 0 0 1 66.1459,-66.1459 66.145836,66.145836 0 0 1 66.1458,66.1459 z"
       inkscape:export-filename=".\donasi bersama.png"
       inkscape:export-xdpi="96"
       inkscape:export-ydpi="96" /><g
       id="g6313"
       transform="matrix(0.67032682,0,0,0.67032682,-2435.8911,-1844.2783)"><path
         id="circle6289"
         style="fill:#fe9e2e;stroke-width:1.57372"
         d="m 95.04329,-126.92219 a 14.163476,14.163476 0 0 1 -14.163476,14.16348 14.163476,14.163476 0 0 1 -14.163476,-14.16348 14.163476,14.163476 0 0 1 14.163476,-14.16347 14.163476,14.163476 0 0 1 14.163476,14.16347 z" /><path
         id="circle6291"
         style="fill:#fe9e2e;stroke-width:1.57372"
         d="m 170.58184,-126.92219 a 14.163476,14.163476 0 0 1 -14.16347,14.16348 14.163476,14.163476 0 0 1 -14.16348,-14.16348 14.163476,14.163476 0 0 1 14.16348,-14.16347 14.163476,14.163476 0 0 1 14.16347,14.16347 z" /><path
         d="m 146.97604,-58.622773 v -14.163473 c 0,-2.203203 -0.94423,-4.406419 -2.83269,-5.66539 -3.77693,-3.147435 -8.81284,-5.35065 -13.84874,-6.609621 -3.46219,-0.944232 -7.55385,-1.888463 -11.64551,-1.888463 -3.77695,0 -7.86861,0.629492 -11.64554,1.888463 -5.0359,1.258971 -9.757048,3.776927 -13.848728,6.609621 -1.888461,1.573724 -2.832691,3.462187 -2.832691,5.66539 v 14.163473 z"
         id="path6293"
         style="fill:#1eb8b0;fill-opacity:1;stroke-width:1.57372" /><path
         id="circle6295"
         style="fill:#fe9e2e;stroke-width:1.57372"
         d="m 132.81259,-104.89011 a 14.163476,14.163476 0 0 1 -14.16347,14.16348 14.163476,14.163476 0 0 1 -14.16348,-14.16348 14.163476,14.163476 0 0 1 14.16348,-14.16347 14.163476,14.163476 0 0 1 14.16347,14.16347 z" /><path
         d="m 181.91261,-100.48371 c -3.77692,-3.14744 -8.81282,-5.35065 -13.84872,-6.60963 -3.46219,-0.94423 -7.55387,-1.88847 -11.64554,-1.88847 -3.77692,0 -7.86859,0.6295 -11.64551,1.88847 -1.88847,0.62949 -3.77693,1.25898 -5.6654,2.20322 v 0.31474 c 0,5.350649 -2.20321,10.386547 -5.66539,13.848734 5.98014,1.888463 10.7013,4.406418 14.47822,7.239112 0.94423,0.944232 1.88846,1.573711 2.51796,2.832695 h 34.30708 v -14.163473 c 0,-2.203216 -0.94424,-4.406419 -2.8327,-5.665398 z"
         id="path6297"
         style="fill:#1eb8b0;fill-opacity:1;stroke-width:1.57372" /><path
         d="m 89.37791,-83.487534 v 0 c 4.406416,-3.147447 9.442303,-5.665389 14.47821,-7.239112 -3.46218,-3.776927 -5.665378,-8.498085 -5.665378,-13.848734 0,-0.31474 0,-0.31474 0,-0.62949 -1.888461,-0.62949 -3.776933,-1.57372 -5.665394,-1.88847 -3.462185,-0.94423 -7.553855,-1.88847 -11.645526,-1.88847 -3.776928,0 -7.868598,0.6295 -11.645526,1.88847 -5.035903,1.57372 -9.75706,3.77693 -13.848732,6.60963 -1.888463,1.258979 -2.832696,3.462182 -2.832696,5.665398 v 14.163473 h 33.992343 c 0.944233,-1.258984 1.573722,-1.888463 2.832699,-2.832695 z"
         id="path6299"
         style="fill:#1eb8b0;fill-opacity:1;stroke-width:1.57372" /><g
         id="g6305"
         transform="matrix(1.2958296,0,0,1.2958296,-33.318888,7.0205286)"
         style="stroke-width:0.771707"><path
           id="path6301"
           style="fill:#fd5239;fill-opacity:1;stroke-width:0.530091;stroke-linecap:round;stroke-linejoin:round;stroke-dashoffset:6.23623;paint-order:fill markers stroke"
           d="m 100.26972,-139.23308 a 11.626523,11.626523 0 0 0 0,16.44231 11.626523,11.626523 0 0 0 0.29209,0.27097 c 0.036,0.0486 0.0747,0.0959 0.11887,0.14001 l 15.74491,15.74492 0.0183,0.0182 c 0.22281,0.22279 0.51332,0.33484 0.80711,0.33884 0.008,2.1e-4 0.0158,5.3e-4 0.0237,5.3e-4 0.008,-4e-5 0.0158,-5.1e-4 0.0237,-5.3e-4 0.29378,-0.004 0.58431,-0.11605 0.8071,-0.33884 l 14.78084,-14.78082 0.98233,-0.98232 c 0.0442,-0.0442 0.0829,-0.0914 0.11885,-0.14002 a 11.626523,11.626523 0 0 0 0.29212,-0.27096 11.626523,11.626523 0 0 0 0,-16.44232 11.626523,11.626523 0 0 0 -16.44243,-9e-5 11.626523,11.626523 0 0 0 -0.27115,0.29229 c -0.0485,0.0359 -0.0957,0.0746 -0.13983,0.11866 l -0.15151,0.15154 -0.15154,-0.15154 c -0.0439,-0.0439 -0.0911,-0.0825 -0.13953,-0.11838 a 11.626523,11.626523 0 0 0 -0.27142,-0.29257 11.626523,11.626523 0 0 0 -16.44243,9e-5 z" /><path
           id="rect6303"
           clip-path="url(#clipPath4312-9)"
           style="fill:#fd6939;stroke-width:11.5757;stroke-linecap:round;stroke-dashoffset:6.23623;paint-order:stroke fill markers"
           d="m 125.3699,-166.62584 h 9.43038 c 10.82952,0 19.54787,8.71835 19.54787,19.54787 v 9.43038 c 0,10.82952 -8.71835,19.54787 -19.54787,19.54787 h -9.43038 c -10.82952,0 -19.54787,-8.71835 -19.54787,-19.54787 v -9.43038 c 0,-10.82952 8.71835,-19.54787 19.54787,-19.54787 z" /></g><path
         id="circle6307"
         clip-path="url(#clipPath4673-7)"
         style="fill:#1accbe;stroke-width:3;stroke-linecap:round;stroke-linejoin:round;stroke-dashoffset:6.23623;paint-order:stroke fill markers"
         d="m 178.90354,-108.74529 a 43.264256,43.264256 0 0 1 -43.26426,43.264253 43.264256,43.264256 0 0 1 -43.264253,-43.264253 43.264256,43.264256 0 0 1 43.264253,-43.26426 43.264256,43.264256 0 0 1 43.26426,43.26426 z" /><path
         id="circle6309"
         clip-path="url(#clipPath4681-2)"
         style="fill:#1accbe;stroke-width:3;stroke-linecap:round;stroke-linejoin:round;stroke-dashoffset:6.23623;paint-order:stroke fill markers"
         d="m 159.16341,-111.62109 a 44.648437,44.648437 0 0 1 -44.64844,44.648434 44.648437,44.648437 0 0 1 -44.648439,-44.648434 44.648437,44.648437 0 0 1 44.648439,-44.64844 44.648437,44.648437 0 0 1 44.64844,44.64844 z" /><path
         id="circle6311"
         clip-path="url(#clipPath4689-8)"
         style="fill:#1accbe;stroke-width:3;stroke-linecap:round;stroke-linejoin:round;stroke-dashoffset:6.23623;paint-order:stroke fill markers"
         d="m 236.47136,-122.7832 a 44.648437,44.648437 0 0 1 -44.64844,44.648434 44.648437,44.648437 0 0 1 -44.64844,-44.648434 44.648437,44.648437 0 0 1 44.64844,-44.64844 44.648437,44.648437 0 0 1 44.64844,44.64844 z" /></g><rect
       style="fill:none;fill-opacity:1;stroke:#000000;stroke-width:1.56123;stroke-linecap:round;stroke-linejoin:round;stroke-dashoffset:6.23623;paint-order:fill markers stroke"
       id="rect6799"
       width="725.88928"
       height="557.75635"
       x="-2489.2063"
       y="-2205.6279" /></g></svg>
