<?xml version="1.0" encoding="UTF-8" standalone="no"?>
<!-- Created with Inkscape (http://www.inkscape.org/) -->

<svg
   width="132.29163mm"
   height="132.29163mm"
   viewBox="0 0 132.29163 132.29163"
   version="1.1"
   id="svg5"
   xml:space="preserve"
   inkscape:version="1.2 (dc2aedaf03, 2022-05-15)"
   sodipodi:docname="drawing.svg.2025_01_17_15_17_03.0.svg"
   xmlns:inkscape="http://www.inkscape.org/namespaces/inkscape"
   xmlns:sodipodi="http://sodipodi.sourceforge.net/DTD/sodipodi-0.dtd"
   xmlns="http://www.w3.org/2000/svg"
   xmlns:svg="http://www.w3.org/2000/svg"><sodipodi:namedview
     id="namedview7"
     pagecolor="#ffffff"
     bordercolor="#ffffff"
     borderopacity="1"
     inkscape:showpageshadow="0"
     inkscape:pageopacity="0"
     inkscape:pagecheckerboard="0"
     inkscape:deskcolor="#ffffff"
     inkscape:document-units="mm"
     showgrid="true"
     showborder="false"
     showguides="true"
     inkscape:zoom="0.1767767"
     inkscape:cx="-3753.3227"
     inkscape:cy="6491.2401"
     inkscape:window-width="1920"
     inkscape:window-height="1051"
     inkscape:window-x="-9"
     inkscape:window-y="-9"
     inkscape:window-maximized="1"
     inkscape:current-layer="layer1"><inkscape:grid
       type="xygrid"
       id="grid182"
       spacingx="2.6458333"
       spacingy="2.6458333"
       color="#89c7e5"
       opacity="0.16862745"
       empcolor="#89c7e5"
       empopacity="0.16862745"
       visible="true" /><sodipodi:guide
       position="1945.7817,-2099.9263"
       orientation="-1,0"
       id="guide292"
       inkscape:locked="false"
       inkscape:label=""
       inkscape:color="rgb(237,51,59)" /><sodipodi:guide
       position="1998.9851,-1914.0005"
       orientation="-1,0"
       id="guide352"
       inkscape:locked="false"
       inkscape:label=""
       inkscape:color="rgb(0,134,229)" /><sodipodi:guide
       position="2130.8578,-1910.8399"
       orientation="-1,0"
       id="guide354"
       inkscape:locked="false"
       inkscape:label=""
       inkscape:color="rgb(0,134,229)" /><sodipodi:guide
       position="2132.2303,-1972.7524"
       orientation="0,-1"
       id="guide360"
       inkscape:locked="false" /><sodipodi:guide
       position="2011.9276,-1845.7524"
       orientation="1,0"
       id="guide388"
       inkscape:locked="false" /><sodipodi:guide
       position="2061.14,-1853.4253"
       orientation="0,-1"
       id="guide390"
       inkscape:locked="false" /><sodipodi:guide
       position="2117.7609,-1843.2388"
       orientation="1,0"
       id="guide392"
       inkscape:locked="false" /><sodipodi:guide
       position="2020.9914,-1960.188"
       orientation="0,-1"
       id="guide394"
       inkscape:locked="false" /><sodipodi:guide
       position="2095.5359,-1840.4607"
       orientation="0,-1"
       id="guide5821"
       inkscape:locked="false" /></sodipodi:namedview><defs
     id="defs2"><clipPath
       clipPathUnits="userSpaceOnUse"
       id="clipPath4312"><path
         id="path4314"
         style="fill:#fd6939;fill-opacity:1;stroke-width:0.686906;stroke-linecap:round;stroke-linejoin:round;stroke-dashoffset:6.23623;paint-order:fill markers stroke"
         d="m 100.26972,-139.23308 a 11.626523,11.626523 0 0 0 0,16.44231 11.626523,11.626523 0 0 0 0.29209,0.27097 c 0.036,0.0486 0.0747,0.0959 0.11887,0.14001 l 15.74491,15.74492 0.0183,0.0182 c 0.22281,0.22279 0.51332,0.33484 0.80711,0.33884 0.008,2.1e-4 0.0158,5.3e-4 0.0237,5.3e-4 0.008,-4e-5 0.0158,-5.3e-4 0.0237,-5.3e-4 0.29378,-0.004 0.5843,-0.11605 0.80709,-0.33884 l 14.78084,-14.78082 0.98233,-0.98232 c 0.0442,-0.0442 0.0829,-0.0914 0.11885,-0.14002 a 11.626523,11.626523 0 0 0 0.29212,-0.27096 11.626523,11.626523 0 0 0 0,-16.44232 11.626523,11.626523 0 0 0 -16.44243,-9e-5 11.626523,11.626523 0 0 0 -0.27115,0.29229 c -0.0485,0.0359 -0.0957,0.0746 -0.13983,0.11866 l -0.15151,0.15154 -0.15154,-0.15154 c -0.0439,-0.0439 -0.0911,-0.0825 -0.13953,-0.11838 a 11.626523,11.626523 0 0 0 -0.27142,-0.29257 11.626523,11.626523 0 0 0 -16.44243,9e-5 z" /></clipPath><clipPath
       clipPathUnits="userSpaceOnUse"
       id="clipPath25242"><path
         id="path25244"
         style="fill:#1eb8b0;fill-opacity:1;stroke:none;stroke-width:3;stroke-linecap:round;stroke-linejoin:round;stroke-dasharray:none;stroke-dashoffset:6.23623;stroke-opacity:1;paint-order:stroke fill markers"
         d="m 1169.3277,-385.12787 c -8.2938,0 -14.9707,6.67692 -14.9707,14.97068 v 62.34192 c 0,8.29373 6.6769,14.97065 14.9707,14.97065 h 88.2943 c 8.2937,0 14.9707,-6.67692 14.9707,-14.97065 v -62.34192 c 0,-8.29376 -6.677,-14.97068 -14.9707,-14.97068 z m -2.4831,26.13742 h 93.2605 v 40.90913 c 0,5.44534 -4.3836,9.82885 -9.8289,9.82885 h -73.6027 c -5.4454,0 -9.8289,-4.38351 -9.8289,-9.82885 z" /></clipPath><clipPath
       clipPathUnits="userSpaceOnUse"
       id="clipPath25250"><path
         id="path25252"
         style="fill:#fe9e2e;fill-opacity:1;stroke:none;stroke-width:3;stroke-linecap:round;stroke-linejoin:round;stroke-dasharray:none;stroke-dashoffset:6.23623;stroke-opacity:1;paint-order:stroke fill markers"
         d="m 1184.8263,-401.88645 c -2.5489,0 -4.6009,2.05195 -4.6009,4.6009 v 20.02107 c 0,2.54894 2.052,4.60089 4.6009,4.60089 h 7.6235 c 2.549,0 4.6009,-2.05195 4.6009,-4.60089 v -20.02107 c 0,-2.54895 -2.0519,-4.6009 -4.6009,-4.6009 z m 49.6736,0 c -2.549,0 -4.601,2.05195 -4.601,4.6009 v 20.02107 c 0,2.54894 2.052,4.60089 4.601,4.60089 h 7.6234 c 2.549,0 4.6009,-2.05195 4.6009,-4.60089 v -20.02107 c 0,-2.54895 -2.0519,-4.6009 -4.6009,-4.6009 z" /></clipPath></defs><g
     inkscape:label="Layer 1"
     inkscape:groupmode="layer"
     id="layer1"
     transform="translate(1945.7817,2157.9606)"><path
       id="circle6181"
       style="fill:#f2f2f2;stroke-width:29.1967;stroke-linecap:round;stroke-linejoin:round;stroke-dashoffset:6.23623;paint-order:stroke fill markers"
       d="m -1813.4899,-2091.8147 a 66.145836,66.145836 0 0 1 -66.1458,66.1458 66.145836,66.145836 0 0 1 -66.1459,-66.1458 66.145836,66.145836 0 0 1 66.1459,-66.1458 66.145836,66.145836 0 0 1 66.1458,66.1458 z"
       inkscape:export-filename=".\donasi rutin.png"
       inkscape:export-xdpi="96"
       inkscape:export-ydpi="96" /><g
       id="g6287"
       transform="matrix(0.67561565,0,0,0.67561565,-2700.403,-1861.627)"><path
         id="path6249"
         style="fill:#fe9e2e;fill-opacity:1;stroke:none;stroke-width:3;stroke-linecap:round;stroke-linejoin:round;stroke-dasharray:none;stroke-dashoffset:6.23623;stroke-opacity:1;paint-order:stroke fill markers"
         d="m 1184.8263,-401.88645 c -2.5489,0 -4.6009,2.05195 -4.6009,4.6009 v 20.02106 c 0,2.54896 2.052,4.6009 4.6009,4.6009 h 7.6235 c 2.549,0 4.6009,-2.05194 4.6009,-4.6009 v -20.02106 c 0,-2.54895 -2.0519,-4.6009 -4.6009,-4.6009 z m 49.6736,0 c -2.549,0 -4.601,2.05195 -4.601,4.6009 v 20.02106 c 0,2.54896 2.052,4.6009 4.601,4.6009 h 7.6234 c 2.549,0 4.6009,-2.05194 4.6009,-4.6009 v -20.02106 c 0,-2.54895 -2.0519,-4.6009 -4.6009,-4.6009 z" /><path
         id="path6251"
         style="fill:#1eb8b0;fill-opacity:1;stroke:none;stroke-width:3;stroke-linecap:round;stroke-linejoin:round;stroke-dasharray:none;stroke-dashoffset:6.23623;stroke-opacity:1;paint-order:stroke fill markers"
         d="m 1169.3277,-385.12786 c -8.2938,0 -14.9707,6.67692 -14.9707,14.97066 v 62.34193 c 0,8.29373 6.6769,14.97066 14.9707,14.97066 h 88.2943 c 8.2937,0 14.9707,-6.67693 14.9707,-14.97066 v -62.34193 c 0,-8.29374 -6.677,-14.97066 -14.9707,-14.97066 z m -2.4831,26.13742 h 93.2605 v 40.90912 c 0,5.44534 -4.3836,9.82886 -9.8289,9.82886 h -73.6027 c -5.4454,0 -9.8289,-4.38352 -9.8289,-9.82886 z" /><path
         id="path6253"
         style="fill:#1eb8b0;fill-opacity:1;stroke:none;stroke-width:3;stroke-linecap:round;stroke-linejoin:round;stroke-dasharray:none;stroke-dashoffset:6.23623;stroke-opacity:1;paint-order:stroke fill markers"
         d="m 1169.3277,-385.12787 c -8.2938,0 -14.9707,6.67692 -14.9707,14.97068 v 62.34192 c 0,8.29373 6.6769,14.97065 14.9707,14.97065 h 88.2943 c 8.2937,0 14.9707,-6.67692 14.9707,-14.97065 v -62.34192 c 0,-8.29376 -6.677,-14.97068 -14.9707,-14.97068 z m -2.4831,26.13742 h 93.2605 v 40.90913 c 0,5.44534 -4.3836,9.82885 -9.8289,9.82885 h -73.6027 c -5.4454,0 -9.8289,-4.38351 -9.8289,-9.82885 z" /><path
         id="rect6255"
         style="fill:#fe9e2e;stroke-width:3;stroke-linecap:round;stroke-linejoin:round;stroke-dashoffset:6.23623;paint-order:stroke fill markers"
         d="m 1188.0412,-350.34702 h 4.5554 c 1.1416,0 2.0607,1.12918 2.0607,2.53179 v 3.6133 c 0,1.40261 -0.9191,2.53178 -2.0607,2.53178 h -4.5554 c -1.1416,0 -2.0607,-1.12917 -2.0607,-2.53178 v -3.6133 c 0,-1.40261 0.9191,-2.53179 2.0607,-2.53179 z" /><path
         id="rect6257"
         style="fill:#fe9e2e;stroke-width:3;stroke-linecap:round;stroke-linejoin:round;stroke-dashoffset:6.23623;paint-order:stroke fill markers"
         d="m 1199.8788,-350.34702 h 4.5553 c 1.1417,0 2.0608,1.12918 2.0608,2.53179 v 3.6133 c 0,1.40261 -0.9191,2.53178 -2.0608,2.53178 h -4.5553 c -1.1417,0 -2.0608,-1.12917 -2.0608,-2.53178 v -3.6133 c 0,-1.40261 0.9191,-2.53179 2.0608,-2.53179 z" /><path
         id="rect6259"
         style="fill:#fe9e2e;stroke-width:3;stroke-linecap:round;stroke-linejoin:round;stroke-dashoffset:6.23623;paint-order:stroke fill markers"
         d="m 1211.7163,-350.34702 h 4.5553 c 1.1417,0 2.0608,1.12918 2.0608,2.53179 v 3.6133 c 0,1.40261 -0.9191,2.53178 -2.0608,2.53178 h -4.5553 c -1.1417,0 -2.0608,-1.12917 -2.0608,-2.53178 v -3.6133 c 0,-1.40261 0.9191,-2.53179 2.0608,-2.53179 z" /><path
         id="rect6261"
         style="fill:#fe9e2e;stroke-width:3;stroke-linecap:round;stroke-linejoin:round;stroke-dashoffset:6.23623;paint-order:stroke fill markers"
         d="m 1188.0412,-337.56863 h 4.5554 c 1.1416,0 2.0607,1.12917 2.0607,2.53178 v 3.6133 c 0,1.40261 -0.9191,2.53179 -2.0607,2.53179 h -4.5554 c -1.1416,0 -2.0607,-1.12918 -2.0607,-2.53179 v -3.6133 c 0,-1.40261 0.9191,-2.53178 2.0607,-2.53178 z" /><path
         id="rect6263"
         style="fill:#fe9e2e;stroke-width:3;stroke-linecap:round;stroke-linejoin:round;stroke-dashoffset:6.23623;paint-order:stroke fill markers"
         d="m 1199.8788,-337.56863 h 4.5553 c 1.1417,0 2.0608,1.12917 2.0608,2.53178 v 3.6133 c 0,1.40261 -0.9191,2.53179 -2.0608,2.53179 h -4.5553 c -1.1417,0 -2.0608,-1.12918 -2.0608,-2.53179 v -3.6133 c 0,-1.40261 0.9191,-2.53178 2.0608,-2.53178 z" /><path
         id="rect6265"
         style="fill:#fe9e2e;stroke-width:3;stroke-linecap:round;stroke-linejoin:round;stroke-dashoffset:6.23623;paint-order:stroke fill markers"
         d="m 1211.7163,-337.56863 h 4.5553 c 1.1417,0 2.0608,1.12917 2.0608,2.53178 v 3.6133 c 0,1.40261 -0.9191,2.53179 -2.0608,2.53179 h -4.5553 c -1.1417,0 -2.0608,-1.12918 -2.0608,-2.53179 v -3.6133 c 0,-1.40261 0.9191,-2.53178 2.0608,-2.53178 z" /><path
         id="rect6267"
         style="fill:#fe9e2e;stroke-width:3;stroke-linecap:round;stroke-linejoin:round;stroke-dashoffset:6.23623;paint-order:stroke fill markers"
         d="m 1176.5095,-337.56863 h 4.5553 c 1.1417,0 2.0608,1.12917 2.0608,2.53178 v 3.6133 c 0,1.40261 -0.9191,2.53179 -2.0608,2.53179 h -4.5553 c -1.1417,0 -2.0608,-1.12918 -2.0608,-2.53179 v -3.6133 c 0,-1.40261 0.9191,-2.53178 2.0608,-2.53178 z" /><path
         id="rect6269"
         style="fill:#fe9e2e;stroke-width:3;stroke-linecap:round;stroke-linejoin:round;stroke-dashoffset:6.23623;paint-order:stroke fill markers"
         d="m 1188.0412,-325.20166 h 4.5554 c 1.1416,0 2.0607,1.12918 2.0607,2.53179 v 3.61329 c 0,1.40261 -0.9191,2.53179 -2.0607,2.53179 h -4.5554 c -1.1416,0 -2.0607,-1.12918 -2.0607,-2.53179 v -3.61329 c 0,-1.40261 0.9191,-2.53179 2.0607,-2.53179 z" /><path
         id="rect6271"
         style="fill:#fe9e2e;stroke-width:3;stroke-linecap:round;stroke-linejoin:round;stroke-dashoffset:6.23623;paint-order:stroke fill markers"
         d="m 1199.8788,-325.20166 h 4.5553 c 1.1417,0 2.0608,1.12918 2.0608,2.53179 v 3.61329 c 0,1.40261 -0.9191,2.53179 -2.0608,2.53179 h -4.5553 c -1.1417,0 -2.0608,-1.12918 -2.0608,-2.53179 v -3.61329 c 0,-1.40261 0.9191,-2.53179 2.0608,-2.53179 z" /><path
         id="rect6273"
         style="fill:#fe9e2e;stroke-width:3;stroke-linecap:round;stroke-linejoin:round;stroke-dashoffset:6.23623;paint-order:stroke fill markers"
         d="m 1176.5095,-325.20166 h 4.5553 c 1.1417,0 2.0608,1.12918 2.0608,2.53179 v 3.61329 c 0,1.40261 -0.9191,2.53179 -2.0608,2.53179 h -4.5553 c -1.1417,0 -2.0608,-1.12918 -2.0608,-2.53179 v -3.61329 c 0,-1.40261 0.9191,-2.53179 2.0608,-2.53179 z" /><path
         id="path6275"
         style="fill:#f6b548;fill-opacity:1;stroke:none;stroke-width:3;stroke-linecap:round;stroke-linejoin:round;stroke-dasharray:none;stroke-dashoffset:6.23623;stroke-opacity:1;paint-order:stroke fill markers"
         d="m 1189.5888,-401.88645 c -2.5489,0 -4.6009,2.05195 -4.6009,4.6009 v 20.02106 c 0,2.54896 2.052,4.6009 4.6009,4.6009 h 7.6235 c 2.549,0 4.6009,-2.05194 4.6009,-4.6009 v -20.02106 c 0,-2.54895 -2.0519,-4.6009 -4.6009,-4.6009 z m 49.6736,0 c -2.549,0 -4.601,2.05195 -4.601,4.6009 v 20.02106 c 0,2.54896 2.052,4.6009 4.601,4.6009 h 7.6234 c 2.549,0 4.6009,-2.05194 4.6009,-4.6009 v -20.02106 c 0,-2.54895 -2.0519,-4.6009 -4.6009,-4.6009 z"
         clip-path="url(#clipPath25250)" /><path
         id="path6277"
         style="fill:#1eb8b0;fill-opacity:1;stroke:none;stroke-width:3;stroke-linecap:round;stroke-linejoin:round;stroke-dasharray:none;stroke-dashoffset:6.23623;stroke-opacity:1;paint-order:stroke fill markers"
         d="m 1169.3277,-385.12787 c -8.2938,0 -14.9707,6.67692 -14.9707,14.97068 v 62.34192 c 0,8.29373 6.6769,14.97065 14.9707,14.97065 h 88.2943 c 8.2937,0 14.9707,-6.67692 14.9707,-14.97065 v -62.34192 c 0,-8.29376 -6.677,-14.97068 -14.9707,-14.97068 z m -2.4831,26.13742 h 93.2605 v 40.90913 c 0,5.44534 -4.3836,9.82885 -9.8289,9.82885 h -73.6027 c -5.4454,0 -9.8289,-4.38351 -9.8289,-9.82885 z" /><path
         id="circle6279"
         clip-path="url(#clipPath25242)"
         style="opacity:1;fill:#1accbe;stroke-width:3;stroke-linecap:round;stroke-linejoin:round;stroke-dashoffset:6.23623;paint-order:stroke fill markers"
         d="m 1379.7789,-360.14572 a 95.882935,95.882935 0 0 1 -95.8829,95.88293 95.882935,95.882935 0 0 1 -95.8829,-95.88293 95.882935,95.882935 0 0 1 95.8829,-95.88294 95.882935,95.882935 0 0 1 95.8829,95.88294 z" /><g
         id="g6285"
         transform="matrix(1.2407202,0,0,1.2407202,1113.9009,-147.66949)"
         style="stroke-width:0.80598"><path
           id="path6281"
           style="fill:#fd5239;fill-opacity:1;stroke-width:0.553636;stroke-linecap:round;stroke-linejoin:round;stroke-dashoffset:6.23623;paint-order:fill markers stroke"
           d="m 91.114795,-147.29683 a 14.471348,14.471348 0 0 0 0,20.46548 14.471348,14.471348 0 0 0 0.363559,0.33728 c 0.04481,0.0605 0.09298,0.11933 0.147956,0.17426 l 19.59744,19.59746 0.0228,0.0227 c 0.27732,0.27731 0.63891,0.41677 1.00459,0.42175 0.009,2.6e-4 0.0196,6.5e-4 0.0295,6.5e-4 0.009,-4e-5 0.0196,-6.2e-4 0.0295,-6.5e-4 0.36566,-0.005 0.72727,-0.14444 1.00458,-0.42175 l 18.39747,-18.39746 1.22269,-1.22267 c 0.0551,-0.0549 0.10312,-0.11378 0.14793,-0.17428 a 14.471348,14.471348 0 0 0 0.3636,-0.33725 14.471348,14.471348 0 0 0 0,-20.4655 14.471348,14.471348 0 0 0 -20.46562,-1.2e-4 14.471348,14.471348 0 0 0 -0.33752,0.36382 c -0.0604,0.0447 -0.11907,0.0928 -0.17403,0.14768 l -0.18858,0.18862 -0.18862,-0.18862 c -0.0546,-0.0546 -0.11343,-0.10271 -0.17367,-0.14734 a 14.471348,14.471348 0 0 0 -0.33783,-0.36416 14.471348,14.471348 0 0 0 -20.465634,1.2e-4 z" /><path
           id="rect6283"
           clip-path="url(#clipPath4312)"
           style="fill:#fd6939;stroke-width:9.71322;stroke-linecap:round;stroke-dashoffset:6.23623;paint-order:stroke fill markers"
           transform="matrix(1.2446841,0,0,1.2446841,-33.689326,26.004363)"
           d="m 125.3699,-166.62584 h 9.43038 c 10.82952,0 19.54787,8.71835 19.54787,19.54787 v 9.43038 c 0,10.82952 -8.71835,19.54787 -19.54787,19.54787 h -9.43038 c -10.82952,0 -19.54787,-8.71835 -19.54787,-19.54787 v -9.43038 c 0,-10.82952 8.71835,-19.54787 19.54787,-19.54787 z" /></g></g><rect
       style="fill:none;fill-opacity:1;stroke:#000000;stroke-width:1.56123;stroke-linecap:round;stroke-linejoin:round;stroke-dashoffset:6.23623;paint-order:fill markers stroke"
       id="rect6799"
       width="725.88928"
       height="557.75635"
       x="-2489.2063"
       y="-2205.6279" /></g></svg>
