<?xml version="1.0" encoding="UTF-8" standalone="no"?>
<!-- Created with Inkscape (http://www.inkscape.org/) -->

<svg
   width="132.2915mm"
   height="132.29163mm"
   viewBox="0 0 132.2915 132.29163"
   version="1.1"
   id="svg5"
   xml:space="preserve"
   inkscape:version="1.2 (dc2aedaf03, 2022-05-15)"
   sodipodi:docname="drawing.svg.2025_01_17_15_17_03.0.svg"
   xmlns:inkscape="http://www.inkscape.org/namespaces/inkscape"
   xmlns:sodipodi="http://sodipodi.sourceforge.net/DTD/sodipodi-0.dtd"
   xmlns="http://www.w3.org/2000/svg"
   xmlns:svg="http://www.w3.org/2000/svg"><sodipodi:namedview
     id="namedview7"
     pagecolor="#ffffff"
     bordercolor="#ffffff"
     borderopacity="1"
     inkscape:showpageshadow="0"
     inkscape:pageopacity="0"
     inkscape:pagecheckerboard="0"
     inkscape:deskcolor="#ffffff"
     inkscape:document-units="mm"
     showgrid="true"
     showborder="false"
     showguides="true"
     inkscape:zoom="0.1767767"
     inkscape:cx="-3753.3227"
     inkscape:cy="6491.2401"
     inkscape:window-width="1920"
     inkscape:window-height="1051"
     inkscape:window-x="-9"
     inkscape:window-y="-9"
     inkscape:window-maximized="1"
     inkscape:current-layer="layer1"><inkscape:grid
       type="xygrid"
       id="grid182"
       spacingx="2.6458333"
       spacingy="2.6458333"
       color="#89c7e5"
       opacity="0.16862745"
       empcolor="#89c7e5"
       empopacity="0.16862745"
       visible="true" /><sodipodi:guide
       position="2257.4837,-2099.9262"
       orientation="-1,0"
       id="guide292"
       inkscape:locked="false"
       inkscape:label=""
       inkscape:color="rgb(237,51,59)" /><sodipodi:guide
       position="2310.687,-1914.0004"
       orientation="-1,0"
       id="guide352"
       inkscape:locked="false"
       inkscape:label=""
       inkscape:color="rgb(0,134,229)" /><sodipodi:guide
       position="2442.5597,-1910.8398"
       orientation="-1,0"
       id="guide354"
       inkscape:locked="false"
       inkscape:label=""
       inkscape:color="rgb(0,134,229)" /><sodipodi:guide
       position="2443.9322,-1972.7523"
       orientation="0,-1"
       id="guide360"
       inkscape:locked="false" /><sodipodi:guide
       position="2323.6295,-1845.7523"
       orientation="1,0"
       id="guide388"
       inkscape:locked="false" /><sodipodi:guide
       position="2372.842,-1853.4252"
       orientation="0,-1"
       id="guide390"
       inkscape:locked="false" /><sodipodi:guide
       position="2429.4629,-1843.2388"
       orientation="1,0"
       id="guide392"
       inkscape:locked="false" /><sodipodi:guide
       position="2332.6933,-1960.188"
       orientation="0,-1"
       id="guide394"
       inkscape:locked="false" /><sodipodi:guide
       position="2407.2379,-1840.4607"
       orientation="0,-1"
       id="guide5821"
       inkscape:locked="false" /></sodipodi:namedview><defs
     id="defs2"><clipPath
       clipPathUnits="userSpaceOnUse"
       id="clipPath4312"><path
         id="path4314"
         style="fill:#fd6939;fill-opacity:1;stroke-width:0.686906;stroke-linecap:round;stroke-linejoin:round;stroke-dashoffset:6.23623;paint-order:fill markers stroke"
         d="m 100.26972,-139.23308 a 11.626523,11.626523 0 0 0 0,16.44231 11.626523,11.626523 0 0 0 0.29209,0.27097 c 0.036,0.0486 0.0747,0.0959 0.11887,0.14001 l 15.74491,15.74492 0.0183,0.0182 c 0.22281,0.22279 0.51332,0.33484 0.80711,0.33884 0.008,2.1e-4 0.0158,5.3e-4 0.0237,5.3e-4 0.008,-4e-5 0.0158,-5.3e-4 0.0237,-5.3e-4 0.29378,-0.004 0.5843,-0.11605 0.80709,-0.33884 l 14.78084,-14.78082 0.98233,-0.98232 c 0.0442,-0.0442 0.0829,-0.0914 0.11885,-0.14002 a 11.626523,11.626523 0 0 0 0.29212,-0.27096 11.626523,11.626523 0 0 0 0,-16.44232 11.626523,11.626523 0 0 0 -16.44243,-9e-5 11.626523,11.626523 0 0 0 -0.27115,0.29229 c -0.0485,0.0359 -0.0957,0.0746 -0.13983,0.11866 l -0.15151,0.15154 -0.15154,-0.15154 c -0.0439,-0.0439 -0.0911,-0.0825 -0.13953,-0.11838 a 11.626523,11.626523 0 0 0 -0.27142,-0.29257 11.626523,11.626523 0 0 0 -16.44243,9e-5 z" /></clipPath><clipPath
       clipPathUnits="userSpaceOnUse"
       id="clipPath11618"><rect
         style="fill:#fe9e2e;fill-opacity:1;stroke-width:15;stroke-linecap:round;stroke-dashoffset:6.23623;paint-order:stroke fill markers"
         id="rect11620"
         width="120.146"
         height="63.727077"
         x="60.219162"
         y="-92.375031"
         rx="0"
         ry="0" /></clipPath><clipPath
       clipPathUnits="userSpaceOnUse"
       id="clipPath12686"><path
         id="path12688"
         clip-path="none"
         style="fill:#1eb8b0;fill-opacity:1;stroke-width:15;stroke-linecap:round;stroke-dashoffset:6.23623;paint-order:stroke fill markers"
         d="m 509.74771,-307.34921 v 26.97406 c 0,6.89774 5.55265,12.45092 12.45039,12.45092 h 70.98173 c 6.89774,0 12.45039,-5.55318 12.45039,-12.45092 v -26.97406 z" /></clipPath><clipPath
       clipPathUnits="userSpaceOnUse"
       id="clipPath12696"><path
         id="path12698"
         style="fill:#fe9e2e;stroke-width:15;stroke-linecap:round;stroke-dashoffset:6.23623;paint-order:stroke fill markers"
         d="m 509.17946,-337.75089 h 96.3159 c 4.95438,0 6.99775,4.38634 8.94289,8.94292 l 3.7207,8.71587 c 1.94514,4.55655 -3.98851,8.94289 -8.94289,8.94289 H 506.07889 c -4.95438,0 -10.60342,-4.27508 -8.94289,-8.94289 l 3.10057,-8.71587 c 1.66052,-4.66781 3.98854,-8.94292 8.94289,-8.94292 z"
         sodipodi:nodetypes="sssssssss" /></clipPath></defs><g
     inkscape:label="Layer 1"
     inkscape:groupmode="layer"
     id="layer1"
     transform="translate(2257.4837,2157.9606)"><path
       id="circle6177"
       style="fill:#f2f2f2;stroke-width:29.1967;stroke-linecap:round;stroke-linejoin:round;stroke-dashoffset:6.23623;paint-order:stroke fill markers"
       d="m -2125.1921,-2091.8147 a 66.145836,66.145836 0 0 1 -66.1458,66.1458 66.145836,66.145836 0 0 1 -66.1458,-66.1458 66.145836,66.145836 0 0 1 66.1458,-66.1458 66.145836,66.145836 0 0 1 66.1458,66.1458 z"
       inkscape:export-filename="infaq.png"
       inkscape:export-xdpi="96"
       inkscape:export-ydpi="96" /><g
       id="g6211"
       transform="matrix(0.6349495,0,0,0.6349495,-2545.4424,-1881.729)"><g
         id="g6195"><path
           id="rect6191"
           clip-path="url(#clipPath11618)"
           style="fill:#1eb8b0;stroke-width:15;stroke-linecap:round;stroke-dashoffset:6.23623;paint-order:stroke fill markers"
           transform="translate(438.71225,-214.97396)"
           d="m 83.486035,-112.79869 h 70.981325 c 6.89775,0 12.45081,5.55306 12.45081,12.4508 v 34.9469 c 0,6.897744 -5.55306,12.450802 -12.45081,12.450802 H 83.486035 c -6.897744,0 -12.450802,-5.553058 -12.450802,-12.450802 v -34.9469 c 0,-6.89774 5.553058,-12.4508 12.450802,-12.4508 z" /><path
           id="rect6193"
           clip-path="url(#clipPath12686)"
           style="fill:#1accbe;stroke-width:15;stroke-linecap:round;stroke-dashoffset:6.23623;paint-order:stroke fill markers"
           d="m 541.90389,-331.24194 h 50.57134 c 9.87917,0 17.83243,7.95326 17.83243,17.83242 v 17.62678 c 0,9.87916 -7.95326,17.83242 -17.83243,17.83242 h -50.57134 c -9.87916,0 -17.83242,-7.95326 -17.83242,-17.83242 v -17.62678 c 0,-9.87916 7.95326,-17.83242 17.83242,-17.83242 z" /></g><g
         id="g6201"
         transform="matrix(1.4676997,0,0,1.4676997,385.56493,-189.46611)"
         style="stroke-width:0.681339"><path
           id="path6197"
           style="fill:#fd5239;fill-opacity:1;stroke-width:0.468016;stroke-linecap:round;stroke-linejoin:round;stroke-dashoffset:6.23623;paint-order:fill markers stroke"
           d="m 100.26972,-139.23308 a 11.626523,11.626523 0 0 0 0,16.44231 11.626523,11.626523 0 0 0 0.29209,0.27097 c 0.036,0.0486 0.0747,0.0959 0.11887,0.14001 l 15.74491,15.74492 0.0183,0.0182 c 0.22281,0.22279 0.51332,0.33484 0.80711,0.33884 0.008,2.1e-4 0.0158,5.3e-4 0.0237,5.3e-4 0.008,-4e-5 0.0158,-5.1e-4 0.0237,-5.3e-4 0.29378,-0.004 0.58431,-0.11605 0.8071,-0.33884 l 14.78084,-14.78082 0.98233,-0.98232 c 0.0442,-0.0442 0.0829,-0.0914 0.11885,-0.14002 a 11.626523,11.626523 0 0 0 0.29212,-0.27096 11.626523,11.626523 0 0 0 0,-16.44232 11.626523,11.626523 0 0 0 -16.44243,-9e-5 11.626523,11.626523 0 0 0 -0.27115,0.29229 c -0.0485,0.0359 -0.0957,0.0746 -0.13983,0.11866 l -0.15151,0.15154 -0.15154,-0.15154 c -0.0439,-0.0439 -0.0911,-0.0825 -0.13953,-0.11838 a 11.626523,11.626523 0 0 0 -0.27142,-0.29257 11.626523,11.626523 0 0 0 -16.44243,9e-5 z" /><path
           id="rect6199"
           clip-path="url(#clipPath4312)"
           style="fill:#fd6939;stroke-width:10.2202;stroke-linecap:round;stroke-dashoffset:6.23623;paint-order:stroke fill markers"
           d="m 125.3699,-166.62584 h 9.43038 c 10.82952,0 19.54787,8.71835 19.54787,19.54787 v 9.43038 c 0,10.82952 -8.71835,19.54787 -19.54787,19.54787 h -9.43038 c -10.82952,0 -19.54787,-8.71835 -19.54787,-19.54787 v -9.43038 c 0,-10.82952 8.71835,-19.54787 19.54787,-19.54787 z" /></g><g
         id="g6209"><path
           id="path6203"
           style="fill:#fe9e2e;stroke-width:15;stroke-linecap:round;stroke-dashoffset:6.23623;paint-order:stroke fill markers"
           d="m 509.17947,-337.75088 h 96.3159 c 4.95436,0 6.99775,4.38634 8.94289,8.9429 l 3.7207,8.71588 c 1.94514,4.55655 -3.98853,8.94289 -8.94289,8.94289 H 506.07888 c -4.95436,0 -10.60342,-4.27509 -8.94289,-8.94289 l 3.10058,-8.71588 c 1.66053,-4.66781 3.98853,-8.9429 8.9429,-8.9429 z"
           sodipodi:nodetypes="sssssssss" /><path
           id="rect6205"
           clip-path="url(#clipPath12696)"
           style="fill:#f6b548;stroke-width:15;stroke-linecap:round;stroke-dashoffset:6.23623;paint-order:stroke fill markers"
           d="m 537.95288,-331.74686 h 66.72803 c 15.71842,0 28.37259,10.5074 28.37259,23.5592 v 23.98838 c 0,13.0518 -12.65417,23.5592 -28.37259,23.5592 h -66.72803 c -15.71841,0 -28.37259,-10.5074 -28.37259,-23.5592 v -23.98838 c 0,-13.0518 12.65418,-23.5592 28.37259,-23.5592 z" /><path
           id="rect6207"
           style="fill:#ffffff;stroke-width:15;stroke-linecap:round;stroke-dashoffset:6.23623;paint-order:stroke fill markers"
           d="m 534.8875,-327.8118 h 45.60286 c 1.29559,0 2.33861,1.04302 2.33861,2.33861 0,1.29559 -1.04302,2.33861 -2.33861,2.33861 H 534.8875 c -1.29559,0 -2.33861,-1.04302 -2.33861,-2.33861 0,-1.29559 1.04302,-2.33861 2.33861,-2.33861 z" /></g></g><rect
       style="fill:none;fill-opacity:1;stroke:#000000;stroke-width:1.56123;stroke-linecap:round;stroke-linejoin:round;stroke-dashoffset:6.23623;paint-order:fill markers stroke"
       id="rect6799"
       width="725.88928"
       height="557.75635"
       x="-2489.2063"
       y="-2205.6279" /></g></svg>
