<?xml version="1.0" encoding="UTF-8" standalone="no"?>
<!-- Created with Inkscape (http://www.inkscape.org/) -->

<svg
   width="132.29163mm"
   height="132.29163mm"
   viewBox="0 0 132.29163 132.29163"
   version="1.1"
   id="svg5"
   xml:space="preserve"
   inkscape:version="1.2 (dc2aedaf03, 2022-05-15)"
   sodipodi:docname="drawing.svg.2025_01_17_15_17_03.0.svg"
   xmlns:inkscape="http://www.inkscape.org/namespaces/inkscape"
   xmlns:sodipodi="http://sodipodi.sourceforge.net/DTD/sodipodi-0.dtd"
   xmlns="http://www.w3.org/2000/svg"
   xmlns:svg="http://www.w3.org/2000/svg"><sodipodi:namedview
     id="namedview7"
     pagecolor="#ffffff"
     bordercolor="#ffffff"
     borderopacity="1"
     inkscape:showpageshadow="0"
     inkscape:pageopacity="0"
     inkscape:pagecheckerboard="0"
     inkscape:deskcolor="#ffffff"
     inkscape:document-units="mm"
     showgrid="true"
     showborder="false"
     showguides="true"
     inkscape:zoom="0.1767767"
     inkscape:cx="-3753.3227"
     inkscape:cy="6491.2401"
     inkscape:window-width="1920"
     inkscape:window-height="1051"
     inkscape:window-x="-9"
     inkscape:window-y="-9"
     inkscape:window-maximized="1"
     inkscape:current-layer="layer1"><inkscape:grid
       type="xygrid"
       id="grid182"
       spacingx="2.6458333"
       spacingy="2.6458333"
       color="#89c7e5"
       opacity="0.16862745"
       empcolor="#89c7e5"
       empopacity="0.16862745"
       visible="true" /><sodipodi:guide
       position="1945.7817,-1931.6349"
       orientation="-1,0"
       id="guide292"
       inkscape:locked="false"
       inkscape:label=""
       inkscape:color="rgb(237,51,59)" /><sodipodi:guide
       position="1998.9851,-1745.7091"
       orientation="-1,0"
       id="guide352"
       inkscape:locked="false"
       inkscape:label=""
       inkscape:color="rgb(0,134,229)" /><sodipodi:guide
       position="2130.8578,-1742.5485"
       orientation="-1,0"
       id="guide354"
       inkscape:locked="false"
       inkscape:label=""
       inkscape:color="rgb(0,134,229)" /><sodipodi:guide
       position="2132.2303,-1804.461"
       orientation="0,-1"
       id="guide360"
       inkscape:locked="false" /><sodipodi:guide
       position="2011.9276,-1677.461"
       orientation="1,0"
       id="guide388"
       inkscape:locked="false" /><sodipodi:guide
       position="2061.14,-1685.1339"
       orientation="0,-1"
       id="guide390"
       inkscape:locked="false" /><sodipodi:guide
       position="2117.7609,-1674.9475"
       orientation="1,0"
       id="guide392"
       inkscape:locked="false" /><sodipodi:guide
       position="2020.9914,-1791.8966"
       orientation="0,-1"
       id="guide394"
       inkscape:locked="false" /><sodipodi:guide
       position="2095.5359,-1672.1693"
       orientation="0,-1"
       id="guide5821"
       inkscape:locked="false" /></sodipodi:namedview><defs
     id="defs2"><clipPath
       clipPathUnits="userSpaceOnUse"
       id="clipPath4312"><path
         id="path4314"
         style="fill:#fd6939;fill-opacity:1;stroke-width:0.686906;stroke-linecap:round;stroke-linejoin:round;stroke-dashoffset:6.23623;paint-order:fill markers stroke"
         d="m 100.26972,-139.23308 a 11.626523,11.626523 0 0 0 0,16.44231 11.626523,11.626523 0 0 0 0.29209,0.27097 c 0.036,0.0486 0.0747,0.0959 0.11887,0.14001 l 15.74491,15.74492 0.0183,0.0182 c 0.22281,0.22279 0.51332,0.33484 0.80711,0.33884 0.008,2.1e-4 0.0158,5.3e-4 0.0237,5.3e-4 0.008,-4e-5 0.0158,-5.3e-4 0.0237,-5.3e-4 0.29378,-0.004 0.5843,-0.11605 0.80709,-0.33884 l 14.78084,-14.78082 0.98233,-0.98232 c 0.0442,-0.0442 0.0829,-0.0914 0.11885,-0.14002 a 11.626523,11.626523 0 0 0 0.29212,-0.27096 11.626523,11.626523 0 0 0 0,-16.44232 11.626523,11.626523 0 0 0 -16.44243,-9e-5 11.626523,11.626523 0 0 0 -0.27115,0.29229 c -0.0485,0.0359 -0.0957,0.0746 -0.13983,0.11866 l -0.15151,0.15154 -0.15154,-0.15154 c -0.0439,-0.0439 -0.0911,-0.0825 -0.13953,-0.11838 a 11.626523,11.626523 0 0 0 -0.27142,-0.29257 11.626523,11.626523 0 0 0 -16.44243,9e-5 z" /></clipPath></defs><g
     inkscape:label="Layer 1"
     inkscape:groupmode="layer"
     id="layer1"
     transform="translate(1945.7817,1989.6693)"><path
       id="circle6189"
       style="fill:#f2f2f2;stroke-width:29.1967;stroke-linecap:round;stroke-linejoin:round;stroke-dashoffset:6.23623;paint-order:stroke fill markers"
       d="m -1813.4899,-1923.5234 a 66.145836,66.145836 0 0 1 -66.1458,66.1458 66.145836,66.145836 0 0 1 -66.1459,-66.1458 66.145836,66.145836 0 0 1 66.1459,-66.1459 66.145836,66.145836 0 0 1 66.1458,66.1459 z"
       inkscape:export-filename=".\lainnya.png"
       inkscape:export-xdpi="96"
       inkscape:export-ydpi="96" /><g
       id="g6375"
       transform="matrix(0.56657262,0,0,0.56657262,-1947.5761,-1856.2157)"
       style="stroke-width:1.02696"><path
         id="rect6363"
         style="opacity:1;fill:#1eb8b0;stroke-width:3.08087;stroke-linecap:round;stroke-linejoin:round;stroke-dashoffset:6.23623;paint-order:stroke fill markers"
         d="m 67.920166,-184.26576 h 29.06123 c 8.211164,0 14.821594,6.61043 14.821594,14.8216 v 29.06123 c 0,8.21116 -6.61043,14.82159 -14.821594,14.82159 h -29.06123 c -8.211165,0 -14.821598,-6.61043 -14.821598,-14.82159 v -29.06123 c 0,-8.21117 6.610433,-14.8216 14.821598,-14.8216 z" /><path
         id="rect6365"
         style="opacity:1;fill:#1eb8b0;stroke-width:3.08087;stroke-linecap:round;stroke-linejoin:round;stroke-dashoffset:6.23623;paint-order:stroke fill markers"
         d="m 141.094,-184.26576 h 29.06123 c 8.21116,0 14.8216,6.61043 14.8216,14.8216 v 29.06123 c 0,8.21116 -6.61044,14.82159 -14.8216,14.82159 H 141.094 c -8.21117,0 -14.8216,-6.61043 -14.8216,-14.82159 v -29.06123 c 0,-8.21117 6.61043,-14.8216 14.8216,-14.8216 z" /><path
         id="rect6367"
         style="opacity:1;fill:#1eb8b0;stroke-width:3.08087;stroke-linecap:round;stroke-linejoin:round;stroke-dashoffset:6.23623;paint-order:stroke fill markers"
         d="m 67.920166,-112.03452 h 29.06123 c 8.211164,0 14.821594,6.61043 14.821594,14.821595 v 29.06123 c 0,8.211165 -6.61043,14.821598 -14.821594,14.821598 h -29.06123 c -8.211165,0 -14.821598,-6.610433 -14.821598,-14.821598 v -29.06123 c 0,-8.211165 6.610433,-14.821595 14.821598,-14.821595 z" /><g
         id="g6373"
         transform="matrix(1.4173601,0,0,1.4173601,-10.172314,93.719356)"
         style="stroke-width:0.724561"><path
           id="path6369"
           style="fill:#fd5239;fill-opacity:1;stroke-width:0.497704;stroke-linecap:round;stroke-linejoin:round;stroke-dashoffset:6.23623;paint-order:fill markers stroke"
           d="m 99.238707,-140.12891 a 12.331444,12.331444 0 0 0 0,17.43921 12.331444,12.331444 0 0 0 0.309799,0.2874 c 0.03818,0.0515 0.07923,0.10172 0.126078,0.1485 l 16.699526,16.69954 0.0194,0.0193 c 0.23632,0.23629 0.54445,0.35514 0.85605,0.35938 0.008,2.2e-4 0.0168,5.6e-4 0.0251,5.6e-4 0.008,-4e-5 0.0168,-5.4e-4 0.0251,-5.6e-4 0.31159,-0.004 0.61974,-0.12309 0.85604,-0.35938 l 15.67701,-15.67699 1.04188,-1.04188 c 0.0469,-0.0469 0.0879,-0.0969 0.12606,-0.14851 a 12.331444,12.331444 0 0 0 0.30983,-0.28739 12.331444,12.331444 0 0 0 0,-17.43922 12.331444,12.331444 0 0 0 -17.43934,-1e-4 12.331444,12.331444 0 0 0 -0.28759,0.31001 c -0.0514,0.0381 -0.1015,0.0791 -0.14831,0.12586 l -0.16069,0.16073 -0.16073,-0.16073 c -0.0466,-0.0466 -0.0966,-0.0875 -0.14799,-0.12556 a 12.331444,12.331444 0 0 0 -0.28788,-0.31031 12.331444,12.331444 0 0 0 -17.439338,1e-4 z" /><path
           id="rect6371"
           clip-path="url(#clipPath4312)"
           style="fill:#fd6939;stroke-width:10.2472;stroke-linecap:round;stroke-dashoffset:6.23623;paint-order:stroke fill markers"
           transform="matrix(1.0606304,0,0,1.0606304,-7.1104063,7.5459275)"
           d="m 125.3699,-166.62584 h 9.43038 c 10.82952,0 19.54787,8.71835 19.54787,19.54787 v 9.43038 c 0,10.82952 -8.71835,19.54787 -19.54787,19.54787 h -9.43038 c -10.82952,0 -19.54787,-8.71835 -19.54787,-19.54787 v -9.43038 c 0,-10.82952 8.71835,-19.54787 19.54787,-19.54787 z" /></g></g><rect
       style="fill:none;fill-opacity:1;stroke:#000000;stroke-width:1.56123;stroke-linecap:round;stroke-linejoin:round;stroke-dashoffset:6.23623;paint-order:fill markers stroke"
       id="rect6799"
       width="725.88928"
       height="557.75635"
       x="-2489.2063"
       y="-2205.6279" /></g></svg>
