<?xml version="1.0" encoding="UTF-8" standalone="no"?>
<!-- Created with Inkscape (http://www.inkscape.org/) -->

<svg
   width="132.2915mm"
   height="132.29163mm"
   viewBox="0 0 132.2915 132.29163"
   version="1.1"
   id="svg5"
   xml:space="preserve"
   inkscape:version="1.2 (dc2aedaf03, 2022-05-15)"
   sodipodi:docname="drawing.svg.2025_01_17_15_17_03.0.svg"
   xmlns:inkscape="http://www.inkscape.org/namespaces/inkscape"
   xmlns:sodipodi="http://sodipodi.sourceforge.net/DTD/sodipodi-0.dtd"
   xmlns="http://www.w3.org/2000/svg"
   xmlns:svg="http://www.w3.org/2000/svg"><sodipodi:namedview
     id="namedview7"
     pagecolor="#ffffff"
     bordercolor="#ffffff"
     borderopacity="1"
     inkscape:showpageshadow="0"
     inkscape:pageopacity="0"
     inkscape:pagecheckerboard="0"
     inkscape:deskcolor="#ffffff"
     inkscape:document-units="mm"
     showgrid="true"
     showborder="false"
     showguides="true"
     inkscape:zoom="0.1767767"
     inkscape:cx="-3753.3227"
     inkscape:cy="6491.2401"
     inkscape:window-width="1920"
     inkscape:window-height="1051"
     inkscape:window-x="-9"
     inkscape:window-y="-9"
     inkscape:window-maximized="1"
     inkscape:current-layer="layer1"><inkscape:grid
       type="xygrid"
       id="grid182"
       spacingx="2.6458333"
       spacingy="2.6458333"
       color="#89c7e5"
       opacity="0.16862745"
       empcolor="#89c7e5"
       empopacity="0.16862745"
       visible="true" /><sodipodi:guide
       position="2257.4837,-1774.5387"
       orientation="-1,0"
       id="guide292"
       inkscape:locked="false"
       inkscape:label=""
       inkscape:color="rgb(237,51,59)" /><sodipodi:guide
       position="2310.687,-1588.6129"
       orientation="-1,0"
       id="guide352"
       inkscape:locked="false"
       inkscape:label=""
       inkscape:color="rgb(0,134,229)" /><sodipodi:guide
       position="2442.5597,-1585.4523"
       orientation="-1,0"
       id="guide354"
       inkscape:locked="false"
       inkscape:label=""
       inkscape:color="rgb(0,134,229)" /><sodipodi:guide
       position="2443.9322,-1647.3648"
       orientation="0,-1"
       id="guide360"
       inkscape:locked="false" /><sodipodi:guide
       position="2323.6295,-1520.3648"
       orientation="1,0"
       id="guide388"
       inkscape:locked="false" /><sodipodi:guide
       position="2372.842,-1528.0377"
       orientation="0,-1"
       id="guide390"
       inkscape:locked="false" /><sodipodi:guide
       position="2429.4629,-1517.8512"
       orientation="1,0"
       id="guide392"
       inkscape:locked="false" /><sodipodi:guide
       position="2332.6933,-1634.8004"
       orientation="0,-1"
       id="guide394"
       inkscape:locked="false" /><sodipodi:guide
       position="2407.2379,-1515.0731"
       orientation="0,-1"
       id="guide5821"
       inkscape:locked="false" /></sodipodi:namedview><defs
     id="defs2"><clipPath
       clipPathUnits="userSpaceOnUse"
       id="clipPath24152-2"><ellipse
         style="opacity:1;fill:#fe9e2e;fill-opacity:1;stroke:none;stroke-width:3;stroke-linecap:round;stroke-linejoin:round;stroke-dasharray:none;stroke-dashoffset:6.23623;stroke-opacity:1;paint-order:stroke fill markers"
         id="ellipse24154-8"
         cx="119.47591"
         cy="-69.089325"
         rx="66.145828"
         ry="16.042099" /></clipPath><clipPath
       clipPathUnits="userSpaceOnUse"
       id="clipPath4312-4"><path
         id="path4314-6"
         style="fill:#fd6939;fill-opacity:1;stroke-width:0.686906;stroke-linecap:round;stroke-linejoin:round;stroke-dashoffset:6.23623;paint-order:fill markers stroke"
         d="m 100.26972,-139.23308 a 11.626523,11.626523 0 0 0 0,16.44231 11.626523,11.626523 0 0 0 0.29209,0.27097 c 0.036,0.0486 0.0747,0.0959 0.11887,0.14001 l 15.74491,15.74492 0.0183,0.0182 c 0.22281,0.22279 0.51332,0.33484 0.80711,0.33884 0.008,2.1e-4 0.0158,5.3e-4 0.0237,5.3e-4 0.008,-4e-5 0.0158,-5.3e-4 0.0237,-5.3e-4 0.29378,-0.004 0.5843,-0.11605 0.80709,-0.33884 l 14.78084,-14.78082 0.98233,-0.98232 c 0.0442,-0.0442 0.0829,-0.0914 0.11885,-0.14002 a 11.626523,11.626523 0 0 0 0.29212,-0.27096 11.626523,11.626523 0 0 0 0,-16.44232 11.626523,11.626523 0 0 0 -16.44243,-9e-5 11.626523,11.626523 0 0 0 -0.27115,0.29229 c -0.0485,0.0359 -0.0957,0.0746 -0.13983,0.11866 l -0.15151,0.15154 -0.15154,-0.15154 c -0.0439,-0.0439 -0.0911,-0.0825 -0.13953,-0.11838 a 11.626523,11.626523 0 0 0 -0.27142,-0.29257 11.626523,11.626523 0 0 0 -16.44243,9e-5 z" /></clipPath><clipPath
       clipPathUnits="userSpaceOnUse"
       id="clipPath24006-4"><path
         id="path24008-4"
         style="fill:#1eb8b0;fill-opacity:1;stroke-width:0.264583"
         d="m 119.20358,-183.57484 c -22.698693,0 -40.857976,18.15928 -40.857976,40.85797 0,28.14637 15.435165,53.114695 38.587826,67.641865 1.36192,0.90795 3.17759,0.90795 4.99349,0 22.69869,-14.981134 38.13463,-39.495495 38.13463,-67.641865 0,-22.69869 -18.15928,-40.85797 -40.85797,-40.85797 z m 0,14.07614 a 27.285156,27.285156 0 0 1 27.28515,27.28516 27.285156,27.285156 0 0 1 -27.28515,27.28515 27.285156,27.285156 0 0 1 -27.28516,-27.28515 27.285156,27.285156 0 0 1 27.28516,-27.28516 z" /></clipPath></defs><g
     inkscape:label="Layer 1"
     inkscape:groupmode="layer"
     id="layer1"
     transform="translate(2257.4837,1832.5731)"><path
       id="circle6411"
       style="fill:#f2f2f2;stroke-width:29.1967;stroke-linecap:round;stroke-linejoin:round;stroke-dashoffset:6.23623;paint-order:stroke fill markers"
       d="m -2125.1921,-1766.4271 a 66.145836,66.145836 0 0 1 -66.1458,66.1458 66.145836,66.145836 0 0 1 -66.1458,-66.1458 66.145836,66.145836 0 0 1 66.1458,-66.1459 66.145836,66.145836 0 0 1 66.1458,66.1459 z"
       inkscape:export-filename=".\pilih lokasi donasi.png"
       inkscape:export-xdpi="96"
       inkscape:export-ydpi="96" /><g
       id="g6478"
       transform="matrix(0.63449199,0,0,0.63449199,-2849.6033,-1555.9672)"><path
         id="ellipse6464"
         style="opacity:1;fill:#f6b548;stroke-width:3;stroke-linecap:round;stroke-linejoin:round;stroke-dashoffset:6.23623;paint-order:stroke fill markers"
         d="m 1106.7025,-289.02423 a 66.145828,16.042099 0 0 1 -66.1459,16.0421 66.145828,16.042099 0 0 1 -66.14579,-16.0421 66.145828,16.042099 0 0 1 66.14579,-16.0421 66.145828,16.042099 0 0 1 66.1459,16.0421 z" /><path
         id="ellipse6466"
         clip-path="url(#clipPath24152-2)"
         style="opacity:1;fill:#fe9e2e;stroke-width:3;stroke-linecap:round;stroke-linejoin:round;stroke-dashoffset:6.23623;paint-order:stroke fill markers"
         transform="translate(921.08073,-219.9349)"
         d="m 210.83984,-81.235352 a 64.905602,25.838215 0 0 1 -64.90561,25.838215 64.905602,25.838215 0 0 1 -64.905597,-25.838215 64.905602,25.838215 0 0 1 64.905597,-25.838218 64.905602,25.838215 0 0 1 64.90561,25.838218 z" /><path
         id="path6468"
         style="fill:#1eb8b0;fill-opacity:1;stroke-width:0.264583"
         d="m 1040.2843,-403.9893 c -23.5582,0 -42.40504,18.84688 -42.40504,42.40506 0,29.21213 16.01964,55.12587 40.04894,70.20311 1.4135,0.94233 3.2979,0.94233 5.1826,0 23.5581,-15.54839 39.5786,-40.99098 39.5786,-70.20311 0,-23.55818 -18.8469,-42.40506 -42.4051,-42.40506 z m 0,14.60914 a 28.318306,28.318306 0 0 1 28.3183,28.31831 28.318306,28.318306 0 0 1 -28.3183,28.31829 28.318306,28.318306 0 0 1 -28.3183,-28.31829 28.318306,28.318306 0 0 1 28.3183,-28.31831 z" /><g
         id="g6474"
         transform="matrix(0.99039818,0,0,0.99039818,924.30097,-235.72204)"
         style="stroke-width:1.00969"><path
           id="path6470"
           style="fill:#fd5239;fill-opacity:1;stroke-width:0.693567;stroke-linecap:round;stroke-linejoin:round;stroke-dashoffset:6.23623;paint-order:fill markers stroke"
           d="m 100.26972,-139.23308 a 11.626523,11.626523 0 0 0 0,16.44231 11.626523,11.626523 0 0 0 0.29209,0.27097 c 0.036,0.0486 0.0747,0.0959 0.11887,0.14001 l 15.74491,15.74492 0.0183,0.0182 c 0.22281,0.22279 0.51332,0.33484 0.80711,0.33884 0.008,2.1e-4 0.0158,5.3e-4 0.0237,5.3e-4 0.008,-4e-5 0.0158,-5.1e-4 0.0237,-5.3e-4 0.29378,-0.004 0.58431,-0.11605 0.8071,-0.33884 l 14.78084,-14.78082 0.98233,-0.98232 c 0.0442,-0.0442 0.0829,-0.0914 0.11885,-0.14002 a 11.626523,11.626523 0 0 0 0.29212,-0.27096 11.626523,11.626523 0 0 0 0,-16.44232 11.626523,11.626523 0 0 0 -16.44243,-9e-5 11.626523,11.626523 0 0 0 -0.27115,0.29229 c -0.0485,0.0359 -0.0957,0.0746 -0.13983,0.11866 l -0.15151,0.15154 -0.15154,-0.15154 c -0.0439,-0.0439 -0.0911,-0.0825 -0.13953,-0.11838 a 11.626523,11.626523 0 0 0 -0.27142,-0.29257 11.626523,11.626523 0 0 0 -16.44243,9e-5 z" /><path
           id="rect6472"
           clip-path="url(#clipPath4312-4)"
           style="fill:#fd6939;stroke-width:15.1456;stroke-linecap:round;stroke-dashoffset:6.23623;paint-order:stroke fill markers"
           d="m 125.3699,-166.62584 h 9.43038 c 10.82952,0 19.54787,8.71835 19.54787,19.54787 v 9.43038 c 0,10.82952 -8.71835,19.54787 -19.54787,19.54787 h -9.43038 c -10.82952,0 -19.54787,-8.71835 -19.54787,-19.54787 v -9.43038 c 0,-10.82952 8.71835,-19.54787 19.54787,-19.54787 z" /></g><path
         id="circle6476"
         clip-path="url(#clipPath24006-4)"
         style="opacity:1;fill:#1accbe;stroke-width:2.89055;stroke-linecap:round;stroke-linejoin:round;stroke-dashoffset:6.23623;paint-order:stroke fill markers"
         transform="matrix(1.0378649,0,0,1.0378649,916.56711,-213.46342)"
         d="m 182.79404,-148.29897 a 49.609375,49.609375 0 0 1 -49.60938,49.60938 49.609375,49.609375 0 0 1 -49.609373,-49.60938 49.609375,49.609375 0 0 1 49.609373,-49.60937 49.609375,49.609375 0 0 1 49.60938,49.60937 z" /></g><rect
       style="fill:none;fill-opacity:1;stroke:#000000;stroke-width:1.56123;stroke-linecap:round;stroke-linejoin:round;stroke-dashoffset:6.23623;paint-order:fill markers stroke"
       id="rect6799"
       width="725.88928"
       height="557.75635"
       x="-2489.2063"
       y="-2205.6279" /></g></svg>
