<?xml version="1.0" encoding="UTF-8" standalone="no"?>
<!-- Created with Inkscape (http://www.inkscape.org/) -->

<svg
   width="132.2915mm"
   height="132.29163mm"
   viewBox="0 0 132.2915 132.29163"
   version="1.1"
   id="svg5"
   xml:space="preserve"
   inkscape:version="1.2 (dc2aedaf03, 2022-05-15)"
   sodipodi:docname="drawing.svg.2025_01_17_15_17_03.0.svg"
   xmlns:inkscape="http://www.inkscape.org/namespaces/inkscape"
   xmlns:sodipodi="http://sodipodi.sourceforge.net/DTD/sodipodi-0.dtd"
   xmlns="http://www.w3.org/2000/svg"
   xmlns:svg="http://www.w3.org/2000/svg"><sodipodi:namedview
     id="namedview7"
     pagecolor="#ffffff"
     bordercolor="#ffffff"
     borderopacity="1"
     inkscape:showpageshadow="0"
     inkscape:pageopacity="0"
     inkscape:pagecheckerboard="0"
     inkscape:deskcolor="#ffffff"
     inkscape:document-units="mm"
     showgrid="true"
     showborder="false"
     showguides="true"
     inkscape:zoom="0.1767767"
     inkscape:cx="-3753.3227"
     inkscape:cy="6491.2401"
     inkscape:window-width="1920"
     inkscape:window-height="1051"
     inkscape:window-x="-9"
     inkscape:window-y="-9"
     inkscape:window-maximized="1"
     inkscape:current-layer="layer1"><inkscape:grid
       type="xygrid"
       id="grid182"
       spacingx="2.6458333"
       spacingy="2.6458333"
       color="#89c7e5"
       opacity="0.16862745"
       empcolor="#89c7e5"
       empopacity="0.16862745"
       visible="true" /><sodipodi:guide
       position="2257.4837,-1931.6349"
       orientation="-1,0"
       id="guide292"
       inkscape:locked="false"
       inkscape:label=""
       inkscape:color="rgb(237,51,59)" /><sodipodi:guide
       position="2310.687,-1745.7091"
       orientation="-1,0"
       id="guide352"
       inkscape:locked="false"
       inkscape:label=""
       inkscape:color="rgb(0,134,229)" /><sodipodi:guide
       position="2442.5597,-1742.5485"
       orientation="-1,0"
       id="guide354"
       inkscape:locked="false"
       inkscape:label=""
       inkscape:color="rgb(0,134,229)" /><sodipodi:guide
       position="2443.9322,-1804.4609"
       orientation="0,-1"
       id="guide360"
       inkscape:locked="false" /><sodipodi:guide
       position="2323.6295,-1677.461"
       orientation="1,0"
       id="guide388"
       inkscape:locked="false" /><sodipodi:guide
       position="2372.842,-1685.1339"
       orientation="0,-1"
       id="guide390"
       inkscape:locked="false" /><sodipodi:guide
       position="2429.4629,-1674.9474"
       orientation="1,0"
       id="guide392"
       inkscape:locked="false" /><sodipodi:guide
       position="2332.6933,-1791.8966"
       orientation="0,-1"
       id="guide394"
       inkscape:locked="false" /><sodipodi:guide
       position="2407.2379,-1672.1693"
       orientation="0,-1"
       id="guide5821"
       inkscape:locked="false" /></sodipodi:namedview><defs
     id="defs2"><inkscape:path-effect
       effect="mirror_symmetry"
       start_point="88.282465,-66.650337"
       end_point="88.282465,-21.047474"
       center_point="88.282465,-43.848905"
       id="path-effect3787"
       is_visible="true"
       lpeversion="1.2"
       lpesatellites=""
       mode="free"
       discard_orig_path="false"
       fuse_paths="false"
       oposite_fuse="false"
       split_items="false"
       split_open="false"
       link_styles="false" /><clipPath
       clipPathUnits="userSpaceOnUse"
       id="clipPath4312"><path
         id="path4314"
         style="fill:#fd6939;fill-opacity:1;stroke-width:0.686906;stroke-linecap:round;stroke-linejoin:round;stroke-dashoffset:6.23623;paint-order:fill markers stroke"
         d="m 100.26972,-139.23308 a 11.626523,11.626523 0 0 0 0,16.44231 11.626523,11.626523 0 0 0 0.29209,0.27097 c 0.036,0.0486 0.0747,0.0959 0.11887,0.14001 l 15.74491,15.74492 0.0183,0.0182 c 0.22281,0.22279 0.51332,0.33484 0.80711,0.33884 0.008,2.1e-4 0.0158,5.3e-4 0.0237,5.3e-4 0.008,-4e-5 0.0158,-5.3e-4 0.0237,-5.3e-4 0.29378,-0.004 0.5843,-0.11605 0.80709,-0.33884 l 14.78084,-14.78082 0.98233,-0.98232 c 0.0442,-0.0442 0.0829,-0.0914 0.11885,-0.14002 a 11.626523,11.626523 0 0 0 0.29212,-0.27096 11.626523,11.626523 0 0 0 0,-16.44232 11.626523,11.626523 0 0 0 -16.44243,-9e-5 11.626523,11.626523 0 0 0 -0.27115,0.29229 c -0.0485,0.0359 -0.0957,0.0746 -0.13983,0.11866 l -0.15151,0.15154 -0.15154,-0.15154 c -0.0439,-0.0439 -0.0911,-0.0825 -0.13953,-0.11838 a 11.626523,11.626523 0 0 0 -0.27142,-0.29257 11.626523,11.626523 0 0 0 -16.44243,9e-5 z" /></clipPath><clipPath
       clipPathUnits="userSpaceOnUse"
       id="clipPath2248"><rect
         style="fill:#000000;fill-opacity:1;stroke:none;stroke-width:3;stroke-linecap:round;stroke-linejoin:round;stroke-dasharray:none;stroke-dashoffset:6.23623;stroke-opacity:1;paint-order:stroke fill markers"
         id="rect2250"
         width="57.58823"
         height="55.54195"
         x="123.36158"
         y="-73.958488"
         rx="16.954906"
         ry="16.954906" /></clipPath><clipPath
       clipPathUnits="userSpaceOnUse"
       id="clipPath3275"><path
         id="path3277"
         style="fill:#1eb8b0;fill-opacity:1;stroke:none;stroke-width:3.5814;stroke-linecap:round;stroke-linejoin:round;stroke-dasharray:none;stroke-dashoffset:6.23623;stroke-opacity:1;paint-order:stroke fill markers"
         d="m 91.790263,-184.51328 c -5.020402,0 -9.061979,4.04157 -9.061979,9.06198 v 26.89396 c 0,5.02041 4.041577,9.0625 9.061979,9.0625 H 111.1467 l 8.74779,8.74779 8.74779,-8.74779 h 19.35644 c 5.0204,0 9.06198,-4.04209 9.06198,-9.0625 v -26.89396 c 0,-5.02041 -4.04158,-9.06198 -9.06198,-9.06198 z" /></clipPath><clipPath
       clipPathUnits="userSpaceOnUse"
       id="clipPath3363"><path
         id="path3365"
         style="fill:#fe9e2e;fill-opacity:1;stroke-width:3.60029;stroke-linecap:round;stroke-linejoin:round;stroke-dashoffset:6.23623;paint-order:stroke fill markers"
         d="m 96.729317,-120.86235 c -6.76353,0 -12.208647,5.44474 -12.208647,12.20827 v 6.90993 9.320022 9.03946 c 0,0 -0.0081,1.327452 0.1232,3.283077 0.131284,1.955623 0.189323,2.404438 0.189323,2.404438 l 2.961957,24.418843 h 6.548983 l 3.118956,-26.937168 h 52.540721 0.30996 l 4.01014,26.937168 h 7.88855 v -26.995588 -12.15023 -9.320022 -6.90993 c 0,-6.76353 -5.44511,-12.20827 -12.20865,-12.20827 z"
         sodipodi:nodetypes="ssccczcccccccccccsss" /></clipPath><clipPath
       clipPathUnits="userSpaceOnUse"
       id="clipPath3789"><path
         id="path3791"
         style="fill:#fd5239;fill-opacity:1;stroke-width:4.99999;stroke-linecap:round;stroke-linejoin:round;stroke-dashoffset:6.23623;paint-order:stroke fill markers"
         d="m 58.611372,-66.650337 h 29.671093 v 45.602863 h -10.21863 c -0.831125,0 -4.543834,-2.403587 -4.543834,-7.396599 0,-4.993013 -2.338608,-29.144158 -2.338608,-29.144158 0,0 -3.96946,-0.03298 -7.508412,-0.03298 -3.538953,0 -5.061609,-9.029129 -5.061609,-9.029129 z"
         inkscape:path-effect="#path-effect3787"
         inkscape:original-d="m 58.611372,-66.650337 h 29.671093 v 45.602863 h -10.21863 c -0.831125,0 -4.543834,-2.403587 -4.543834,-7.396599 0,-4.993013 -2.338608,-29.144158 -2.338608,-29.144158 0,0 -3.96946,-0.03298 -7.508412,-0.03298 -3.538953,0 -5.061609,-9.029129 -5.061609,-9.029129 z"
         class="UnoptimicedTransforms"
         sodipodi:nodetypes="ccczzczc"
         transform="matrix(0.72006026,0,-0.06940339,0.72339727,26.937826,-78.390742)" /></clipPath></defs><g
     inkscape:label="Layer 1"
     inkscape:groupmode="layer"
     id="layer1"
     transform="translate(2257.4837,1989.6693)"><path
       id="circle6185"
       style="fill:#f2f2f2;stroke-width:29.1967;stroke-linecap:round;stroke-linejoin:round;stroke-dashoffset:6.23623;paint-order:stroke fill markers"
       d="m -2125.1921,-1923.5234 a 66.145836,66.145836 0 0 1 -66.1458,66.1458 66.145836,66.145836 0 0 1 -66.1458,-66.1458 66.145836,66.145836 0 0 1 66.1458,-66.1459 66.145836,66.145836 0 0 1 66.1458,66.1459 z"
       inkscape:export-filename=".\qurban.png"
       inkscape:export-xdpi="96"
       inkscape:export-ydpi="96" /><g
       id="g6341"
       transform="matrix(0.67585801,0,0,0.67585801,-2272.3697,-1843.1668)"><path
         id="rect6315"
         clip-path="url(#clipPath2248)"
         style="fill:none;stroke:#fd6939;stroke-width:3;stroke-linecap:round;stroke-linejoin:round;stroke-dashoffset:6.23623;paint-order:stroke fill markers"
         transform="matrix(0.72006027,0,0,0.72006027,60.041975,-68.87271)"
         d="m 131.5467,-62.118828 h 8.18514 c 9.39302,0 16.95491,7.561888 16.95491,16.954907 v 34.201248 c 0,9.393018 -7.56189,16.9549063 -16.95491,16.9549063 h -8.18514 c -9.39301,0 -16.9549,-7.5618883 -16.9549,-16.9549063 v -34.201248 c 0,-9.393019 7.56189,-16.954907 16.9549,-16.954907 z" /><path
         id="path6317"
         style="fill:#fe9e2e;fill-opacity:1;stroke-width:3.60029;stroke-linecap:round;stroke-linejoin:round;stroke-dashoffset:6.23623;paint-order:stroke fill markers"
         d="m 96.729318,-120.86235 c -6.763532,0 -12.208649,5.44474 -12.208649,12.20827 v 6.90993 9.320023 9.03946 c 0,0 -0.0081,1.327452 0.123202,3.283076 0.131283,1.955624 0.189323,2.404438 0.189323,2.404438 l 2.961955,24.418843 h 6.548985 l 3.118955,-26.937169 h 52.540721 0.30996 l 4.01014,26.937169 h 7.88855 v -26.995589 -12.150228 -9.320023 -6.90993 c 0,-6.76353 -5.44511,-12.20827 -12.20865,-12.20827 z"
         sodipodi:nodetypes="ssccczcccccccccccsss" /><path
         id="path6319"
         style="fill:#f6b548;stroke-width:3.60029;stroke-linecap:round;stroke-linejoin:round;stroke-dashoffset:6.23623;paint-order:stroke fill markers"
         d="M 112.30286,-80.274068 H 99.353729 l 3.274491,26.995601 h 6.54899 z"
         sodipodi:nodetypes="ccccc" /><path
         id="path6321"
         style="fill:#f6b548;stroke-width:3.60029;stroke-linecap:round;stroke-linejoin:round;stroke-dashoffset:6.23623;paint-order:stroke fill markers"
         d="m 148.73058,-80.274068 h -12.94914 l 3.2745,26.995601 h 6.54898 z"
         sodipodi:nodetypes="ccccc" /><path
         id="path6323"
         style="fill:#fd5239;fill-opacity:1;stroke-width:4.99999;stroke-linecap:round;stroke-linejoin:round;stroke-dashoffset:6.23623;paint-order:stroke fill markers"
         d="m 58.611372,-66.650337 h 29.671093 v 45.602863 h -10.21863 c -0.831125,0 -4.543834,-2.403587 -4.543834,-7.396599 0,-4.993013 -2.338608,-29.144158 -2.338608,-29.144158 0,0 -3.96946,-0.03298 -7.508412,-0.03298 -3.538953,0 -5.061609,-9.029129 -5.061609,-9.029129 z m 59.342188,0 H 88.282465 v 45.602863 h 10.21863 c 0.831125,0 4.543835,-2.403587 4.543835,-7.396599 0,-4.993013 2.33861,-29.144158 2.33861,-29.144158 0,0 3.96946,-0.03298 7.50841,-0.03298 3.53895,0 5.06161,-9.029129 5.06161,-9.029129 z"
         class="UnoptimicedTransforms"
         sodipodi:nodetypes="ccczzczc"
         transform="matrix(0.72006027,0,0,0.72006027,19.416947,-78.029128)" /><path
         id="path6325"
         style="fill:#fd6939;fill-opacity:1;stroke-width:5.38451;stroke-linecap:round;stroke-linejoin:round;stroke-dashoffset:6.23623;paint-order:stroke fill markers"
         d="m 229.18362,14.908628 v 0 42.096421 0 c 0,0 -14.08737,-11.635658 -14.08737,-20.597027 0,-8.961368 14.08737,-21.499394 14.08737,-21.499394 z m 0,0 v 0 42.096421 0 c 0,0 14.08737,-11.635658 14.08737,-20.597027 0,-8.961368 -14.08737,-21.499394 -14.08737,-21.499394 z"
         class="UnoptimicedTransforms"
         sodipodi:nodetypes="cccczc"
         transform="matrix(0.38386705,0,0,0.41928351,84.784601,-92.052246)" /><path
         id="path6327"
         style="fill:#1eb8b0;fill-opacity:1;stroke:none;stroke-width:3.5814;stroke-linecap:round;stroke-linejoin:round;stroke-dasharray:none;stroke-dashoffset:6.23623;stroke-opacity:1;paint-order:stroke fill markers"
         d="m 91.790263,-184.51328 c -5.020402,0 -9.061979,4.04157 -9.061979,9.06198 v 26.89396 c 0,5.02041 4.041577,9.0625 9.061979,9.0625 H 111.1467 l 8.74779,8.74779 8.74779,-8.74779 h 19.35644 c 5.0204,0 9.06198,-4.04209 9.06198,-9.0625 v -26.89396 c 0,-5.02041 -4.04158,-9.06198 -9.06198,-9.06198 z" /><path
         id="circle6329"
         clip-path="url(#clipPath3275)"
         style="fill:#1accbe;stroke-width:4.49457;stroke-linecap:round;stroke-linejoin:round;stroke-dashoffset:6.23623;paint-order:stroke fill markers"
         d="m 217.80595,-178.03952 a 54.504421,54.504421 0 0 1 -54.50442,54.50442 54.504421,54.504421 0 0 1 -54.50442,-54.50442 54.504421,54.504421 0 0 1 54.50442,-54.50442 54.504421,54.504421 0 0 1 54.50442,54.50442 z" /><g
         id="g6335"
         transform="matrix(0.72166607,0,0,0.72166607,35.261333,-71.42953)"
         style="stroke-width:0.771707"><path
           id="path6331"
           style="fill:#fd5239;fill-opacity:1;stroke-width:0.530091;stroke-linecap:round;stroke-linejoin:round;stroke-dashoffset:6.23623;paint-order:fill markers stroke"
           d="m 100.26972,-139.23308 a 11.626523,11.626523 0 0 0 0,16.44231 11.626523,11.626523 0 0 0 0.29209,0.27097 c 0.036,0.0486 0.0747,0.0959 0.11887,0.14001 l 15.74491,15.74492 0.0183,0.0182 c 0.22281,0.22279 0.51332,0.33484 0.80711,0.33884 0.008,2.1e-4 0.0158,5.3e-4 0.0237,5.3e-4 0.008,-4e-5 0.0158,-5.1e-4 0.0237,-5.3e-4 0.29378,-0.004 0.58431,-0.11605 0.8071,-0.33884 l 14.78084,-14.78082 0.98233,-0.98232 c 0.0442,-0.0442 0.0829,-0.0914 0.11885,-0.14002 a 11.626523,11.626523 0 0 0 0.29212,-0.27096 11.626523,11.626523 0 0 0 0,-16.44232 11.626523,11.626523 0 0 0 -16.44243,-9e-5 11.626523,11.626523 0 0 0 -0.27115,0.29229 c -0.0485,0.0359 -0.0957,0.0746 -0.13983,0.11866 l -0.15151,0.15154 -0.15154,-0.15154 c -0.0439,-0.0439 -0.0911,-0.0825 -0.13953,-0.11838 a 11.626523,11.626523 0 0 0 -0.27142,-0.29257 11.626523,11.626523 0 0 0 -16.44243,9e-5 z" /><path
           id="rect6333"
           clip-path="url(#clipPath4312)"
           style="fill:#fd6939;stroke-width:11.5757;stroke-linecap:round;stroke-dashoffset:6.23623;paint-order:stroke fill markers"
           d="m 130.08509,-166.62584 c 13.44174,0 24.26306,10.82133 24.26306,24.26306 0,13.44174 -10.82132,24.26306 -24.26306,24.26306 -13.44174,0 -24.26306,-10.82132 -24.26306,-24.26306 0,-13.44173 10.82132,-24.26306 24.26306,-24.26306 z" /></g><path
         id="circle6337"
         clip-path="url(#clipPath3363)"
         style="fill:#f6b548;stroke-width:3;stroke-linecap:round;stroke-linejoin:round;stroke-dashoffset:6.23623;paint-order:stroke fill markers"
         d="m 190.30425,-131.25439 a 40.048668,40.048668 0 0 1 -40.04867,40.048663 40.048668,40.048668 0 0 1 -40.04866,-40.048663 40.048668,40.048668 0 0 1 40.04866,-40.04867 40.048668,40.048668 0 0 1 40.04867,40.04867 z" /><path
         id="rect6339"
         clip-path="url(#clipPath3789)"
         style="fill:#fd6939;stroke-width:3.00695;stroke-linecap:round;stroke-linejoin:round;stroke-dashoffset:6.23623;paint-order:stroke fill markers"
         transform="matrix(1,0,0.09594091,0.99538703,0,0)"
         d="m 93.756202,-142.36743 h 30.986558 c 2.75313,0 4.96955,2.18479 4.96955,4.89862 v 38.95376 c 0,2.713838 -2.21642,4.898625 -4.96955,4.898625 H 93.756202 c -2.753127,0 -4.969543,-2.184787 -4.969543,-4.898625 v -38.95376 c 0,-2.71383 2.216416,-4.89862 4.969543,-4.89862 z" /></g><rect
       style="fill:none;fill-opacity:1;stroke:#000000;stroke-width:1.56123;stroke-linecap:round;stroke-linejoin:round;stroke-dashoffset:6.23623;paint-order:fill markers stroke"
       id="rect6799"
       width="725.88928"
       height="557.75635"
       x="-2489.2063"
       y="-2205.6279" /></g></svg>
