<?xml version="1.0" encoding="UTF-8" standalone="no"?>
<!-- Created with Inkscape (http://www.inkscape.org/) -->

<svg
   width="132.29175mm"
   height="132.29163mm"
   viewBox="0 0 132.29175 132.29163"
   version="1.1"
   id="svg5"
   xml:space="preserve"
   inkscape:version="1.2 (dc2aedaf03, 2022-05-15)"
   sodipodi:docname="drawing.svg.2025_01_17_15_17_03.0.svg"
   xmlns:inkscape="http://www.inkscape.org/namespaces/inkscape"
   xmlns:sodipodi="http://sodipodi.sourceforge.net/DTD/sodipodi-0.dtd"
   xmlns="http://www.w3.org/2000/svg"
   xmlns:svg="http://www.w3.org/2000/svg"><sodipodi:namedview
     id="namedview7"
     pagecolor="#ffffff"
     bordercolor="#ffffff"
     borderopacity="1"
     inkscape:showpageshadow="0"
     inkscape:pageopacity="0"
     inkscape:pagecheckerboard="0"
     inkscape:deskcolor="#ffffff"
     inkscape:document-units="mm"
     showgrid="true"
     showborder="false"
     showguides="true"
     inkscape:zoom="0.1767767"
     inkscape:cx="-3753.3227"
     inkscape:cy="6491.2401"
     inkscape:window-width="1920"
     inkscape:window-height="1051"
     inkscape:window-x="-9"
     inkscape:window-y="-9"
     inkscape:window-maximized="1"
     inkscape:current-layer="layer1"><inkscape:grid
       type="xygrid"
       id="grid182"
       spacingx="2.6458333"
       spacingy="2.6458333"
       color="#89c7e5"
       opacity="0.16862745"
       empcolor="#89c7e5"
       empopacity="0.16862745"
       visible="true" /><sodipodi:guide
       position="2422.5033,-1774.5387"
       orientation="-1,0"
       id="guide292"
       inkscape:locked="false"
       inkscape:label=""
       inkscape:color="rgb(237,51,59)" /><sodipodi:guide
       position="2475.7066,-1588.6129"
       orientation="-1,0"
       id="guide352"
       inkscape:locked="false"
       inkscape:label=""
       inkscape:color="rgb(0,134,229)" /><sodipodi:guide
       position="2607.5793,-1585.4523"
       orientation="-1,0"
       id="guide354"
       inkscape:locked="false"
       inkscape:label=""
       inkscape:color="rgb(0,134,229)" /><sodipodi:guide
       position="2608.9519,-1647.3648"
       orientation="0,-1"
       id="guide360"
       inkscape:locked="false" /><sodipodi:guide
       position="2488.6491,-1520.3648"
       orientation="1,0"
       id="guide388"
       inkscape:locked="false" /><sodipodi:guide
       position="2537.8616,-1528.0377"
       orientation="0,-1"
       id="guide390"
       inkscape:locked="false" /><sodipodi:guide
       position="2594.4825,-1517.8513"
       orientation="1,0"
       id="guide392"
       inkscape:locked="false" /><sodipodi:guide
       position="2497.7129,-1634.8004"
       orientation="0,-1"
       id="guide394"
       inkscape:locked="false" /><sodipodi:guide
       position="2572.2575,-1515.0731"
       orientation="0,-1"
       id="guide5821"
       inkscape:locked="false" /></sodipodi:namedview><defs
     id="defs2"><inkscape:path-effect
       effect="mirror_symmetry"
       start_point="240.87666,-19.878171"
       end_point="240.87666,71.327555"
       center_point="240.87666,25.724692"
       id="path-effect21235"
       is_visible="true"
       lpeversion="1.2"
       lpesatellites=""
       mode="free"
       discard_orig_path="false"
       fuse_paths="false"
       oposite_fuse="false"
       split_items="false"
       split_open="false"
       link_styles="false" /><inkscape:path-effect
       effect="mirror_symmetry"
       start_point="100.87239,28.111975"
       end_point="100.87239,60.358068"
       center_point="100.87239,44.235022"
       id="path-effect20670"
       is_visible="true"
       lpeversion="1.2"
       lpesatellites=""
       mode="free"
       discard_orig_path="false"
       fuse_paths="false"
       oposite_fuse="false"
       split_items="false"
       split_open="false"
       link_styles="false" /><clipPath
       clipPathUnits="userSpaceOnUse"
       id="clipPath19132"><path
         id="path19134"
         style="color:#000000;fill:#fe9e2e;stroke-width:4.49998;stroke-linecap:round;stroke-linejoin:round;stroke-dashoffset:6.23623;paint-order:fill markers stroke"
         d="m 79.915663,-170.59596 a 1.762194,1.762194 0 0 0 -0.676638,0.30392 c -16.522888,12.15528 -26.2885,31.44272 -26.306338,51.95506 a 1.762194,1.762194 0 0 0 0,10e-4 c 0,35.639857 28.929317,64.569181 64.569193,64.569181 a 1.762194,1.762194 0 0 0 0.001,0 c 27.41298,-0.02019 51.83741,-17.361836 60.895,-43.235245 a 1.762194,1.762194 0 0 0 -2.70858,-1.999159 c -10.47739,7.731558 -23.15225,11.910041 -36.17344,11.925749 -33.7343,3e-6 -61.043472,-27.307996 -61.045141,-61.041926 v -0.001 -0.001 c 0.01479,-6.86995 1.189048,-13.68778 3.473436,-20.16682 a 1.762194,1.762194 0 0 0 -1.287719,-2.30794 1.762194,1.762194 0 0 0 -0.741389,-10e-4 z" /></clipPath><clipPath
       clipPathUnits="userSpaceOnUse"
       id="clipPath20676"><path
         id="path20678"
         style="fill:#1eb8b0;stroke-width:3.40979;stroke-linecap:round;stroke-linejoin:round;stroke-dashoffset:6.23623;paint-order:fill markers stroke"
         d="m 79.876965,46.134532 c 0.82573,-5.278631 7.213126,-9.310835 12.874317,-11.335008 3.538728,-1.265281 8.121108,-6.687549 8.121108,-6.687549 V 60.358068 H 85.225816 c 0,0 -6.98224,-3.781793 -5.348851,-14.223536 z"
         class="UnoptimicedTransforms"
         sodipodi:nodetypes="sscccs"
         transform="matrix(1.4343024,0,0,1.2143151,-10.169951,-217.66905)"
         inkscape:original-d="m 79.876965,46.134532 c 0.82573,-5.278631 7.213126,-9.310835 12.874317,-11.335008 3.538728,-1.265281 8.121108,-6.687549 8.121108,-6.687549 V 60.358068 H 85.225816 c 0,0 -6.98224,-3.781793 -5.348851,-14.223536 z"
         inkscape:path-effect="#path-effect20670" /></clipPath><clipPath
       clipPathUnits="userSpaceOnUse"
       id="clipPath21237"><path
         id="path21239"
         style="opacity:1;fill:#fd5239;fill-opacity:1;stroke-width:7.13798;stroke-linecap:round;stroke-linejoin:round;stroke-dashoffset:6.23623;paint-order:stroke fill markers"
         d="m 206.38218,12.161217 c 0,0 -0.72887,-6.5236906 5.59652,-13.09333058 6.06796,-6.30226622 16.45148,-7.85962032 22.16019,-12.70585642 5.52359,-4.689085 6.73777,-6.240201 6.73777,-6.240201 v 91.205726 h -34.49448 z"
         inkscape:path-effect="#path-effect21235"
         inkscape:original-d="m 206.38218,12.161217 c 0,0 -0.72887,-6.5236906 5.59652,-13.09333058 6.06796,-6.30226622 16.45148,-7.85962032 22.16019,-12.70585642 5.52359,-4.689085 6.73777,-6.240201 6.73777,-6.240201 v 91.205726 h -34.49448 z"
         class="UnoptimicedTransforms"
         sodipodi:nodetypes="csscccc"
         transform="matrix(0.42028621,0,0,0.42028621,33.274429,-115.20725)" /></clipPath></defs><g
     inkscape:label="Layer 1"
     inkscape:groupmode="layer"
     id="layer1"
     transform="translate(2422.5032,1832.5731)"><path
       id="circle6409"
       style="fill:#f2f2f2;stroke-width:29.1967;stroke-linecap:round;stroke-linejoin:round;stroke-dashoffset:6.23623;paint-order:stroke fill markers"
       d="m -2290.2116,-1766.4271 a 66.145836,66.145836 0 0 1 -66.1458,66.1458 66.145836,66.145836 0 0 1 -66.1459,-66.1458 66.145836,66.145836 0 0 1 66.1459,-66.1459 66.145836,66.145836 0 0 1 66.1458,66.1459 z"
       inkscape:export-filename=".\ramadhan.png"
       inkscape:export-xdpi="96"
       inkscape:export-ydpi="96" /><g
       id="g6445"
       transform="matrix(0.66200049,0,0,0.66200049,-2427.881,-1689.8722)"><path
         id="rect6417"
         style="fill:#1eb8b0;stroke-width:4.50001;stroke-linecap:round;stroke-linejoin:round;stroke-dashoffset:6.23623;paint-order:fill markers stroke"
         d="M 96.948975,-139.92889 H 150.9075 v 60.887211 H 96.948975 Z" /><path
         id="rect6419"
         style="opacity:1;fill:#1accbe;stroke-width:3.00001;stroke-linecap:round;stroke-linejoin:round;stroke-dashoffset:6.23623;paint-order:stroke fill markers"
         d="m 127.11466,-140.3532 h 2.93724 c 11.55401,0 20.85561,9.3016 20.85561,20.85561 v 26.708396 c 0,11.554002 -9.3016,20.8556 -20.85561,20.8556 h -2.93724 c -11.554,0 -20.8556,-9.301598 -20.8556,-20.8556 v -26.708396 c 0,-11.55401 9.3016,-20.85561 20.8556,-20.85561 z" /><path
         id="path6421"
         style="opacity:1;fill:#fd5239;fill-opacity:1;stroke-width:7.13799;stroke-linecap:round;stroke-linejoin:round;stroke-dashoffset:6.23623;paint-order:stroke fill markers"
         d="m 206.38218,12.161217 c 0,0 -0.72887,-6.5236906 5.59652,-13.09333058 6.06796,-6.30226622 16.45148,-7.85962032 22.16019,-12.70585642 5.52359,-4.689085 6.73777,-6.240201 6.73777,-6.240201 v 91.205726 h -34.49448 z m 68.98896,0 c 0,0 0.72887,-6.5236906 -5.59652,-13.09333058 -6.06796,-6.30226622 -16.45148,-7.85962032 -22.16019,-12.70585642 -5.52359,-4.689085 -6.73777,-6.240201 -6.73777,-6.240201 v 91.205726 h 34.49448 z"
         class="UnoptimicedTransforms"
         sodipodi:nodetypes="csscccc"
         transform="matrix(0.42028621,0,0,0.42028621,22.691094,-115.20725)" /><path
         id="rect6423"
         style="opacity:1;fill:#1accbe;stroke-width:3;stroke-linecap:round;stroke-linejoin:round;stroke-dashoffset:6.23623;paint-order:stroke fill markers"
         d="m 141.29567,-139.16463 h 9.61182 v 17.20825 h -9.61182 z" /><path
         id="path6425"
         style="color:#000000;fill:#fe9e2e;stroke-width:4.5;stroke-linecap:round;stroke-linejoin:round;stroke-dashoffset:6.23623;paint-order:fill markers stroke"
         d="m 75.153161,-170.59596 a 1.762194,1.762194 0 0 0 -0.676638,0.30392 c -16.522888,12.15528 -26.2885,31.44272 -26.30634,51.95506 a 1.762194,1.762194 0 0 0 0,10e-4 c 0,35.639859 28.929317,64.569184 64.569167,64.569184 a 1.762194,1.762194 0 0 0 0.001,0 c 27.41298,-0.0202 51.83741,-17.361837 60.895,-43.235246 a 1.762194,1.762194 0 0 0 -2.70858,-1.999159 c -10.47739,7.731558 -23.15225,11.910041 -36.17344,11.925749 -33.7343,4e-6 -61.043444,-27.307998 -61.045113,-61.041928 v -0.001 -0.001 c 0.0148,-6.86995 1.189049,-13.68778 3.473438,-20.16682 a 1.762194,1.762194 0 0 0 -1.287721,-2.30794 1.762194,1.762194 0 0 0 -0.741388,-10e-4 z" /><path
         id="path6427"
         style="fill:#1eb8b0;stroke-width:3.40979;stroke-linecap:round;stroke-linejoin:round;stroke-dashoffset:6.23623;paint-order:fill markers stroke"
         d="m 79.876965,46.134532 c 0.82573,-5.278631 7.213126,-9.310835 12.874317,-11.335008 3.538728,-1.265281 8.121108,-6.687549 8.121108,-6.687549 V 60.358068 H 85.225816 c 0,0 -6.98224,-3.781793 -5.348851,-14.223536 z m 41.990845,0 c -0.82572,-5.278631 -7.21312,-9.310835 -12.87431,-11.335008 -3.53873,-1.265281 -8.12111,-6.687549 -8.12111,-6.687549 v 32.246093 h 15.64657 c 0,0 6.98224,-3.781793 5.34885,-14.223536 z"
         class="UnoptimicedTransforms"
         sodipodi:nodetypes="sscccs"
         transform="matrix(1.4343024,0,0,1.2143151,-20.753285,-217.66905)" /><path
         id="rect6429"
         clip-path="url(#clipPath20676)"
         style="opacity:1;fill:#1accbe;stroke-width:3;stroke-linecap:round;stroke-linejoin:round;stroke-dashoffset:6.23623;paint-order:stroke fill markers"
         transform="translate(-10.583333)"
         d="m 154.93279,-174.81099 c 23.6445,0 42.6796,19.0351 42.6796,42.6796 0,23.6445 -19.0351,42.6796 -42.6796,42.6796 -23.6445,0 -42.6796,-19.0351 -42.6796,-42.6796 0,-23.6445 19.0351,-42.6796 42.6796,-42.6796 z" /><path
         id="rect6431"
         style="fill:#fe9e2e;stroke-width:3;stroke-linecap:round;stroke-linejoin:round;stroke-dashoffset:6.23623;paint-order:stroke fill markers"
         d="m 94.758194,-145.55096 h 59.001546 c 1.98589,0 3.58464,1.59874 3.58464,3.58463 v 3.19719 c 0,1.98588 -1.59875,3.58463 -3.58464,3.58463 H 94.758194 c -1.985887,0 -3.584633,-1.59875 -3.584633,-3.58463 v -3.19719 c 0,-1.98589 1.598746,-3.58463 3.584633,-3.58463 z" /><path
         id="circle6433"
         clip-path="url(#clipPath21237)"
         style="opacity:1;fill:#fd6939;stroke-width:3;stroke-linecap:round;stroke-linejoin:round;stroke-dashoffset:6.23623;paint-order:stroke fill markers"
         transform="translate(-10.583333)"
         d="M 192.24875,-105.591 A 32.368656,32.368656 0 0 1 159.8801,-73.222347 32.368656,32.368656 0 0 1 127.51144,-105.591 32.368656,32.368656 0 0 1 159.8801,-137.95966 32.368656,32.368656 0 0 1 192.24875,-105.591 Z" /><path
         id="circle6435"
         clip-path="url(#clipPath19132)"
         style="opacity:1;fill:#f6b548;stroke-width:3;stroke-linecap:round;stroke-linejoin:round;stroke-dashoffset:6.23623;paint-order:stroke fill markers"
         transform="translate(-4.7625002)"
         d="M 202.5116,-133.593 A 66.942665,66.942665 0 0 1 135.56894,-66.650337 66.942665,66.942665 0 0 1 68.626274,-133.593 66.942665,66.942665 0 0 1 135.56894,-200.53567 66.942665,66.942665 0 0 1 202.5116,-133.593 Z" /><g
         id="g6439"
         transform="translate(1.5875)"><g
           id="g6437"
           transform="matrix(1.2314504,0,0,1.2314504,-42.666349,44.42562)"
           style="stroke-width:0.812051" /></g><g
         id="g6443"
         transform="matrix(0.64559925,0,0,0.64559925,-23.36287,-38.467051)"
         style="stroke-width:1.54895"><g
           id="g6441"
           transform="matrix(1.2314504,0,0,1.2314504,-42.666349,44.42562)"
           style="stroke-width:1.25783" /></g></g><rect
       style="fill:none;fill-opacity:1;stroke:#000000;stroke-width:1.56123;stroke-linecap:round;stroke-linejoin:round;stroke-dashoffset:6.23623;paint-order:fill markers stroke"
       id="rect6799"
       width="725.88928"
       height="557.75635"
       x="-2489.2063"
       y="-2205.6279" /></g></svg>
