<?xml version="1.0" encoding="UTF-8" standalone="no"?>
<!-- Created with Inkscape (http://www.inkscape.org/) -->

<svg
   width="132.29163mm"
   height="132.29163mm"
   viewBox="0 0 132.29163 132.29163"
   version="1.1"
   id="svg5"
   xml:space="preserve"
   inkscape:version="1.2 (dc2aedaf03, 2022-05-15)"
   sodipodi:docname="drawing.svg.2025_01_17_15_17_03.0.svg"
   xmlns:inkscape="http://www.inkscape.org/namespaces/inkscape"
   xmlns:sodipodi="http://sodipodi.sourceforge.net/DTD/sodipodi-0.dtd"
   xmlns="http://www.w3.org/2000/svg"
   xmlns:svg="http://www.w3.org/2000/svg"><sodipodi:namedview
     id="namedview7"
     pagecolor="#ffffff"
     bordercolor="#ffffff"
     borderopacity="1"
     inkscape:showpageshadow="0"
     inkscape:pageopacity="0"
     inkscape:pagecheckerboard="0"
     inkscape:deskcolor="#ffffff"
     inkscape:document-units="mm"
     showgrid="true"
     showborder="false"
     showguides="true"
     inkscape:zoom="0.1767767"
     inkscape:cx="-3753.3227"
     inkscape:cy="6491.2401"
     inkscape:window-width="1920"
     inkscape:window-height="1051"
     inkscape:window-x="-9"
     inkscape:window-y="-9"
     inkscape:window-maximized="1"
     inkscape:current-layer="layer1"><inkscape:grid
       type="xygrid"
       id="grid182"
       spacingx="2.6458333"
       spacingy="2.6458333"
       color="#89c7e5"
       opacity="0.16862745"
       empcolor="#89c7e5"
       empopacity="0.16862745"
       visible="true" /><sodipodi:guide
       position="2105.0133,-2099.9263"
       orientation="-1,0"
       id="guide292"
       inkscape:locked="false"
       inkscape:label=""
       inkscape:color="rgb(237,51,59)" /><sodipodi:guide
       position="2158.2166,-1914.0005"
       orientation="-1,0"
       id="guide352"
       inkscape:locked="false"
       inkscape:label=""
       inkscape:color="rgb(0,134,229)" /><sodipodi:guide
       position="2290.0893,-1910.8399"
       orientation="-1,0"
       id="guide354"
       inkscape:locked="false"
       inkscape:label=""
       inkscape:color="rgb(0,134,229)" /><sodipodi:guide
       position="2291.4619,-1972.7524"
       orientation="0,-1"
       id="guide360"
       inkscape:locked="false" /><sodipodi:guide
       position="2171.1591,-1845.7524"
       orientation="1,0"
       id="guide388"
       inkscape:locked="false" /><sodipodi:guide
       position="2220.3716,-1853.4253"
       orientation="0,-1"
       id="guide390"
       inkscape:locked="false" /><sodipodi:guide
       position="2276.9925,-1843.2388"
       orientation="1,0"
       id="guide392"
       inkscape:locked="false" /><sodipodi:guide
       position="2180.2229,-1960.188"
       orientation="0,-1"
       id="guide394"
       inkscape:locked="false" /><sodipodi:guide
       position="2254.7675,-1840.4607"
       orientation="0,-1"
       id="guide5821"
       inkscape:locked="false" /></sodipodi:namedview><defs
     id="defs2"><clipPath
       clipPathUnits="userSpaceOnUse"
       id="clipPath2050"><rect
         style="fill:#1eb8b0;fill-opacity:1;stroke-width:15;stroke-linecap:round;stroke-dashoffset:6.23623;paint-order:stroke fill markers"
         id="rect2052"
         width="19.3666"
         height="26.967077"
         x="65.627197"
         y="-91.790375"
         rx="4.0545936"
         ry="4.0545936" /></clipPath><clipPath
       clipPathUnits="userSpaceOnUse"
       id="clipPath4312"><path
         id="path4314"
         style="fill:#fd6939;fill-opacity:1;stroke-width:0.686906;stroke-linecap:round;stroke-linejoin:round;stroke-dashoffset:6.23623;paint-order:fill markers stroke"
         d="m 100.26972,-139.23308 a 11.626523,11.626523 0 0 0 0,16.44231 11.626523,11.626523 0 0 0 0.29209,0.27097 c 0.036,0.0486 0.0747,0.0959 0.11887,0.14001 l 15.74491,15.74492 0.0183,0.0182 c 0.22281,0.22279 0.51332,0.33484 0.80711,0.33884 0.008,2.1e-4 0.0158,5.3e-4 0.0237,5.3e-4 0.008,-4e-5 0.0158,-5.3e-4 0.0237,-5.3e-4 0.29378,-0.004 0.5843,-0.11605 0.80709,-0.33884 l 14.78084,-14.78082 0.98233,-0.98232 c 0.0442,-0.0442 0.0829,-0.0914 0.11885,-0.14002 a 11.626523,11.626523 0 0 0 0.29212,-0.27096 11.626523,11.626523 0 0 0 0,-16.44232 11.626523,11.626523 0 0 0 -16.44243,-9e-5 11.626523,11.626523 0 0 0 -0.27115,0.29229 c -0.0485,0.0359 -0.0957,0.0746 -0.13983,0.11866 l -0.15151,0.15154 -0.15154,-0.15154 c -0.0439,-0.0439 -0.0911,-0.0825 -0.13953,-0.11838 a 11.626523,11.626523 0 0 0 -0.27142,-0.29257 11.626523,11.626523 0 0 0 -16.44243,9e-5 z" /></clipPath><clipPath
       clipPathUnits="userSpaceOnUse"
       id="clipPath4462"><path
         style="fill:#fe9e2e;fill-opacity:1;stroke:none;stroke-width:1.68276;stroke-linecap:round;stroke-linejoin:round;stroke-dashoffset:6.23623;paint-order:fill markers stroke"
         d="m 80.160987,-78.133731 c 0,0 0.808022,-4.921716 6.652482,-6.896269 9.909554,-2.83155 20.256131,-3.644112 30.524841,-4.119322 0,0 4.96328,-0.310759 5.37914,4.001751 0.41585,4.31251 -4.65401,5.236213 -4.65401,5.236213 l -10.21278,3.849145 c 0,0 21.98441,0.246303 23.51654,0.178779 1.53212,-0.06756 2.26413,-0.682109 3.67426,-1.780887 1.41015,-1.09878 10.62357,-8.742939 14.7118,-11.438302 4.08825,-2.695369 5.13828,-2.539532 7.32354,-1.349211 2.18527,1.190326 1.69311,4.115742 0.54235,6.11396 -1.15074,1.998207 -18.30395,19.898304 -19.31685,20.8398 -1.0129,0.941499 -4.07313,4.501018 -5.47972,4.794597 -1.40661,0.293576 -34.092095,0.443034 -39.029797,0.443034 -4.937717,0 -13.559014,0.06044 -13.559014,0.06044 z"
         id="path4464"
         sodipodi:nodetypes="ccczcczzzzzzzzcc" /></clipPath><clipPath
       clipPathUnits="userSpaceOnUse"
       id="clipPath21694"><path
         id="path21696"
         style="fill:#1eb8b0;stroke-width:15;stroke-linecap:round;stroke-dashoffset:6.23623;paint-order:stroke fill markers"
         d="m 734.65386,-388.25112 c 0,0 34.55196,7.16714 34.55196,39.21808 v 11.57168 c 0,13.14892 -10.58558,23.73453 -23.73453,23.73453 h -21.91901 c -13.14891,0 -23.73452,-10.58561 -23.73452,-23.73453 v -11.57168 c 0,-31.64877 34.8361,-39.21808 34.8361,-39.21808 z"
         sodipodi:nodetypes="cssssssc" /></clipPath></defs><g
     inkscape:label="Layer 1"
     inkscape:groupmode="layer"
     id="layer1"
     transform="translate(2105.0132,2157.9606)"><path
       id="circle6179"
       style="fill:#f2f2f2;stroke-width:29.1967;stroke-linecap:round;stroke-linejoin:round;stroke-dashoffset:6.23623;paint-order:stroke fill markers"
       d="m -1972.7216,-2091.8147 a 66.145836,66.145836 0 0 1 -66.1458,66.1458 66.145836,66.145836 0 0 1 -66.1459,-66.1458 66.145836,66.145836 0 0 1 66.1459,-66.1458 66.145836,66.145836 0 0 1 66.1458,66.1458 z"
       inkscape:export-filename="zakat.png"
       inkscape:export-xdpi="96"
       inkscape:export-ydpi="96" /><g
       id="g6247"
       transform="matrix(0.64389623,0,0,0.64389623,-2499.1142,-1877.7998)"><path
         id="path6213"
         style="fill:#1eb8b0;stroke-width:15;stroke-linecap:round;stroke-dashoffset:6.23623;paint-order:stroke fill markers"
         d="m 734.65386,-388.25113 c 0,0 34.55197,7.16716 34.55197,39.2181 v 11.57166 c 0,13.14894 -10.5856,23.73454 -23.73454,23.73454 h -21.919 c -13.14893,0 -23.73453,-10.5856 -23.73453,-23.73454 v -11.57166 c 0,-31.64878 34.8361,-39.2181 34.8361,-39.2181 z"
         sodipodi:nodetypes="cssssssc" /><path
         id="circle6215"
         clip-path="url(#clipPath21694)"
         style="opacity:1;fill:#1accbe;stroke-width:3.00001;stroke-linecap:round;stroke-linejoin:round;stroke-dashoffset:6.23623;paint-order:stroke fill markers"
         d="m 797.88409,-364.62888 a 38.447266,38.447266 0 0 1 -38.44726,38.44727 38.447266,38.447266 0 0 1 -38.44727,-38.44727 38.447266,38.447266 0 0 1 38.44727,-38.44726 38.447266,38.447266 0 0 1 38.44726,38.44726 z" /><path
         id="path6217"
         style="fill:#1eb8b0;fill-opacity:1;stroke-width:15;stroke-linecap:round;stroke-dashoffset:6.23623;paint-order:stroke fill markers"
         d="m 716.88182,-398.69659 c -1.90945,0.004 -3.33726,0.16188 -3.33726,2.45256 l 6.96392,12.8049 h 28.55484 l 6.13141,-12.8049 c 0,-2.556 -1.86538,-2.4505 -4.18269,-2.4505 h -33.28531 c -0.28966,0 -0.57213,-0.003 -0.84491,-0.002 z" /><path
         id="rect6219"
         style="fill:#fe9e2e;stroke-width:15;stroke-linecap:round;stroke-dashoffset:6.23623;paint-order:stroke fill markers"
         d="m 717.92226,-385.79507 h 33.17906 c 1.39251,0 2.51356,1.12105 2.51356,2.51356 0,1.39252 -1.12105,2.51357 -2.51356,2.51357 h -33.17906 c -1.39252,0 -2.51357,-1.12105 -2.51357,-2.51357 0,-1.39251 1.12105,-2.51356 2.51357,-2.51356 z" /><g
         id="g6239"
         transform="matrix(1.1889836,0,0,1.1889836,549.4644,-253.48106)"
         style="stroke-width:0.841055"><g
           id="g6225"
           transform="matrix(1.1843687,0,0,1.1843687,10.933099,64.818437)"
           style="stroke-width:0.71013"><path
             id="rect6221"
             style="fill:#1eb8b0;stroke-width:10.6521;stroke-linecap:round;stroke-dashoffset:6.23623;paint-order:stroke fill markers"
             d="m 69.681791,-91.790375 h 11.257413 c 2.246245,0 4.054593,1.808349 4.054593,4.054594 v 18.85789 c 0,2.246245 -1.808348,4.054593 -4.054593,4.054593 H 69.681791 c -2.246245,0 -4.054594,-1.808348 -4.054594,-4.054593 v -18.85789 c 0,-2.246245 1.808349,-4.054594 4.054594,-4.054594 z" /><path
             id="rect6223"
             clip-path="url(#clipPath2050)"
             style="fill:#1accbe;stroke-width:10.6521;stroke-linecap:round;stroke-dashoffset:6.23623;paint-order:stroke fill markers"
             d="m 79.366523,-100.26783 c 5.425279,0 9.792922,4.367643 9.792922,9.792922 v 9.354433 c 0,5.425279 -4.367643,9.792922 -9.792922,9.792922 -5.425279,0 -9.792922,-4.367643 -9.792922,-9.792922 v -9.354433 c 0,-5.425279 4.367643,-9.792922 9.792922,-9.792922 z" /></g><path
           style="fill:#fe9e2e;fill-opacity:1;stroke:none;stroke-width:1.4153;stroke-linecap:round;stroke-linejoin:round;stroke-dashoffset:6.23623;paint-order:fill markers stroke"
           d="m 114.20743,-35.773138 c 0,0 0.77486,-4.719696 6.37942,-6.6132 9.5028,-2.715324 19.42468,-3.494532 29.27189,-3.950237 0,0 4.75956,-0.298002 5.15835,3.837492 0.39878,4.135495 -4.46298,5.021282 -4.46298,5.021282 l -9.79358,3.691151 c 0,0 21.08202,0.236194 22.55126,0.17144 1.46923,-0.06479 2.17119,-0.654111 3.52344,-1.707786 1.35227,-1.053679 10.18751,-8.384068 14.10793,-10.968795 3.92044,-2.584734 4.92737,-2.435292 7.02293,-1.293832 2.09557,1.141469 1.62361,3.946806 0.52009,5.863001 -1.10351,1.916187 -17.55263,19.08154 -18.52395,19.984393 -0.97133,0.902853 -3.90595,4.316263 -5.2548,4.597791 -1.34887,0.281528 -32.69272,0.42485 -37.42775,0.42485 -4.73503,0 -13.00245,0.05796 -13.00245,0.05796 z"
           id="path6227"
           sodipodi:nodetypes="ccczcczzzzzzzzcc" /><g
           id="g6237"
           clip-path="url(#clipPath4462)"
           transform="matrix(0.95895309,0,0,0.95895309,37.3368,39.153447)"
           style="stroke-width:0.877052"><path
             id="rect6229"
             style="fill:#f6b548;stroke-width:13.1559;stroke-linecap:round;stroke-dashoffset:6.23623;paint-order:stroke fill markers"
             d="m 90.899184,-63.804855 h 34.895266 c 6.17455,0 11.14539,2.233427 11.14539,5.007683 v 23.938849 c 0,2.774257 -4.97084,5.007684 -11.14539,5.007684 H 90.899184 c -6.174547,0 -11.145392,-2.233427 -11.145392,-5.007684 v -23.938849 c 0,-2.774256 4.970845,-5.007683 11.145392,-5.007683 z" /><path
             id="rect6231"
             style="fill:#f6b548;stroke-width:13.1559;stroke-linecap:round;stroke-dashoffset:6.23623;paint-order:stroke fill markers"
             transform="rotate(-38.827253)"
             d="m 108.41598,31.528318 h 71.80864 c 2.51091,0 4.53232,2.021414 4.53232,4.532319 v 32.094089 c 0,2.510904 -2.02141,4.532318 -4.53232,4.532318 h -71.80864 c -2.51091,0 -4.53232,-2.021414 -4.53232,-4.532318 V 36.060637 c 0,-2.510905 2.02141,-4.532319 4.53232,-4.532319 z" /><path
             style="fill:#f6b548;fill-opacity:1;stroke-width:13.1559;stroke-linecap:round;stroke-dashoffset:6.23623;paint-order:stroke fill markers"
             d="m 152.93406,-81.253335 c 0.0106,-0.840323 3.34053,-3.69346 4.44189,-6.194262 1.10135,-2.500803 -0.0262,-4.649496 -0.10055,-5.692132 -0.0744,-1.042635 0.90421,-0.978814 1.94663,-0.06381 1.04242,0.915002 2.14867,2.680757 2.21233,4.563456 0.0637,1.882699 -0.91495,3.882465 -3.05855,5.46853 -2.1436,1.586064 -5.45231,2.758542 -5.44175,1.91822 z"
             id="path6233"
             sodipodi:nodetypes="ccccccc" /><path
             style="fill:#f6b548;fill-opacity:1;stroke-width:13.1559;stroke-linecap:round;stroke-dashoffset:6.23623;paint-order:stroke fill markers"
             d="m 136.2116,-68.464638 c -1.3045,0.490029 -3.96121,2.665045 -7.19927,3.721614 -3.23805,1.056569 -7.0574,0.994573 -7.55806,1.346861 -0.50066,0.352288 2.31742,1.118727 5.24586,1.351452 2.92843,0.232725 5.96713,-0.06814 7.77217,-0.910483 1.80504,-0.842347 2.37668,-2.226313 2.68639,-3.515574 0.30971,-1.289261 0.35742,-2.4839 -0.94709,-1.99387 z"
             id="path6235"
             sodipodi:nodetypes="ccccccc" /></g></g><g
         id="g6245"
         transform="matrix(0.9479776,0,0,0.9479776,623.33803,-229.79183)"
         style="stroke-width:1.05488"><path
           id="path6241"
           style="fill:#fd5239;fill-opacity:1;stroke:none;stroke-width:3.88933;stroke-linecap:round;stroke-linejoin:round;stroke-dasharray:none;stroke-dashoffset:6.23623;paint-order:stroke fill markers"
           d="m 100.26972,-139.23308 a 11.626523,11.626523 0 0 0 0,16.44231 11.626523,11.626523 0 0 0 0.29209,0.27097 c 0.036,0.0486 0.0747,0.0959 0.11887,0.14001 l 15.74491,15.74492 0.0183,0.0182 c 0.22281,0.22279 0.51332,0.33484 0.80711,0.33884 0.008,2.1e-4 0.0158,5.3e-4 0.0237,5.3e-4 0.008,-4e-5 0.0158,-5.1e-4 0.0237,-5.3e-4 0.29378,-0.004 0.58431,-0.11605 0.8071,-0.33884 l 14.78084,-14.78082 0.98233,-0.98232 c 0.0442,-0.0442 0.0829,-0.0914 0.11885,-0.14002 a 11.626523,11.626523 0 0 0 0.29212,-0.27096 11.626523,11.626523 0 0 0 0,-16.44232 11.626523,11.626523 0 0 0 -16.44243,-9e-5 11.626523,11.626523 0 0 0 -0.27115,0.29229 c -0.0485,0.0359 -0.0957,0.0746 -0.13983,0.11866 l -0.15151,0.15154 -0.15154,-0.15154 c -0.0439,-0.0439 -0.0911,-0.0825 -0.13953,-0.11838 a 11.626523,11.626523 0 0 0 -0.27142,-0.29257 11.626523,11.626523 0 0 0 -16.44243,9e-5 z" /><path
           id="rect6243"
           clip-path="url(#clipPath4312)"
           style="fill:#fd6939;stroke-width:15.8232;stroke-linecap:round;stroke-dashoffset:6.23623;paint-order:stroke fill markers"
           d="m 125.3699,-166.62584 h 9.43038 c 10.82952,0 19.54787,8.71835 19.54787,19.54787 v 9.43038 c 0,10.82952 -8.71835,19.54787 -19.54787,19.54787 h -9.43038 c -10.82952,0 -19.54787,-8.71835 -19.54787,-19.54787 v -9.43038 c 0,-10.82952 8.71835,-19.54787 19.54787,-19.54787 z" /></g></g><rect
       style="fill:none;fill-opacity:1;stroke:#000000;stroke-width:1.56123;stroke-linecap:round;stroke-linejoin:round;stroke-dashoffset:6.23623;paint-order:fill markers stroke"
       id="rect6799"
       width="725.88928"
       height="557.75635"
       x="-2489.2063"
       y="-2205.6279" /></g></svg>
