<svg version="1.1" id="Layer_1" xmlns="http://www.w3.org/2000/svg" x="0" y="0" viewBox="0 0 1980 166" xml:space="preserve"><g id="bg" transform="translate(0 -1793.909)"><linearGradient id="path-bg-1_1_" gradientUnits="userSpaceOnUse" x1="30.485" y1="2414.963" x2="30.485" y2="2414.295" gradientTransform="matrix(1980.0005 0 0 -165.9955 -59370.016 402699.906)"><stop offset="0" stop-color="#1086b4"/><stop offset=".994" stop-color="#14bbdb"/></linearGradient><path id="path-bg-1" d="M1338 1857.2c-183.6-76.6-141.5-15.3-246 25s-168.3-52.2-302.7-42.5-76.7 71.3-290.9 62.7c-85.9-3.5-152.5-53.4-277.1-76S0 1812.1 0 1812.1v147.8h1980v-149.5s-136.7-18.5-263.4-16.3-195 139.7-378.6 63.1z" fill="url(#path-bg-1_1_)"/><linearGradient id="path-bg-2_1_" gradientUnits="userSpaceOnUse" x1="30.48" y1="2415.693" x2="30.488" y2="2413.816" gradientTransform="matrix(1980 0 0 -162.5178 -59370 394294.719)"><stop offset="0" stop-color="#1086b4"/><stop offset="1" stop-color="#14bbdb"/></linearGradient><path id="path-bg-2" d="M597.7 1801.3c184-22.1 77.9 56.4 247.7 82.5s149.3-26.9 235.3-39.3 232.3 63.2 380.9 56.3c89.1-4.1 173-57.7 254.9-73.1 143.9-27.1 263.4-20.3 263.4-20.3v152.7H0v-147.7c317.3 137.5 413.8 10.9 597.7-11.1z" opacity=".5" fill="url(#path-bg-2_1_)"/></g></svg>