<?xml version="1.0" encoding="UTF-8" standalone="no"?>
<!-- Created with Inkscape (http://www.inkscape.org/) -->

<svg
   width="131.71045mm"
   height="131.71045mm"
   viewBox="0 0 131.71045 131.71045"
   version="1.1"
   id="svg5"
   xml:space="preserve"
   inkscape:version="1.2 (dc2aedaf03, 2022-05-15)"
   sodipodi:docname="drawing.svg.2025_01_17_15_17_03.0.svg"
   xmlns:inkscape="http://www.inkscape.org/namespaces/inkscape"
   xmlns:sodipodi="http://sodipodi.sourceforge.net/DTD/sodipodi-0.dtd"
   xmlns="http://www.w3.org/2000/svg"
   xmlns:svg="http://www.w3.org/2000/svg"><sodipodi:namedview
     id="namedview7"
     pagecolor="#ffffff"
     bordercolor="#ffffff"
     borderopacity="1"
     inkscape:showpageshadow="0"
     inkscape:pageopacity="0"
     inkscape:pagecheckerboard="0"
     inkscape:deskcolor="#ffffff"
     inkscape:document-units="mm"
     showgrid="true"
     showborder="false"
     showguides="true"
     inkscape:zoom="0.1767767"
     inkscape:cx="-3753.3227"
     inkscape:cy="6491.2401"
     inkscape:window-width="1920"
     inkscape:window-height="1051"
     inkscape:window-x="-9"
     inkscape:window-y="-9"
     inkscape:window-maximized="1"
     inkscape:current-layer="layer1"><inkscape:grid
       type="xygrid"
       id="grid182"
       spacingx="2.6458333"
       spacingy="2.6458333"
       color="#89c7e5"
       opacity="0.16862745"
       empcolor="#89c7e5"
       empopacity="0.16862745"
       visible="true" /><sodipodi:guide
       position="1035.8455,1148.5598"
       orientation="-1,0"
       id="guide292"
       inkscape:locked="false"
       inkscape:label=""
       inkscape:color="rgb(237,51,59)" /><sodipodi:guide
       position="1089.0488,1334.4856"
       orientation="-1,0"
       id="guide352"
       inkscape:locked="false"
       inkscape:label=""
       inkscape:color="rgb(0,134,229)" /><sodipodi:guide
       position="1220.9215,1337.6463"
       orientation="-1,0"
       id="guide354"
       inkscape:locked="false"
       inkscape:label=""
       inkscape:color="rgb(0,134,229)" /><sodipodi:guide
       position="1222.294,1275.7338"
       orientation="0,-1"
       id="guide360"
       inkscape:locked="false" /><sodipodi:guide
       position="1101.9913,1402.7338"
       orientation="1,0"
       id="guide388"
       inkscape:locked="false" /><sodipodi:guide
       position="1151.2038,1395.0608"
       orientation="0,-1"
       id="guide390"
       inkscape:locked="false" /><sodipodi:guide
       position="1207.8246,1405.2473"
       orientation="1,0"
       id="guide392"
       inkscape:locked="false" /><sodipodi:guide
       position="1111.0551,1288.2981"
       orientation="0,-1"
       id="guide394"
       inkscape:locked="false" /><sodipodi:guide
       position="1185.5996,1408.0254"
       orientation="0,-1"
       id="guide5821"
       inkscape:locked="false" /></sodipodi:namedview><defs
     id="defs2" /><g
     inkscape:label="Layer 1"
     inkscape:groupmode="layer"
     id="layer1"
     transform="translate(1035.8455,-1091.1067)"><g
       id="g4763"
       transform="translate(-1088.9787,1106.8221)"
       inkscape:export-filename="Akun_Oranye.png"
       inkscape:export-xdpi="96"
       inkscape:export-ydpi="96"><circle
         style="fill:#f2f2f2;fill-opacity:1;stroke:none;stroke-width:10;stroke-linecap:round;stroke-dashoffset:6.23623;paint-order:fill markers stroke"
         id="circle4688"
         cx="118.9884"
         cy="50.13979"
         r="65.855209" /><path
         id="path4690"
         style="fill:#fd6939;fill-opacity:1;stroke-width:1.61801;stroke-linecap:round;stroke-linejoin:round;stroke-dashoffset:6.23623;paint-order:fill markers stroke"
         d="m 87.81373,27.336757 a 21.314619,21.314619 0 0 0 0,30.14331 21.314619,21.314619 0 0 0 0.535504,0.49673 c 0.066,0.0891 0.136977,0.17575 0.217906,0.25668 l 28.86478,28.864788 0.0334,0.0334 c 0.40843,0.408436 0.94104,0.613842 1.47964,0.621179 0.0145,3.84e-4 0.0289,0.0014 0.0434,0.0014 0.0145,-9e-5 0.0289,-9.75e-4 0.0434,-0.0014 0.5386,-0.0073 1.0712,-0.212738 1.47965,-0.621179 l 27.09738,-27.097318 1.80088,-1.80088 c 0.0809,-0.0809 0.15191,-0.1676 0.2179,-0.25667 a 21.314619,21.314619 0 0 0 0.53551,-0.49674 21.314619,21.314619 0 0 0 -1e-5,-30.14332 21.314619,21.314619 0 0 0 -30.14348,-1.6e-4 21.314619,21.314619 0 0 0 -0.49708,0.53584 c -0.0889,0.0659 -0.17553,0.13675 -0.25633,0.21757 l -0.27779,0.27778 -0.27779,-0.27778 c -0.0806,-0.0806 -0.16709,-0.15125 -0.25581,-0.21705 a 21.314619,21.314619 0 0 0 -0.4976,-0.53636 21.314619,21.314619 0 0 0 -30.143486,1.6e-4 z" /></g><rect
       style="fill:none;fill-opacity:1;stroke:#000000;stroke-width:2.53763;stroke-linecap:round;stroke-linejoin:round;stroke-dashoffset:6.23623;paint-order:fill markers stroke"
       id="rect4769"
       width="577.36932"
       height="276.19131"
       x="-1346.384"
       y="1024.1357" /></g></svg>
