<?xml version="1.0" encoding="UTF-8" standalone="no"?>
<!-- Created with Inkscape (http://www.inkscape.org/) -->

<svg
   width="131.8017mm"
   height="117.40463mm"
   viewBox="0 0 131.8017 117.40463"
   version="1.1"
   id="svg5"
   xml:space="preserve"
   inkscape:version="1.2 (dc2aedaf03, 2022-05-15)"
   sodipodi:docname="drawing.svg.2025_01_17_15_17_03.0.svg"
   xmlns:inkscape="http://www.inkscape.org/namespaces/inkscape"
   xmlns:sodipodi="http://sodipodi.sourceforge.net/DTD/sodipodi-0.dtd"
   xmlns="http://www.w3.org/2000/svg"
   xmlns:svg="http://www.w3.org/2000/svg"><sodipodi:namedview
     id="namedview7"
     pagecolor="#ffffff"
     bordercolor="#ffffff"
     borderopacity="1"
     inkscape:showpageshadow="0"
     inkscape:pageopacity="0"
     inkscape:pagecheckerboard="0"
     inkscape:deskcolor="#ffffff"
     inkscape:document-units="mm"
     showgrid="true"
     showborder="false"
     showguides="true"
     inkscape:zoom="0.1767767"
     inkscape:cx="-3753.3227"
     inkscape:cy="6491.2401"
     inkscape:window-width="1920"
     inkscape:window-height="1051"
     inkscape:window-x="-9"
     inkscape:window-y="-9"
     inkscape:window-maximized="1"
     inkscape:current-layer="layer1"><inkscape:grid
       type="xygrid"
       id="grid182"
       spacingx="2.6458333"
       spacingy="2.6458333"
       color="#89c7e5"
       opacity="0.16862745"
       empcolor="#89c7e5"
       empopacity="0.16862745"
       visible="true" /><sodipodi:guide
       position="1038.0799,361.63429"
       orientation="-1,0"
       id="guide292"
       inkscape:locked="false"
       inkscape:label=""
       inkscape:color="rgb(237,51,59)" /><sodipodi:guide
       position="1091.2832,547.5601"
       orientation="-1,0"
       id="guide352"
       inkscape:locked="false"
       inkscape:label=""
       inkscape:color="rgb(0,134,229)" /><sodipodi:guide
       position="1223.1559,550.72071"
       orientation="-1,0"
       id="guide354"
       inkscape:locked="false"
       inkscape:label=""
       inkscape:color="rgb(0,134,229)" /><sodipodi:guide
       position="1224.5284,488.80822"
       orientation="0,-1"
       id="guide360"
       inkscape:locked="false" /><sodipodi:guide
       position="1104.2257,615.80821"
       orientation="1,0"
       id="guide388"
       inkscape:locked="false" /><sodipodi:guide
       position="1153.4382,608.13529"
       orientation="0,-1"
       id="guide390"
       inkscape:locked="false" /><sodipodi:guide
       position="1210.0591,618.32175"
       orientation="1,0"
       id="guide392"
       inkscape:locked="false" /><sodipodi:guide
       position="1113.2895,501.37258"
       orientation="0,-1"
       id="guide394"
       inkscape:locked="false" /><sodipodi:guide
       position="1187.8341,621.09987"
       orientation="0,-1"
       id="guide5821"
       inkscape:locked="false" /></sodipodi:namedview><defs
     id="defs2" /><g
     inkscape:label="Layer 1"
     inkscape:groupmode="layer"
     id="layer1"
     transform="translate(1038.0799,-318.4869)"><path
       id="path3977"
       style="fill:#1eb8b0;fill-opacity:1;stroke-width:1.34978;stroke-linecap:round;stroke-linejoin:round;stroke-dashoffset:6.23623;paint-order:fill markers stroke"
       d="m -1000.54,318.48689 a 37.539846,37.539846 0 0 0 -26.5447,10.9952 37.539846,37.539846 0 0 0 0,53.08927 37.539846,37.539846 0 0 0 0.9431,0.87488 c 0.1163,0.15689 0.2415,0.30963 0.384,0.45217 l 50.83718,50.8372 0.0589,0.0589 c 0.71935,0.71935 1.65745,1.08107 2.60605,1.09399 0.0255,6.8e-4 0.051,0.003 0.0765,0.003 0.0255,-1.6e-4 0.0509,-0.002 0.0765,-0.003 0.9486,-0.0129 1.88669,-0.37463 2.60604,-1.09399 l 47.72422,-47.72421 3.1719,-3.1719 c 0.14252,-0.14254 0.26774,-0.29528 0.38396,-0.45217 a 37.539846,37.539846 0 0 0 0.94309,-0.87488 37.539846,37.539846 0 0 0 0,-53.08927 37.539846,37.539846 0 0 0 -53.08927,0 37.539846,37.539846 0 0 0 -0.87591,0.94361 c -0.15664,0.11609 -0.30881,0.2411 -0.45114,0.38344 l -0.48937,0.48886 -0.48938,-0.48886 c -0.14201,-0.14202 -0.29438,-0.26652 -0.45062,-0.38241 a 37.539846,37.539846 0 0 0 -0.87643,-0.94464 37.539846,37.539846 0 0 0 -26.54462,-10.9952 z m 60.14822,29.87002 a 6.2374001,6.2374001 0 0 1 4.43539,1.76371 6.2374001,6.2374001 0 0 1 0.12919,8.82014 l -40.49623,41.68375 -25.96897,-23.25232 a 6.2374001,6.2374001 0 0 1 -0.4842,-8.80825 6.2374001,6.2374001 0 0 1 8.8067,-0.48679 l 17.04495,15.26367 32.14843,-33.09359 a 6.2374001,6.2374001 0 0 1 4.38474,-1.89032 z"
       inkscape:export-filename=".\verifikasi_love_hijau.png"
       inkscape:export-xdpi="96"
       inkscape:export-ydpi="96" /><rect
       style="fill:none;fill-opacity:1;stroke:#000000;stroke-width:2.53763;stroke-linecap:round;stroke-linejoin:round;stroke-dashoffset:6.23623;paint-order:fill markers stroke"
       id="rect3981"
       width="577.36932"
       height="485.73062"
       x="-1346.384"
       y="240.93123" /></g></svg>
