<?xml version="1.0" encoding="UTF-8" standalone="no"?>
<!-- Created with Inkscape (http://www.inkscape.org/) -->

<svg
   width="131.67859mm"
   height="131.67877mm"
   viewBox="0 0 131.67859 131.67877"
   version="1.1"
   id="svg5"
   xml:space="preserve"
   inkscape:version="1.2 (dc2aedaf03, 2022-05-15)"
   sodipodi:docname="drawing.svg.2025_01_17_15_17_03.0.svg"
   xmlns:inkscape="http://www.inkscape.org/namespaces/inkscape"
   xmlns:sodipodi="http://sodipodi.sourceforge.net/DTD/sodipodi-0.dtd"
   xmlns="http://www.w3.org/2000/svg"
   xmlns:svg="http://www.w3.org/2000/svg"><sodipodi:namedview
     id="namedview7"
     pagecolor="#ffffff"
     bordercolor="#ffffff"
     borderopacity="1"
     inkscape:showpageshadow="0"
     inkscape:pageopacity="0"
     inkscape:pagecheckerboard="0"
     inkscape:deskcolor="#ffffff"
     inkscape:document-units="mm"
     showgrid="true"
     showborder="false"
     showguides="true"
     inkscape:zoom="0.1767767"
     inkscape:cx="-3753.3227"
     inkscape:cy="6491.2401"
     inkscape:window-width="1920"
     inkscape:window-height="1051"
     inkscape:window-x="-9"
     inkscape:window-y="-9"
     inkscape:window-maximized="1"
     inkscape:current-layer="layer1"><inkscape:grid
       type="xygrid"
       id="grid182"
       spacingx="2.6458333"
       spacingy="2.6458333"
       color="#89c7e5"
       opacity="0.16862745"
       empcolor="#89c7e5"
       empopacity="0.16862745"
       visible="true" /><sodipodi:guide
       position="1218.715,368.77131"
       orientation="-1,0"
       id="guide292"
       inkscape:locked="false"
       inkscape:label=""
       inkscape:color="rgb(237,51,59)" /><sodipodi:guide
       position="1271.9183,554.69712"
       orientation="-1,0"
       id="guide352"
       inkscape:locked="false"
       inkscape:label=""
       inkscape:color="rgb(0,134,229)" /><sodipodi:guide
       position="1403.791,557.85773"
       orientation="-1,0"
       id="guide354"
       inkscape:locked="false"
       inkscape:label=""
       inkscape:color="rgb(0,134,229)" /><sodipodi:guide
       position="1405.1636,495.94524"
       orientation="0,-1"
       id="guide360"
       inkscape:locked="false" /><sodipodi:guide
       position="1284.8608,622.94523"
       orientation="1,0"
       id="guide388"
       inkscape:locked="false" /><sodipodi:guide
       position="1334.0733,615.27231"
       orientation="0,-1"
       id="guide390"
       inkscape:locked="false" /><sodipodi:guide
       position="1390.6942,625.45877"
       orientation="1,0"
       id="guide392"
       inkscape:locked="false" /><sodipodi:guide
       position="1293.9246,508.5096"
       orientation="0,-1"
       id="guide394"
       inkscape:locked="false" /><sodipodi:guide
       position="1368.4692,628.23689"
       orientation="0,-1"
       id="guide5821"
       inkscape:locked="false" /></sodipodi:namedview><defs
     id="defs2" /><g
     inkscape:label="Layer 1"
     inkscape:groupmode="layer"
     id="layer1"
     transform="translate(1218.715,-311.34978)"><path
       id="path1888"
       style="fill:#1eb8b0;fill-opacity:1;stroke-width:12.7452;stroke-linecap:square;stroke-dashoffset:6.23623;paint-order:fill markers stroke"
       inkscape:transform-center-x="-3.4426101e-06"
       inkscape:transform-center-y="-4.210814e-06"
       d="m -1152.8757,311.3498 c -2.3523,0.004 -9.0993,8.48781 -11.4065,8.94673 -2.2822,0.45396 -11.6409,-4.8289 -13.7893,-3.93516 -2.172,0.90352 -5.1579,11.32435 -7.1138,12.63127 -1.9348,1.29278 -12.6027,-0.007 -14.2457,1.64125 -1.6608,1.66591 -0.4319,12.43594 -1.7389,14.39188 -1.2928,1.93479 -11.6463,4.81635 -12.5336,6.96754 -0.8969,2.17468 4.36,11.65475 3.9011,13.96193 -0.454,2.28226 -8.9162,8.90699 -8.9126,11.23394 0,2.35239 8.4883,9.09883 8.9472,11.40603 0.454,2.28224 -4.8294,11.64085 -3.9357,13.78933 0.9036,2.17196 11.3244,5.15835 12.6313,7.11429 1.2928,1.93481 -0.01,12.60274 1.6412,14.24566 1.666,1.66086 12.436,0.43198 14.3919,1.7389 1.9348,1.2928 4.8164,11.64587 6.9676,12.53308 2.1747,0.89693 11.6547,-4.35946 13.9619,-3.90052 2.2823,0.45396 8.907,8.91615 11.2339,8.91263 2.3524,-0.004 9.0989,-8.48833 11.4061,-8.94726 2.2822,-0.45397 11.6408,4.82891 13.7893,3.93515 2.172,-0.9035 5.1584,-11.32383 7.1143,-12.63074 1.9348,-1.29279 12.6027,0.007 14.2456,-1.64124 1.6609,-1.66591 0.432,-12.43596 1.739,-14.3919 1.2927,-1.93479 11.6458,-4.81686 12.533,-6.96805 0.897,-2.17468 -4.3594,-11.65474 -3.9005,-13.96194 0.454,-2.28224 8.9162,-8.90647 8.9126,-11.23342 0,-2.35239 -8.4883,-9.09935 -8.9472,-11.40654 -0.454,-2.28225 4.8289,-11.64086 3.9351,-13.78933 -0.9035,-2.17196 -11.3238,-5.15784 -12.6307,-7.11378 -1.2928,-1.93481 0.01,-12.60274 -1.6413,-14.24564 -1.6659,-1.66088 -12.4359,-0.43252 -14.3918,-1.73944 -1.9348,-1.29278 -4.8169,-11.64585 -6.9681,-12.53308 -2.1747,-0.89692 -11.6542,4.35999 -13.9614,3.90106 -2.2823,-0.45397 -8.907,-8.91617 -11.234,-8.91263 z m 28.8246,43.50327 a 6.2374001,6.2374001 0 0 1 4.4354,1.76166 6.2374001,6.2374001 0 0 1 0.1287,8.82065 l -40.4957,41.6853 -25.969,-23.25388 a 6.2374001,6.2374001 0 0 1 -0.4842,-8.80669 6.2374001,6.2374001 0 0 1 8.8067,-0.48627 l 17.045,15.2616 32.1484,-33.09152 a 6.2374001,6.2374001 0 0 1 4.3847,-1.89085 z"
       inkscape:export-filename="verifikasi_star_hijau.png"
       inkscape:export-xdpi="96"
       inkscape:export-ydpi="96" /><rect
       style="fill:none;fill-opacity:1;stroke:#000000;stroke-width:2.53763;stroke-linecap:round;stroke-linejoin:round;stroke-dashoffset:6.23623;paint-order:fill markers stroke"
       id="rect3981"
       width="577.36932"
       height="485.73062"
       x="-1346.384"
       y="240.93123" /></g></svg>
