<?xml version="1.0" encoding="UTF-8" standalone="no"?>
<!-- Created with Inkscape (http://www.inkscape.org/) -->

<svg
   width="129.9259mm"
   height="130.6189mm"
   viewBox="0 0 129.9259 130.6189"
   version="1.1"
   id="svg5"
   xml:space="preserve"
   inkscape:version="1.2 (dc2aedaf03, 2022-05-15)"
   sodipodi:docname="drawing.svg.2025_01_17_15_17_03.0.svg"
   xmlns:inkscape="http://www.inkscape.org/namespaces/inkscape"
   xmlns:sodipodi="http://sodipodi.sourceforge.net/DTD/sodipodi-0.dtd"
   xmlns="http://www.w3.org/2000/svg"
   xmlns:svg="http://www.w3.org/2000/svg"><sodipodi:namedview
     id="namedview7"
     pagecolor="#ffffff"
     bordercolor="#ffffff"
     borderopacity="1"
     inkscape:showpageshadow="0"
     inkscape:pageopacity="0"
     inkscape:pagecheckerboard="0"
     inkscape:deskcolor="#ffffff"
     inkscape:document-units="mm"
     showgrid="true"
     showborder="false"
     showguides="true"
     inkscape:zoom="0.1767767"
     inkscape:cx="-3753.3227"
     inkscape:cy="6491.2401"
     inkscape:window-width="1920"
     inkscape:window-height="1051"
     inkscape:window-x="-9"
     inkscape:window-y="-9"
     inkscape:window-maximized="1"
     inkscape:current-layer="layer1"><inkscape:grid
       type="xygrid"
       id="grid182"
       spacingx="2.6458333"
       spacingy="2.6458333"
       color="#89c7e5"
       opacity="0.16862745"
       empcolor="#89c7e5"
       empopacity="0.16862745"
       visible="true" /><sodipodi:guide
       position="1043.1502,-580.5651"
       orientation="-1,0"
       id="guide292"
       inkscape:locked="false"
       inkscape:label=""
       inkscape:color="rgb(237,51,59)" /><sodipodi:guide
       position="1096.3535,-394.63929"
       orientation="-1,0"
       id="guide352"
       inkscape:locked="false"
       inkscape:label=""
       inkscape:color="rgb(0,134,229)" /><sodipodi:guide
       position="1228.2262,-391.47868"
       orientation="-1,0"
       id="guide354"
       inkscape:locked="false"
       inkscape:label=""
       inkscape:color="rgb(0,134,229)" /><sodipodi:guide
       position="1229.5987,-453.39117"
       orientation="0,-1"
       id="guide360"
       inkscape:locked="false" /><sodipodi:guide
       position="1109.296,-326.39118"
       orientation="1,0"
       id="guide388"
       inkscape:locked="false" /><sodipodi:guide
       position="1158.5085,-334.0641"
       orientation="0,-1"
       id="guide390"
       inkscape:locked="false" /><sodipodi:guide
       position="1215.1294,-323.87764"
       orientation="1,0"
       id="guide392"
       inkscape:locked="false" /><sodipodi:guide
       position="1118.3598,-440.82681"
       orientation="0,-1"
       id="guide394"
       inkscape:locked="false" /><sodipodi:guide
       position="1192.9044,-321.09952"
       orientation="0,-1"
       id="guide5821"
       inkscape:locked="false" /></sodipodi:namedview><defs
     id="defs2" /><g
     inkscape:label="Layer 1"
     inkscape:groupmode="layer"
     id="layer1"
     transform="translate(1043.1502,636.92674)"><path
       id="path2427"
       style="color:#000000;fill:#1eb8b0;fill-opacity:1;stroke-width:1;stroke-linecap:square;stroke-dashoffset:6.23623;-inkscape-stroke:none;paint-order:fill markers stroke"
       d="m -929.00672,-636.92675 -16.15751,3.28714 -9.81694,1.99781 -62.19443,12.65349 -9.819,1.99781 -16.1556,3.28662 5.4338,26.48779 h -5.0989 v 18.5198 9.99991 23.86727 9.99991 13.52166 4.99969 h 101.06994 9.99987 18.52118 v -18.52135 -9.99991 -23.86727 -9.99991 -18.5198 h -5.58457 z m -7.81134,11.77603 1.06967,5.21363 c -2.51577,-0.62582 -4.74137,-2.08915 -6.30654,-4.14807 z m -15.57311,3.16828 c 3.41367,7.24797 10.72051,12.05553 18.75428,12.3393 l 4.60027,22.42705 h -30.79382 c 0.3011,-2.01937 0.2618,-4.11967 -0.17,-6.22494 -1.7503,-8.5322 -9.38454,-14.47769 -17.82521,-14.49627 -1.20577,-0.003 -2.42797,0.1153 -3.65197,0.36431 -9.44574,1.92177 -15.73371,10.96632 -14.37011,20.3569 h -31.64197 l -0.6562,-3.19929 c 7.2782,-3.399 12.1062,-10.67489 12.392,-18.67534 z m -73.70063,14.99495 c -0.6285,2.5049 -2.0981,4.72042 -4.1651,6.27868 l -1.0697,-5.21363 z m 48.28475,9.0196 c 3.8314,-0.0148 7.18737,2.61554 7.98917,6.52415 0.3019,1.47159 0.1981,2.91723 -0.2357,4.22765 h -15.53901 c -0.1034,-0.31209 -0.1904,-0.63397 -0.2584,-0.96531 -0.9163,-4.467 1.89347,-8.70184 6.37897,-9.6144 0.5607,-0.11408 1.11767,-0.16997 1.66497,-0.17209 z m -55.00835,20.75222 h 7.5819 c -1.3623,3.47181 -4.1101,6.21962 -7.5819,7.58197 z m 17.9782,0 h 73.63284 c 1.9572,8.93904 9.04087,16.02215 17.98021,17.97875 v 24.94835 c -8.93944,1.95696 -16.02361,9.04129 -17.98071,17.98081 h -73.63184 c -1.9567,-8.93932 -9.0398,-16.02315 -17.9787,-17.98029 v -24.94938 c 8.9388,-1.9568 16.0214,-9.0394 17.9782,-17.97824 z m 84.02908,0 h 7.58397 v 7.58197 c -3.47237,-1.36229 -6.22117,-4.11001 -7.58397,-7.58197 z m -46.15403,10.63656 c -10.88514,0 -19.81628,8.93118 -19.81628,19.81637 0,10.8852 8.93114,19.81636 19.81628,19.81636 10.88514,0 19.81628,-8.93116 19.81628,-19.81636 0,-10.88519 -8.93114,-19.81637 -19.81628,-19.81637 z m 0,9.99991 c 5.48077,0 9.81644,4.33565 9.81644,9.81646 0,5.48081 -4.33567,9.81645 -9.81644,9.81645 -5.48077,0 -9.81634,-4.33564 -9.81634,-9.81645 0,-5.48081 4.33557,-9.81646 9.81634,-9.81646 z m -55.85325,32.68793 c 3.4718,1.36273 6.2196,4.11133 7.5819,7.58351 h -7.5819 z m 109.59125,0 v 7.58351 h -7.58397 c 1.3628,-3.47233 4.1116,-6.22084 7.58397,-7.58351 z"
       inkscape:export-filename=".\bayar langsung.png"
       inkscape:export-xdpi="96"
       inkscape:export-ydpi="96" /><rect
       style="fill:none;fill-opacity:1;stroke:#000000;stroke-width:2.04835;stroke-linecap:round;stroke-linejoin:round;stroke-dashoffset:6.23623;paint-order:fill markers stroke"
       id="rect2815"
       width="937.06879"
       height="513.27216"
       x="-1535.214"
       y="-727.953" /></g></svg>
