<?xml version="1.0" encoding="UTF-8" standalone="no"?>
<!-- Created with Inkscape (http://www.inkscape.org/) -->

<svg
   width="132.17603mm"
   height="132.29269mm"
   viewBox="0 0 132.17603 132.29269"
   version="1.1"
   id="svg5"
   xml:space="preserve"
   inkscape:version="1.2 (dc2aedaf03, 2022-05-15)"
   sodipodi:docname="drawing.svg.2025_01_17_15_17_03.0.svg"
   xmlns:inkscape="http://www.inkscape.org/namespaces/inkscape"
   xmlns:sodipodi="http://sodipodi.sourceforge.net/DTD/sodipodi-0.dtd"
   xmlns="http://www.w3.org/2000/svg"
   xmlns:svg="http://www.w3.org/2000/svg"><sodipodi:namedview
     id="namedview7"
     pagecolor="#ffffff"
     bordercolor="#ffffff"
     borderopacity="1"
     inkscape:showpageshadow="0"
     inkscape:pageopacity="0"
     inkscape:pagecheckerboard="0"
     inkscape:deskcolor="#ffffff"
     inkscape:document-units="mm"
     showgrid="true"
     showborder="false"
     showguides="true"
     inkscape:zoom="0.1767767"
     inkscape:cx="-3753.3227"
     inkscape:cy="6491.2401"
     inkscape:window-width="1920"
     inkscape:window-height="1051"
     inkscape:window-x="-9"
     inkscape:window-y="-9"
     inkscape:window-maximized="1"
     inkscape:current-layer="layer1"><inkscape:grid
       type="xygrid"
       id="grid182"
       spacingx="2.6458333"
       spacingy="2.6458333"
       color="#89c7e5"
       opacity="0.16862745"
       empcolor="#89c7e5"
       empopacity="0.16862745"
       visible="true" /><sodipodi:guide
       position="869.88541,-579.72822"
       orientation="-1,0"
       id="guide292"
       inkscape:locked="false"
       inkscape:label=""
       inkscape:color="rgb(237,51,59)" /><sodipodi:guide
       position="923.08875,-393.80241"
       orientation="-1,0"
       id="guide352"
       inkscape:locked="false"
       inkscape:label=""
       inkscape:color="rgb(0,134,229)" /><sodipodi:guide
       position="1054.9614,-390.6418"
       orientation="-1,0"
       id="guide354"
       inkscape:locked="false"
       inkscape:label=""
       inkscape:color="rgb(0,134,229)" /><sodipodi:guide
       position="1056.334,-452.55429"
       orientation="0,-1"
       id="guide360"
       inkscape:locked="false" /><sodipodi:guide
       position="936.03124,-325.5543"
       orientation="1,0"
       id="guide388"
       inkscape:locked="false" /><sodipodi:guide
       position="985.24374,-333.22722"
       orientation="0,-1"
       id="guide390"
       inkscape:locked="false" /><sodipodi:guide
       position="1041.8646,-323.04076"
       orientation="1,0"
       id="guide392"
       inkscape:locked="false" /><sodipodi:guide
       position="945.09505,-439.98993"
       orientation="0,-1"
       id="guide394"
       inkscape:locked="false" /><sodipodi:guide
       position="1019.6396,-320.26264"
       orientation="0,-1"
       id="guide5821"
       inkscape:locked="false" /></sodipodi:namedview><defs
     id="defs2" /><g
     inkscape:label="Layer 1"
     inkscape:groupmode="layer"
     id="layer1"
     transform="translate(869.8854,637.76365)"><g
       id="g2425"
       transform="translate(95.250003,-232.73459)"
       style="fill:#1eb8b0;fill-opacity:1"
       inkscape:export-filename=".\nominal.png"
       inkscape:export-xdpi="96"
       inkscape:export-ydpi="96"><path
         id="path2407"
         style="color:#000000;fill:#1eb8b0;fill-opacity:1;stroke-linecap:square;stroke-dashoffset:6.23623;-inkscape-stroke:none;paint-order:fill markers stroke"
         d="m -934.8834,-405.02906 v 4.99969 52.61695 h 9.99991 v -47.61674 h 81.92368 v 112.29289 h -36.36057 v 9.99991 h 46.36099 v -132.2927 z" /><path
         id="path2409"
         style="color:#000000;fill:#1eb8b0;fill-opacity:1;stroke-linecap:square;stroke-dashoffset:6.23623;-inkscape-stroke:none;paint-order:fill markers stroke"
         d="m -965.1353,-293.18628 v 20.44992 h 4.9997 80.8147 v -20.44992 h -9.9999 v 10.45001 h -65.81459 v -10.45001 z" /><path
         style="color:#000000;fill:#1eb8b0;fill-opacity:1;stroke-linecap:square;stroke-dashoffset:6.23623;-inkscape-stroke:none;paint-order:fill markers stroke"
         d="m -917.09829,-387.90033 v 5 22.60156 h 66.35546 v -27.60156 z m 10,10 h 46.35546 v 7.60156 h -46.35546 z"
         id="path2411" /><path
         style="color:#000000;fill:#1eb8b0;fill-opacity:1;stroke-linecap:square;stroke-dashoffset:6.23623;-inkscape-stroke:none;paint-order:fill markers stroke"
         d="m -867.09244,-346.82026 v 5 13.76953 5 h 10 v -5 -13.76953 -5 z"
         id="path2413" /><path
         style="color:#000000;fill:#1eb8b0;fill-opacity:1;stroke-linecap:square;stroke-dashoffset:6.23623;-inkscape-stroke:none;paint-order:fill markers stroke"
         d="m -873.44205,-339.6269 v 10 h 5 12.69922 5 v -10 h -5 -12.69922 z"
         id="path2415" /><g
         id="g2421"
         transform="translate(-1017.9889,-219.8476)"
         style="fill:#1eb8b0;fill-opacity:1"><path
           style="color:#000000;fill:#1eb8b0;fill-opacity:1;stroke-width:9.99997;stroke-linecap:square;stroke-dashoffset:6.23623;-inkscape-stroke:none;paint-order:fill markers stroke"
           d="M 162.24606,-84.928857 H 150.60274"
           id="path2417" /><path
           style="color:#000000;fill:#1eb8b0;fill-opacity:1;stroke-linecap:square;stroke-dashoffset:6.23623;-inkscape-stroke:none;paint-order:fill markers stroke"
           d="m 145.60352,-89.929687 v 10 h 5 11.64257 5 v -10 h -5 -11.64257 z"
           id="path2419" /></g><path
         id="path2423"
         style="color:#000000;fill:#1eb8b0;fill-opacity:1;stroke-linecap:square;stroke-dashoffset:6.23623;paint-order:fill markers stroke"
         d="m -965.1354,-347.41187 v 58.27138 h 5.00021 80.81419 v -58.27138 z m 15.85795,9.99991 h 53.66235 a 5.9791093,6.121469 0 0 0 -0.003,0.0853 5.9791093,6.121469 0 0 0 5.97948,6.12107 5.9791093,6.121469 0 0 0 0.31781,-0.009 v 25.87801 a 5.9791093,6.121469 0 0 0 -0.31781,-0.0119 5.9791093,6.121469 0 0 0 -5.97948,6.12107 5.9791093,6.121469 0 0 0 0.003,0.0868 h -53.66235 a 5.9791093,6.121469 0 0 0 0.001,-0.0868 5.9791093,6.121469 0 0 0 -5.85907,-6.11642 v -25.86354 a 5.9791093,6.121469 0 0 0 5.85907,-6.11952 5.9791093,6.121469 0 0 0 -0.001,-0.0853 z m 27.04951,9.44542 a 9.4640884,9.6894226 0 0 0 -9.46402,9.68985 9.4640884,9.6894226 0 0 0 9.46402,9.68933 9.4640884,9.6894226 0 0 0 9.46402,-9.68933 9.4640884,9.6894226 0 0 0 -9.46402,-9.68985 z" /></g><rect
       style="fill:none;fill-opacity:1;stroke:#000000;stroke-width:2.04835;stroke-linecap:round;stroke-linejoin:round;stroke-dashoffset:6.23623;paint-order:fill markers stroke"
       id="rect2815"
       width="937.06879"
       height="513.27216"
       x="-1535.214"
       y="-727.953" /></g></svg>
