<?xml version="1.0" encoding="UTF-8" standalone="no"?>
<!-- Created with Inkscape (http://www.inkscape.org/) -->

<svg
   width="131.83997mm"
   height="131.84003mm"
   viewBox="0 0 131.83997 131.84003"
   version="1.1"
   id="svg5"
   xml:space="preserve"
   inkscape:version="1.2 (dc2aedaf03, 2022-05-15)"
   sodipodi:docname="drawing.svg.2025_01_17_15_17_03.0.svg"
   xmlns:inkscape="http://www.inkscape.org/namespaces/inkscape"
   xmlns:sodipodi="http://sodipodi.sourceforge.net/DTD/sodipodi-0.dtd"
   xmlns="http://www.w3.org/2000/svg"
   xmlns:svg="http://www.w3.org/2000/svg"><sodipodi:namedview
     id="namedview7"
     pagecolor="#ffffff"
     bordercolor="#ffffff"
     borderopacity="1"
     inkscape:showpageshadow="0"
     inkscape:pageopacity="0"
     inkscape:pagecheckerboard="0"
     inkscape:deskcolor="#ffffff"
     inkscape:document-units="mm"
     showgrid="true"
     showborder="false"
     showguides="true"
     inkscape:zoom="0.1767767"
     inkscape:cx="-3753.3227"
     inkscape:cy="6491.2401"
     inkscape:window-width="1920"
     inkscape:window-height="1051"
     inkscape:window-x="-9"
     inkscape:window-y="-9"
     inkscape:window-maximized="1"
     inkscape:current-layer="layer1"><inkscape:grid
       type="xygrid"
       id="grid182"
       spacingx="2.6458333"
       spacingy="2.6458333"
       color="#89c7e5"
       opacity="0.16862745"
       empcolor="#89c7e5"
       empopacity="0.16862745"
       visible="true" /><sodipodi:guide
       position="1210.1907,-579.95457"
       orientation="-1,0"
       id="guide292"
       inkscape:locked="false"
       inkscape:label=""
       inkscape:color="rgb(237,51,59)" /><sodipodi:guide
       position="1263.3941,-394.02875"
       orientation="-1,0"
       id="guide352"
       inkscape:locked="false"
       inkscape:label=""
       inkscape:color="rgb(0,134,229)" /><sodipodi:guide
       position="1395.2668,-390.86814"
       orientation="-1,0"
       id="guide354"
       inkscape:locked="false"
       inkscape:label=""
       inkscape:color="rgb(0,134,229)" /><sodipodi:guide
       position="1396.6393,-452.78063"
       orientation="0,-1"
       id="guide360"
       inkscape:locked="false" /><sodipodi:guide
       position="1276.3366,-325.78064"
       orientation="1,0"
       id="guide388"
       inkscape:locked="false" /><sodipodi:guide
       position="1325.549,-333.45356"
       orientation="0,-1"
       id="guide390"
       inkscape:locked="false" /><sodipodi:guide
       position="1382.1699,-323.2671"
       orientation="1,0"
       id="guide392"
       inkscape:locked="false" /><sodipodi:guide
       position="1285.4004,-440.21627"
       orientation="0,-1"
       id="guide394"
       inkscape:locked="false" /><sodipodi:guide
       position="1359.9449,-320.48898"
       orientation="0,-1"
       id="guide5821"
       inkscape:locked="false" /></sodipodi:namedview><defs
     id="defs2" /><g
     inkscape:label="Layer 1"
     inkscape:groupmode="layer"
     id="layer1"
     transform="translate(1210.1907,637.53734)"><path
       id="path2429"
       style="color:#000000;fill:#1eb8b0;fill-opacity:1;stroke-linecap:square;stroke-dashoffset:6.23623;-inkscape-stroke:none;paint-order:fill markers stroke"
       d="m -1210.1907,-637.53731 v 5.00022 23.43732 4.9997 98.40278 h 131.84 v -103.40248 -28.43754 z m 9.9999,9.99991 h 111.8402 v 18.43763 h -111.8402 z m 0,28.43754 h 111.8402 v 83.40214 h -111.8402 z m 63.9738,10.16269 v 11.23549 c -2.7603,0.83681 -5.3503,2.2455 -7.5675,4.1739 l -9.5611,-5.52007 -6.1878,10.71717 9.3178,5.38004 c -0.7313,3.01633 -0.7532,6.12557 -0.1297,9.09401 l -9.1881,5.30459 6.1878,10.71769 9.0402,-5.21932 c 1.1242,1.05689 2.3847,2.00056 3.7745,2.80293 1.3895,0.80226 2.8367,1.42195 4.3139,1.86707 v 10.43864 h 12.3755 v -10.60865 c 2.8829,-0.94421 5.5646,-2.51842 7.8114,-4.66018 l 9.3173,5.37951 6.1877,-10.71717 -9.5612,-5.52008 c 0.5616,-2.88483 0.4873,-5.83245 -0.1684,-8.64185 l 9.7296,-5.61723 -6.1877,-10.71717 -9.8237,5.67149 c -1.0362,-0.93041 -2.1818,-1.76725 -3.4324,-2.48926 -1.2509,-0.7222 -2.5484,-1.29589 -3.8726,-1.72806 v -11.34349 z m -52.8076,5.69267 v 5.00022 13.46687 h 18.4666 v -18.46709 z m 58.8822,14.5986 c 1.752,0.0247 3.5293,0.49074 5.1738,1.44022 5.1031,2.94625 6.8122,9.32549 3.866,14.42857 -2.9463,5.10309 -9.3255,6.81269 -14.4286,3.86644 -5.1031,-2.94628 -6.8122,-9.3255 -3.8659,-14.42858 1.9335,-3.3489 5.3453,-5.23649 8.9048,-5.30562 0.1166,-0.002 0.2331,-0.003 0.3499,-10e-4 z m -58.8822,16.83308 v 5.00021 13.46688 h 18.4666 v -18.46709 z"
       inkscape:export-filename=".\projek program.png"
       inkscape:export-xdpi="96"
       inkscape:export-ydpi="96" /><rect
       style="fill:none;fill-opacity:1;stroke:#000000;stroke-width:2.04835;stroke-linecap:round;stroke-linejoin:round;stroke-dashoffset:6.23623;paint-order:fill markers stroke"
       id="rect2815"
       width="937.06879"
       height="513.27216"
       x="-1535.214"
       y="-727.953" /></g></svg>
